<?xml version="1.0" encoding="utf-8"?>
<!-- Generator: Adobe Illustrator 27.5.0, SVG Export Plug-In . SVG Version: 6.00 Build 0)  -->
<svg version="1.1" xmlns="http://www.w3.org/2000/svg" xmlns:xlink="http://www.w3.org/1999/xlink" x="0px" y="0px"
	 viewBox="0 0 500 500" style="enable-background:new 0 0 500 500;" xml:space="preserve">
<g id="Floor">
	<ellipse id="Floor_15_" style="fill:#F5F5F5;" cx="250" cy="345.796" rx="223.403" ry="131.224"/>
</g>
<g id="Shadows_1_">
	<path id="Shadow_28_" style="fill:#E0E0E0;" d="M93.965,345.907c12.927,7.463,12.927,19.564,0,27.028s-33.886,7.464-46.813,0
		c-12.927-7.463-12.927-19.564,0-27.028C60.079,338.444,81.038,338.444,93.965,345.907z"/>
	<path id="Shadow_2_" style="fill:#E0E0E0;" d="M122.336,363.06L239.6,430.762c2.391,1.381,6.269,1.381,8.66,0l198.504-114.606
		c2.391-1.381,2.391-3.619,0-5L329.5,243.454c-2.392-1.381-6.269-1.381-8.66,0L122.336,358.06
		C119.945,359.441,119.945,361.679,122.336,363.06z"/>
</g>
<g id="Plants">
	<g id="Plants_2_">
		<g id="XMLID_1019_">
			<g id="XMLID_1079_">
				<path id="XMLID_1101_" style="fill:#27DEBF;" d="M418.277,291.877l-8.17-4.721c0,0-4.862-20.203-2.925-38.383
					c2.724-25.559,16.479-36.695,25.946-32.972c6.297,2.476,8.25,9.642-2.335,24.864
					C424.548,249.647,416.875,268.355,418.277,291.877z"/>
			</g>
			<g id="XMLID_1073_" style="opacity:0.3;">
				<path id="XMLID_1078_" d="M418.277,291.877l-8.17-4.721c0,0-4.862-20.203-2.925-38.383
					c2.724-25.559,16.479-36.695,25.946-32.972c6.297,2.476,8.25,9.642-2.335,24.864
					C424.548,249.647,416.875,268.355,418.277,291.877z"/>
			</g>
			<g id="XMLID_1029_">
				<path id="XMLID_1072_" style="fill:#FFFFFF;" d="M414.891,281.951c0.026-0.001,0.052-0.005,0.078-0.01
					c0.307-0.059,0.51-0.355,0.451-0.662c-4.478-23.574,3.757-50.065,13.955-61.089c0.212-0.229,0.198-0.589-0.032-0.801
					c-0.23-0.21-0.588-0.199-0.801,0.031c-10.384,11.224-18.78,38.147-14.236,62.069
					C414.36,281.772,414.614,281.965,414.891,281.951z"/>
			</g>
		</g>
		<g id="XMLID_918_">
			<g id="XMLID_943_">
				<path id="XMLID_991_" style="fill:#27DEBF;" d="M439.677,304.236c1.29,0.657,4.723-2.281,5.679-2.995
					c1.638-1.223,2.93-2.903,3.75-4.77c0.955-2.173,1.108-4.459,0.657-6.787c-0.234-1.207-0.634-2.376-1.033-3.539
					c-0.392-1.142-0.783-2.285-1.175-3.427c-0.386-1.127-0.778-2.293-0.687-3.481c0.184-2.393,2.211-4.166,4.058-5.7
					c2.042-1.696,4.146-3.905,3.99-6.768c-0.121-2.208-1.368-4.202-2.825-5.867c-1.457-1.665-3.158-3.114-4.488-4.882
					c-0.957-1.273-1.73-2.785-1.665-4.376c0.04-0.989,0.401-1.936,0.829-2.828c0.917-1.915,2.165-3.69,2.761-5.728
					c0.596-2.038,0.371-4.524-1.264-5.878c-1.342-1.112-3.257-1.18-4.988-0.977c-1.601,0.187-3.134,0.991-4.501,1.844
					c-4.418,2.757-6.741,8.271-11.466,10.459c-1.822,0.844-3.852,1.111-5.766,1.721c-1.914,0.61-3.841,1.701-4.648,3.539
					c-1.592,3.625,1.913,7.818,0.858,11.635c-0.934,3.377-4.098,4.812-5.759,7.897c-0.727,1.35-0.833,2.872-0.629,4.392
					c0.347,2.571,0.82,4.447,2.204,7.256c1.144,2.321,4.364,6.709,4.364,6.709S439.48,304.135,439.677,304.236z"/>
			</g>
			<g id="XMLID_926_" style="opacity:0.15;">
				<path id="XMLID_941_" d="M439.677,304.236c1.29,0.657,4.723-2.281,5.679-2.995c1.638-1.223,2.93-2.903,3.75-4.77
					c0.955-2.173,1.108-4.459,0.657-6.787c-0.234-1.207-0.634-2.376-1.033-3.539c-0.392-1.142-0.783-2.285-1.175-3.427
					c-0.386-1.127-0.778-2.293-0.687-3.481c0.184-2.393,2.211-4.166,4.058-5.7c2.042-1.696,4.146-3.905,3.99-6.768
					c-0.121-2.208-1.368-4.202-2.825-5.867c-1.457-1.665-3.158-3.114-4.488-4.882c-0.957-1.273-1.73-2.785-1.665-4.376
					c0.04-0.989,0.401-1.936,0.829-2.828c0.917-1.915,2.165-3.69,2.761-5.728c0.596-2.038,0.371-4.524-1.264-5.878
					c-1.342-1.112-3.257-1.18-4.988-0.977c-1.601,0.187-3.134,0.991-4.501,1.844c-4.418,2.757-6.741,8.271-11.466,10.459
					c-1.822,0.844-3.852,1.111-5.766,1.721c-1.914,0.61-3.841,1.701-4.648,3.539c-1.592,3.625,1.913,7.818,0.858,11.635
					c-0.934,3.377-4.098,4.812-5.759,7.897c-0.727,1.35-0.833,2.872-0.629,4.392c0.347,2.571,0.82,4.447,2.204,7.256
					c1.144,2.321,4.364,6.709,4.364,6.709S439.48,304.135,439.677,304.236z"/>
			</g>
			<g id="XMLID_924_">
				<path id="XMLID_925_" style="fill:#FFFFFF;" d="M427.172,297.718c0.008,0,0.016-0.001,0.016-0.001
					c0.32-0.029,0.549-0.306,0.521-0.617c-2.068-22.423,7.268-47.763,14.603-55.359c0.217-0.225,0.211-0.584-0.014-0.802
					c-0.226-0.217-0.584-0.21-0.802,0.014c-7.483,7.748-17.014,33.512-14.917,56.25
					C426.608,297.509,426.871,297.733,427.172,297.718z"/>
			</g>
			<g id="XMLID_922_">
				<path id="XMLID_923_" style="fill:#FFFFFF;" d="M429.4,270.071c0.055-0.003,0.111-0.014,0.166-0.034
					c7.107-2.596,16.084-3.443,16.174-3.451c0.312-0.029,0.541-0.305,0.513-0.617c-0.029-0.311-0.278-0.546-0.617-0.513
					c-0.092,0.009-9.212,0.869-16.459,3.516c-0.294,0.107-0.446,0.432-0.338,0.726C428.927,269.939,429.158,270.083,429.4,270.071z"
					/>
			</g>
		</g>
	</g>
</g>
<g id="Device">
	<g id="Laptop_1_">
		<path id="XMLID_611_" style="fill:#37474F;" d="M126.345,350.617c0,2.959,2.215,6.636,4.947,8.213l107.69,62.187
			c2.732,1.577,7.161,1.577,9.893,0l189.629-109.483c2.732-1.577,4.946-5.255,4.947-8.214c0-2.959-2.214-6.637-4.946-8.214
			l-107.69-62.187c-2.732-1.577-7.161-1.577-9.892,0L131.29,342.403C128.559,343.98,126.344,347.658,126.345,350.617z"/>
		<path id="XMLID_5480_" style="fill:#455A64;" d="M131.29,348.115l107.691,62.187c2.732,1.577,7.161,1.577,9.893,0l189.63-109.483
			c2.732-1.577,2.732-4.134,0-5.711l-107.69-62.187c-2.732-1.577-7.161-1.577-9.892,0L131.29,342.403
			C128.559,343.98,128.559,346.538,131.29,348.115z"/>
		<path id="XMLID_5466_" style="fill:#263238;" d="M243.93,411.494v10.703c-1.793,0-3.587-0.388-4.946-1.177l-107.694-62.19
			c-2.73-1.576-4.946-5.255-4.946-8.213c0-2.776,1.953-6.18,4.444-7.893c-2.216,1.588-2.045,3.918,0.503,5.392l107.694,62.19
			C240.343,411.094,242.136,411.494,243.93,411.494z"/>
		<path id="XMLID_609_" style="fill:#37474F;" d="M121.705,342.58c-2.562-1.48-2.423-3.978-2.423-7.132l-0.001-148.747
			c0-3.154,2.215-6.99,4.946-8.567L313.856,68.651c2.732-1.577,7.024-1.656,9.587-0.177c2.563,1.48,2.424,3.978,2.424,7.132v148.747
			c0,3.154-2.215,6.99-4.946,8.567L131.29,342.403C128.559,343.98,124.267,344.06,121.705,342.58z"/>
		<path id="XMLID_608_" style="fill:#455A64;" d="M325.869,75.603c0-3.148-2.217-4.425-4.948-2.855L131.288,182.235
			c-1.365,0.789-2.607,2.146-3.494,3.698l-7.059-4.106h-0.009c0.896-1.552,2.137-2.909,3.503-3.698L313.853,68.65
			c2.731-1.578,7.023-1.658,9.586-0.177C326.002,69.954,325.869,72.455,325.869,75.603z"/>
		<path id="XMLID_606_" style="fill:#263238;" d="M130.706,342.702c-2.73,1.279-6.614,1.257-9.001-0.126
			c-2.559-1.474-2.421-3.973-2.421-7.126V186.697c0-1.576,0.548-3.324,1.451-4.866l7.059,4.088v0.011
			c-0.891,1.554-1.451,3.29-1.451,4.866v148.753C126.343,342.473,128.251,343.787,130.706,342.702z"/>
		<path id="XMLID_605_" style="fill:#FAFAFA;" d="M133.951,187.939L316.779,82.411c1.639-0.946,2.968-0.179,2.968,1.714v129.847
			c0,1.893-1.329,4.194-2.968,5.14L133.951,324.638c-1.639,0.946-2.968,0.179-2.968-1.713V193.079
			C130.983,191.187,132.312,188.885,133.951,187.939z"/>
		<path id="XMLID_604_" style="fill:#263238;" d="M144.979,342.695l176.018-101.622c1.366-0.789,3.58-0.789,4.946,0l2.931,1.61
			c1.366,0.789,1.366,2.067,0,2.855L152.829,347.145c-1.366,0.789-3.581,0.788-4.947,0l-2.904-1.594
			C143.613,344.763,143.613,343.484,144.979,342.695z"/>
		<g id="XMLID_269_">
			<path id="XMLID_603_" style="fill:#263238;" d="M158.784,350.905L334.8,249.281c1.366-0.789,3.389-0.899,4.519-0.246
				l45.815,26.452c1.13,0.652,0.939,1.82-0.427,2.609L208.896,379.582c-1.366,0.788-3.392,0.902-4.525,0.254l-46.009-26.328
				C157.23,352.858,157.418,351.693,158.784,350.905z"/>
			<path id="XMLID_270_" style="fill:#455A64;" d="M311.304,291.965l5.511-3.181c0.234-0.135,0.255-0.343,0.048-0.463l-5.273-3.044
				c-0.208-0.12-0.567-0.108-0.801,0.028l-5.511,3.182c-0.234,0.135-0.255,0.342-0.047,0.462l5.272,3.044
				C310.712,292.112,311.07,292.099,311.304,291.965z M303.258,280.955l-5.511,3.182c-0.234,0.135-0.255,0.342-0.047,0.462
				l5.272,3.044c0.208,0.12,0.567,0.107,0.8-0.027l5.511-3.182c0.234-0.135,0.256-0.342,0.048-0.462l-5.273-3.044
				C303.85,280.808,303.492,280.82,303.258,280.955z M285.453,291.235l-9.327,5.385c-0.234,0.135-0.255,0.342-0.047,0.462
				l5.273,3.044c0.208,0.12,0.567,0.108,0.801-0.027l9.326-5.384c0.234-0.135,0.255-0.342,0.047-0.462l-5.272-3.044
				C286.045,291.087,285.687,291.1,285.453,291.235z M295.203,285.605l-5.511,3.182c-0.233,0.135-0.255,0.342-0.047,0.462
				l5.273,3.044c0.208,0.12,0.566,0.108,0.8-0.027l5.511-3.182c0.234-0.135,0.256-0.342,0.048-0.462l-5.273-3.044
				C295.796,285.458,295.437,285.47,295.203,285.605z M273.583,298.088l-5.511,3.182c-0.234,0.135-0.255,0.342-0.048,0.462
				l5.273,3.044c0.208,0.12,0.566,0.108,0.8-0.027l5.511-3.182c0.234-0.135,0.255-0.342,0.047-0.462l-5.272-3.044
				C274.175,297.941,273.817,297.953,273.583,298.088z M265.528,302.738l-5.511,3.182c-0.234,0.135-0.255,0.342-0.047,0.462
				l5.273,3.044c0.208,0.12,0.566,0.108,0.801-0.027l5.511-3.182c0.234-0.135,0.255-0.342,0.047-0.462l-5.272-3.044
				C266.121,302.591,265.762,302.603,265.528,302.738z M286.194,315.159l5.511-3.182c0.233-0.135,0.255-0.342,0.047-0.462
				l-5.272-3.044c-0.208-0.12-0.567-0.108-0.8,0.027l-5.511,3.182c-0.234,0.135-0.256,0.342-0.048,0.462l5.273,3.044
				C285.601,315.307,285.96,315.294,286.194,315.159z M278.139,319.81l5.511-3.181c0.234-0.136,0.255-0.342,0.047-0.463
				l-5.272-3.044c-0.208-0.12-0.566-0.108-0.801,0.027l-5.511,3.182c-0.234,0.135-0.255,0.342-0.048,0.462l5.273,3.044
				C277.547,319.957,277.905,319.945,278.139,319.81z M270.085,324.46l5.511-3.182c0.234-0.135,0.255-0.342,0.047-0.462
				l-5.272-3.044c-0.208-0.12-0.567-0.108-0.801,0.027l-5.511,3.182c-0.234,0.135-0.255,0.342-0.047,0.462l5.272,3.044
				C269.492,324.608,269.85,324.595,270.085,324.46z M262.03,329.11l5.511-3.182c0.234-0.135,0.255-0.342,0.047-0.462l-5.272-3.044
				c-0.208-0.12-0.566-0.108-0.8,0.027l-5.511,3.182c-0.234,0.135-0.255,0.342-0.047,0.462l5.272,3.044
				C261.437,329.258,261.796,329.246,262.03,329.11z M303.25,296.615l5.511-3.182c0.234-0.135,0.255-0.342,0.047-0.462l-5.273-3.044
				c-0.208-0.12-0.566-0.107-0.8,0.027l-5.511,3.182c-0.234,0.135-0.256,0.342-0.048,0.462l5.272,3.044
				C302.657,296.763,303.016,296.75,303.25,296.615z M294.249,310.509l12.294-7.098c0.234-0.136,0.255-0.342,0.047-0.462
				l-12.804-7.393c-0.208-0.12-0.566-0.108-0.801,0.027l-6.359,3.671c-0.234,0.135-0.255,0.342-0.048,0.463l6.779,3.914
				c0.208,0.12,0.186,0.327-0.048,0.462l-5.087,2.937c-0.234,0.135-0.256,0.342-0.047,0.462l5.273,3.044
				C293.656,310.656,294.015,310.644,294.249,310.509z M257.474,307.388l-5.511,3.182c-0.234,0.135-0.255,0.342-0.047,0.462
				l5.272,3.044c0.208,0.12,0.566,0.108,0.801-0.027l5.511-3.181c0.234-0.135,0.255-0.342,0.047-0.462l-5.272-3.044
				C258.066,307.241,257.708,307.254,257.474,307.388z M249.419,312.039l-5.511,3.181c-0.234,0.135-0.255,0.342-0.047,0.462
				l5.272,3.044c0.208,0.12,0.567,0.108,0.801-0.027l5.511-3.182c0.234-0.135,0.255-0.342,0.047-0.462l-5.273-3.044
				C250.011,311.892,249.653,311.904,249.419,312.039z M204.847,361.691c0.208,0.12,0.566,0.107,0.801-0.028l5.511-3.182
				c0.234-0.135,0.255-0.342,0.047-0.462l-5.272-3.044c-0.208-0.12-0.567-0.108-0.801,0.027l-5.511,3.182
				c-0.234,0.135-0.255,0.342-0.048,0.462L204.847,361.691z M184.981,349.242l-5.511,3.182c-0.234,0.135-0.255,0.342-0.047,0.462
				l5.272,3.043c0.208,0.121,0.566,0.108,0.801-0.027l5.511-3.182c0.234-0.135,0.255-0.342,0.047-0.462l-5.272-3.044
				C185.574,349.095,185.216,349.107,184.981,349.242z M195.195,358.566c0.208,0.12,0.567,0.108,0.8-0.027l5.512-3.182
				c0.234-0.135,0.255-0.342,0.047-0.462l-5.272-3.044c-0.208-0.12-0.566-0.108-0.8,0.027l-5.511,3.182
				c-0.234,0.135-0.256,0.342-0.047,0.462L195.195,358.566z M217.419,363.564l5.511-3.182c0.234-0.135,0.256-0.342,0.048-0.462
				l-5.273-3.044c-0.208-0.12-0.566-0.108-0.801,0.028l-5.511,3.182c-0.234,0.135-0.255,0.342-0.047,0.462l5.272,3.044
				C216.826,363.711,217.185,363.7,217.419,363.564z M208.564,368.242c0.208,0.12,0.566,0.108,0.8-0.027l5.511-3.182
				c0.234-0.135,0.255-0.342,0.048-0.462l-5.273-3.044c-0.208-0.12-0.566-0.108-0.8,0.027l-5.511,3.182
				c-0.234,0.135-0.255,0.342-0.047,0.462L208.564,368.242z M193.036,344.592l-5.511,3.182c-0.234,0.135-0.255,0.342-0.047,0.462
				l5.272,3.044c0.208,0.12,0.566,0.108,0.8-0.027l5.511-3.182c0.234-0.135,0.255-0.342,0.047-0.462l-5.272-3.044
				C193.629,344.444,193.27,344.457,193.036,344.592z M233.309,321.34l-5.511,3.182c-0.234,0.135-0.255,0.342-0.047,0.462
				l5.272,3.044c0.208,0.12,0.566,0.108,0.801-0.027l5.511-3.182c0.234-0.135,0.255-0.342,0.047-0.462l-5.273-3.044
				C233.902,321.192,233.543,321.205,233.309,321.34z M201.091,339.942l-5.511,3.182c-0.234,0.135-0.255,0.342-0.047,0.462
				l5.272,3.044c0.208,0.12,0.566,0.108,0.801-0.027l5.511-3.182c0.234-0.135,0.255-0.342,0.047-0.462l-5.272-3.044
				C201.683,339.794,201.325,339.806,201.091,339.942z M241.364,316.689l-5.511,3.182c-0.234,0.135-0.255,0.342-0.047,0.462
				l5.272,3.044c0.208,0.12,0.566,0.108,0.801-0.027l5.511-3.181c0.234-0.136,0.255-0.342,0.048-0.462l-5.273-3.044
				C241.957,316.542,241.598,316.554,241.364,316.689z M225.255,325.99l-5.511,3.182c-0.234,0.135-0.256,0.342-0.048,0.462
				l5.273,3.044c0.208,0.12,0.566,0.108,0.801-0.027l5.511-3.182c0.234-0.135,0.256-0.342,0.048-0.462l-5.273-3.044
				C225.848,325.843,225.489,325.855,225.255,325.99z M217.2,330.641l-5.511,3.182c-0.234,0.135-0.256,0.342-0.048,0.462
				l5.273,3.044c0.208,0.12,0.566,0.108,0.801-0.027l5.511-3.181c0.234-0.135,0.255-0.342,0.047-0.463l-5.272-3.044
				C217.793,330.493,217.434,330.506,217.2,330.641z M209.146,335.291l-5.511,3.182c-0.234,0.135-0.255,0.342-0.048,0.462
				l5.273,3.044c0.208,0.12,0.566,0.108,0.8-0.027l5.511-3.182c0.234-0.135,0.255-0.342,0.047-0.462l-5.272-3.044
				C209.738,335.144,209.38,335.156,209.146,335.291z M245.92,338.411l5.511-3.182c0.234-0.135,0.256-0.342,0.048-0.462
				l-5.273-3.044c-0.208-0.12-0.566-0.108-0.8,0.028l-5.511,3.181c-0.234,0.136-0.255,0.342-0.047,0.463l5.272,3.044
				C245.328,338.559,245.686,338.546,245.92,338.411z M321.063,270.675l-5.511,3.182c-0.234,0.135-0.255,0.342-0.048,0.462
				l5.273,3.044c0.208,0.12,0.566,0.108,0.801-0.027l5.511-3.182c0.234-0.135,0.255-0.342,0.047-0.462l-5.272-3.044
				C321.656,270.528,321.297,270.54,321.063,270.675z M311.313,276.305l-5.511,3.182c-0.234,0.135-0.255,0.342-0.047,0.462
				l5.272,3.044c0.208,0.12,0.567,0.108,0.801-0.027l5.511-3.182c0.234-0.135,0.255-0.342,0.048-0.462l-5.273-3.044
				C311.905,276.157,311.547,276.17,311.313,276.305z M329.117,266.025l-5.511,3.181c-0.234,0.135-0.255,0.342-0.048,0.463
				l5.273,3.044c0.208,0.12,0.566,0.108,0.8-0.027l5.511-3.182c0.234-0.135,0.256-0.342,0.048-0.462l-5.272-3.044
				C329.71,265.878,329.352,265.89,329.117,266.025z M284.597,307.384l5.511-3.182c0.234-0.136,0.255-0.342,0.047-0.463
				l-5.272-3.044c-0.208-0.12-0.567-0.108-0.801,0.027l-5.511,3.182c-0.234,0.135-0.255,0.342-0.048,0.462l5.273,3.044
				C284.004,307.531,284.363,307.519,284.597,307.384z M337.973,261.347c-0.208-0.12-0.567-0.108-0.801,0.027l-5.51,3.182
				c-0.234,0.135-0.256,0.342-0.048,0.462l5.273,3.044c0.208,0.12,0.566,0.108,0.8-0.027l5.511-3.182
				c0.234-0.135,0.256-0.342,0.048-0.462L337.973,261.347z M253.975,333.761l5.511-3.182c0.234-0.135,0.255-0.342,0.047-0.462
				l-5.272-3.044c-0.208-0.12-0.566-0.108-0.8,0.027l-5.511,3.182c-0.234,0.135-0.255,0.342-0.047,0.462l5.272,3.044
				C253.383,333.908,253.741,333.896,253.975,333.761z M352.751,276.732l5.511-3.181c0.234-0.135,0.255-0.342,0.047-0.463
				l-5.273-3.044c-0.208-0.12-0.566-0.108-0.801,0.027l-5.511,3.182c-0.234,0.135-0.255,0.342-0.047,0.462l5.272,3.044
				C352.158,276.88,352.517,276.868,352.751,276.732z M337.164,277.035l5.511-3.182c0.234-0.135,0.255-0.341,0.047-0.462
				l-5.273-3.044c-0.207-0.12-0.566-0.108-0.8,0.027l-5.511,3.182c-0.234,0.136-0.256,0.342-0.048,0.462l5.273,3.044
				C336.571,277.182,336.93,277.17,337.164,277.035z M345.505,265.696c-0.208-0.12-0.566-0.108-0.8,0.027l-5.511,3.182
				c-0.233,0.135-0.255,0.342-0.047,0.462l5.273,3.044c0.208,0.12,0.566,0.108,0.8-0.027l5.511-3.182
				c0.234-0.135,0.256-0.342,0.048-0.462L345.505,265.696z M347.201,264.717l12.804,7.393c0.208,0.12,0.566,0.108,0.8-0.027
				l5.511-3.182c0.234-0.135,0.255-0.342,0.048-0.462l-12.805-7.393c-0.208-0.12-0.567-0.108-0.801,0.027l-5.511,3.182
				C347.014,264.39,346.992,264.597,347.201,264.717z M328.595,275.024l-5.511,3.181c-0.234,0.135-0.256,0.342-0.048,0.462
				l5.273,3.044c0.208,0.12,0.566,0.108,0.801-0.027l5.511-3.182c0.234-0.136,0.255-0.342,0.047-0.462l-5.272-3.044
				C329.188,274.877,328.829,274.889,328.595,275.024z M267.973,310.024l-5.511,3.182c-0.234,0.135-0.255,0.342-0.047,0.462
				l5.272,3.044c0.208,0.12,0.566,0.108,0.8-0.027l5.511-3.182c0.234-0.135,0.255-0.342,0.047-0.462l-5.272-3.044
				C268.565,309.876,268.207,309.889,267.973,310.024z M343.896,281.41c0.207,0.12,0.566,0.108,0.801-0.027l5.511-3.182
				c0.234-0.136,0.255-0.342,0.047-0.462l-5.273-3.044c-0.207-0.12-0.566-0.108-0.8,0.027l-5.511,3.182
				c-0.234,0.135-0.256,0.342-0.047,0.462L343.896,281.41z M276.028,305.374l-5.511,3.182c-0.234,0.135-0.255,0.342-0.047,0.462
				l5.272,3.044c0.208,0.12,0.566,0.108,0.8-0.027l5.511-3.182c0.234-0.135,0.255-0.342,0.047-0.462l-5.272-3.044
				C276.62,305.226,276.262,305.239,276.028,305.374z M212.901,357.04c0.208,0.12,0.567,0.108,0.801-0.027l5.511-3.182
				c0.233-0.135,0.255-0.342,0.047-0.462l-5.273-3.044c-0.208-0.12-0.566-0.108-0.8,0.027l-5.511,3.182
				c-0.234,0.135-0.255,0.342-0.048,0.462L212.901,357.04z M203.536,347.227l-5.511,3.182c-0.234,0.135-0.255,0.342-0.047,0.462
				l5.272,3.044c0.208,0.12,0.566,0.108,0.8-0.027l5.511-3.181c0.234-0.135,0.255-0.342,0.047-0.462l-5.272-3.044
				C204.128,347.079,203.77,347.092,203.536,347.227z M221.756,352.362l5.511-3.182c0.234-0.135,0.256-0.342,0.048-0.462
				l-5.273-3.044c-0.208-0.12-0.566-0.108-0.801,0.027l-5.511,3.182c-0.234,0.135-0.255,0.342-0.047,0.462l5.273,3.044
				C221.164,352.509,221.523,352.498,221.756,352.362z M229.811,347.712l5.511-3.182c0.234-0.136,0.256-0.342,0.048-0.462
				l-5.273-3.044c-0.207-0.12-0.566-0.108-0.801,0.027l-5.511,3.182c-0.234,0.135-0.256,0.342-0.047,0.462l5.273,3.044
				C229.218,347.859,229.577,347.847,229.811,347.712z M237.866,343.061l5.511-3.181c0.234-0.136,0.255-0.342,0.048-0.463
				l-5.273-3.044c-0.208-0.12-0.566-0.108-0.801,0.028l-5.511,3.181c-0.234,0.135-0.255,0.342-0.047,0.462l5.272,3.044
				C237.273,343.209,237.632,343.197,237.866,343.061z M211.59,342.577l-5.511,3.181c-0.234,0.135-0.255,0.342-0.048,0.462
				l5.273,3.044c0.208,0.12,0.566,0.108,0.801-0.027l5.511-3.182c0.234-0.135,0.255-0.342,0.047-0.462l-5.273-3.044
				C212.183,342.43,211.824,342.441,211.59,342.577z M219.645,337.926l-5.511,3.182c-0.234,0.135-0.256,0.342-0.048,0.462
				l5.273,3.044c0.208,0.12,0.566,0.108,0.8-0.027l5.511-3.182c0.234-0.135,0.255-0.342,0.047-0.462l-5.272-3.044
				C220.238,337.779,219.879,337.791,219.645,337.926z M251.864,319.325l-5.511,3.181c-0.234,0.136-0.255,0.342-0.047,0.462
				l5.272,3.044c0.208,0.12,0.566,0.108,0.801-0.027l5.511-3.181c0.234-0.135,0.255-0.342,0.048-0.463l-5.273-3.044
				C252.456,319.178,252.098,319.19,251.864,319.325z M243.809,323.975l-5.511,3.182c-0.234,0.135-0.255,0.342-0.047,0.462
				l5.272,3.044c0.208,0.12,0.567,0.108,0.801-0.027l5.511-3.181c0.234-0.136,0.256-0.342,0.048-0.463l-5.273-3.044
				C244.401,323.828,244.043,323.84,243.809,323.975z M259.918,314.674l-5.511,3.182c-0.234,0.135-0.255,0.342-0.047,0.462
				l5.272,3.044c0.208,0.12,0.566,0.108,0.801-0.027l5.511-3.182c0.234-0.135,0.255-0.342,0.047-0.462l-5.272-3.044
				C260.511,314.527,260.152,314.54,259.918,314.674z M227.7,333.276l-5.511,3.182c-0.234,0.135-0.256,0.342-0.048,0.462
				l5.273,3.044c0.208,0.12,0.566,0.108,0.801-0.027l5.511-3.182c0.234-0.136,0.255-0.342,0.047-0.462l-5.273-3.044
				C228.292,333.129,227.934,333.141,227.7,333.276z M235.754,328.626l-5.511,3.182c-0.234,0.135-0.255,0.342-0.047,0.462
				l5.273,3.044c0.207,0.12,0.566,0.108,0.8-0.027l5.511-3.182c0.234-0.135,0.256-0.342,0.048-0.462l-5.273-3.044
				C236.347,328.478,235.988,328.491,235.754,328.626z M225.473,358.914l5.511-3.182c0.234-0.135,0.255-0.342,0.048-0.462
				l-5.273-3.044c-0.208-0.12-0.566-0.108-0.801,0.027l-5.511,3.182c-0.234,0.135-0.256,0.342-0.047,0.462l5.272,3.044
				C224.881,359.061,225.239,359.049,225.473,358.914z M183,356.909l-5.273-3.044c-0.208-0.12-0.566-0.108-0.801,0.027l-5.511,3.182
				c-0.234,0.135-0.255,0.342-0.047,0.462l5.272,3.044c0.209,0.12,0.567,0.108,0.801-0.028l5.511-3.181
				C183.187,357.236,183.207,357.029,183,356.909z M193.499,359.544l-5.272-3.044c-0.208-0.12-0.566-0.108-0.8,0.027l-8.479,4.895
				c-0.234,0.135-0.255,0.342-0.047,0.462l5.272,3.044c0.208,0.12,0.566,0.108,0.8-0.027l8.479-4.895
				C193.686,359.871,193.707,359.664,193.499,359.544z M175.13,350.897l-5.272-3.044c-0.208-0.12-0.566-0.108-0.8,0.027
				l-6.783,3.916c-0.234,0.135-0.255,0.342-0.047,0.462l5.272,3.044c0.208,0.12,0.567,0.108,0.801-0.027l6.783-3.916
				C175.317,351.224,175.338,351.017,175.13,350.897z M180.331,347.895c0.207,0.12,0.566,0.108,0.8-0.027l5.511-3.182
				c0.234-0.135,0.256-0.342,0.048-0.462l-5.273-3.044c-0.208-0.12-0.566-0.108-0.801,0.027l-5.511,3.182
				c-0.234,0.136-0.256,0.342-0.048,0.462L180.331,347.895z M203.151,362.669l-5.272-3.044c-0.208-0.12-0.566-0.107-0.801,0.028
				l-10.598,6.118c-0.234,0.136-0.255,0.342-0.047,0.462l5.272,3.044c0.208,0.12,0.566,0.108,0.801-0.027l10.598-6.119
				C203.338,362.996,203.359,362.79,203.151,362.669z M206.868,369.221l-5.273-3.044c-0.207-0.12-0.566-0.108-0.8,0.027
				l-6.783,3.916c-0.234,0.135-0.255,0.343-0.047,0.462l5.272,3.044c0.208,0.12,0.566,0.108,0.801-0.027l6.783-3.916
				C207.054,369.548,207.075,369.341,206.868,369.221z M240.218,313.319c0.208,0.12,0.566,0.108,0.8-0.027l5.511-3.182
				c0.234-0.135,0.256-0.342,0.048-0.462l-5.272-3.044c-0.208-0.12-0.567-0.108-0.801,0.027l-5.511,3.182
				c-0.234,0.135-0.256,0.342-0.048,0.462L240.218,313.319z M224.108,322.62c0.208,0.12,0.567,0.108,0.801-0.027l5.511-3.182
				c0.234-0.135,0.255-0.342,0.047-0.462l-5.272-3.044c-0.208-0.12-0.566-0.108-0.8,0.027l-5.511,3.181
				c-0.234,0.135-0.255,0.342-0.048,0.462L224.108,322.62z M188.385,343.244c0.208,0.12,0.567,0.108,0.801-0.027l5.511-3.182
				c0.234-0.135,0.256-0.342,0.048-0.462l-5.272-3.044c-0.208-0.12-0.566-0.108-0.801,0.028l-5.511,3.182
				c-0.234,0.135-0.255,0.342-0.047,0.462L188.385,343.244z M232.163,317.969c0.208,0.12,0.566,0.108,0.8-0.027l5.511-3.182
				c0.234-0.135,0.255-0.342,0.047-0.462l-5.272-3.044c-0.208-0.12-0.566-0.108-0.801,0.028l-5.511,3.182
				c-0.234,0.135-0.255,0.342-0.048,0.462L232.163,317.969z M216.053,327.27c0.208,0.12,0.567,0.108,0.801-0.028l5.511-3.181
				c0.234-0.135,0.256-0.342,0.047-0.463l-5.272-3.044c-0.208-0.12-0.567-0.108-0.801,0.027l-5.511,3.182
				c-0.234,0.135-0.255,0.342-0.047,0.462L216.053,327.27z M210.823,369.547c-0.208-0.12-0.566-0.108-0.801,0.027l-8.479,4.895
				c-0.234,0.135-0.255,0.342-0.047,0.462l5.273,3.044c0.208,0.12,0.566,0.108,0.8-0.027l8.479-4.895
				c0.234-0.135,0.255-0.342,0.047-0.462L210.823,369.547z M204.494,333.944c0.208,0.12,0.566,0.108,0.801-0.027l5.511-3.182
				c0.234-0.135,0.255-0.342,0.047-0.462l-5.272-3.044c-0.208-0.12-0.567-0.107-0.801,0.028l-5.511,3.182
				c-0.234,0.135-0.255,0.342-0.047,0.462L204.494,333.944z M196.439,338.594c0.208,0.12,0.566,0.108,0.8-0.027l5.511-3.182
				c0.234-0.135,0.255-0.342,0.048-0.462l-5.273-3.044c-0.208-0.12-0.566-0.108-0.801,0.027l-5.511,3.182
				c-0.234,0.135-0.255,0.342-0.047,0.462L196.439,338.594z M360.046,283.392c-0.208-0.12-0.566-0.108-0.801,0.027l-13.565,7.832
				c-0.234,0.135-0.256,0.342-0.048,0.463l5.273,3.044c0.207,0.12,0.566,0.108,0.801-0.027l13.565-7.832
				c0.234-0.135,0.255-0.342,0.047-0.462L360.046,283.392z M342.241,293.672c-0.208-0.12-0.566-0.108-0.801,0.027l-5.511,3.181
				c-0.234,0.135-0.255,0.342-0.047,0.462l5.272,3.044c0.208,0.12,0.566,0.108,0.801-0.028l5.511-3.182
				c0.234-0.135,0.255-0.342,0.047-0.462L342.241,293.672z M233.528,354.263l5.511-3.182c0.234-0.135,0.255-0.342,0.047-0.462
				l-5.272-3.044c-0.208-0.12-0.566-0.108-0.801,0.027l-5.511,3.182c-0.234,0.135-0.255,0.342-0.047,0.462l5.272,3.044
				C232.935,354.411,233.294,354.398,233.528,354.263z M326.132,302.973c-0.208-0.12-0.567-0.108-0.801,0.027l-5.511,3.182
				c-0.234,0.136-0.255,0.342-0.047,0.462l5.272,3.044c0.208,0.12,0.566,0.108,0.8-0.027l5.511-3.182
				c0.234-0.135,0.255-0.342,0.048-0.462L326.132,302.973z M368.101,278.742c-0.208-0.12-0.567-0.108-0.801,0.027l-5.511,3.182
				c-0.234,0.135-0.255,0.342-0.047,0.462l5.272,3.044c0.208,0.12,0.567,0.108,0.801-0.027l5.511-3.182
				c0.234-0.135,0.255-0.342,0.048-0.462L368.101,278.742z M381.428,277.136l-12.805-7.393c-0.208-0.12-0.566-0.108-0.8,0.027
				l-5.511,3.182c-0.234,0.135-0.255,0.342-0.047,0.462l12.804,7.393c0.208,0.12,0.566,0.108,0.8-0.027l5.511-3.182
				C381.615,277.463,381.636,277.255,381.428,277.136z M296.033,320.35c-0.208-0.12-0.567-0.108-0.8,0.027l-6.783,3.916
				c-0.234,0.135-0.255,0.342-0.047,0.462l5.272,3.044c0.208,0.12,0.566,0.108,0.801-0.027l6.783-3.916
				c0.234-0.135,0.256-0.342,0.047-0.462L296.033,320.35z M316.382,308.602c-0.208-0.12-0.566-0.108-0.801,0.027l-8.479,4.895
				c-0.234,0.135-0.255,0.342-0.047,0.462l5.273,3.044c0.208,0.12,0.566,0.108,0.801-0.027l8.479-4.895
				c0.234-0.135,0.255-0.342,0.047-0.462L316.382,308.602z M277.38,331.12c-0.208-0.12-0.566-0.108-0.801,0.027l-45.36,26.189
				c-0.234,0.135-0.256,0.342-0.048,0.462l5.273,3.044c0.208,0.12,0.566,0.108,0.801-0.027l45.36-26.189
				c0.234-0.135,0.255-0.342,0.047-0.462L277.38,331.12z M229.476,358.777c-0.208-0.12-0.567-0.108-0.8,0.027l-6.783,3.916
				c-0.234,0.135-0.255,0.342-0.047,0.462l5.272,3.044c0.208,0.12,0.567,0.108,0.801-0.028l6.784-3.916
				c0.233-0.135,0.255-0.342,0.047-0.462L229.476,358.777z M286.706,325.735c-0.208-0.12-0.566-0.108-0.801,0.027l-6.783,3.916
				c-0.234,0.136-0.256,0.342-0.048,0.462l5.273,3.044c0.207,0.121,0.566,0.108,0.801-0.027l6.783-3.917
				c0.234-0.135,0.255-0.341,0.047-0.462L286.706,325.735z M220.149,364.161c-0.208-0.12-0.566-0.108-0.8,0.027l-6.783,3.916
				c-0.234,0.135-0.255,0.342-0.047,0.462l5.272,3.044c0.208,0.12,0.566,0.108,0.801-0.027l6.783-3.916
				c0.234-0.135,0.256-0.342,0.048-0.462L220.149,364.161z M305.359,314.966c-0.208-0.12-0.566-0.108-0.801,0.027l-6.783,3.916
				c-0.233,0.135-0.255,0.342-0.047,0.462l5.273,3.044c0.208,0.12,0.566,0.108,0.8-0.027l6.783-3.916
				c0.234-0.135,0.255-0.342,0.047-0.462L305.359,314.966z M334.187,298.322c-0.208-0.12-0.566-0.108-0.801,0.027l-5.511,3.182
				c-0.234,0.135-0.255,0.342-0.047,0.462l5.272,3.044c0.208,0.12,0.566,0.107,0.801-0.027l5.511-3.182
				c0.234-0.135,0.255-0.342,0.047-0.462L334.187,298.322z M352.228,285.732l5.511-3.182c0.234-0.135,0.256-0.342,0.048-0.462
				l-5.273-3.044c-0.208-0.12-0.566-0.108-0.801,0.027l-5.511,3.182c-0.234,0.135-0.255,0.342-0.047,0.462l5.273,3.044
				C351.636,285.879,351.994,285.867,352.228,285.732z M319.359,287.314l5.511-3.182c0.234-0.135,0.255-0.342,0.048-0.462
				l-5.273-3.044c-0.208-0.12-0.566-0.108-0.8,0.027l-5.511,3.182c-0.234,0.135-0.255,0.342-0.047,0.462l5.272,3.044
				C318.767,287.461,319.125,287.449,319.359,287.314z M297.965,317.06l16.11-9.301c0.234-0.135,0.255-0.342,0.047-0.462
				l-5.272-3.044c-0.208-0.12-0.566-0.108-0.8,0.027l-16.109,9.301c-0.234,0.135-0.255,0.342-0.047,0.462l5.272,3.044
				C297.373,317.208,297.731,317.196,297.965,317.06z M343.373,290.409c0.208,0.12,0.566,0.108,0.8-0.027l5.511-3.182
				c0.234-0.135,0.256-0.342,0.047-0.462l-5.272-3.044c-0.208-0.12-0.566-0.108-0.8,0.027l-5.512,3.182
				c-0.234,0.135-0.255,0.342-0.047,0.462L343.373,290.409z M336.642,286.034l5.511-3.182c0.234-0.135,0.255-0.342,0.047-0.462
				l-5.272-3.044c-0.208-0.12-0.567-0.108-0.801,0.027l-5.511,3.182c-0.234,0.135-0.256,0.342-0.048,0.462l5.273,3.044
				C336.049,286.181,336.408,286.169,336.642,286.034z M289.91,321.711l5.511-3.182c0.234-0.135,0.255-0.342,0.047-0.462
				l-5.272-3.044c-0.208-0.12-0.566-0.108-0.801,0.027l-5.511,3.182c-0.234,0.135-0.255,0.342-0.047,0.462l5.272,3.044
				C289.318,321.858,289.676,321.846,289.91,321.711z M325.568,300.689c0.208,0.12,0.566,0.108,0.801-0.027l5.511-3.182
				c0.234-0.135,0.255-0.342,0.047-0.462l-5.273-3.044c-0.208-0.12-0.566-0.108-0.8,0.027l-5.511,3.182
				c-0.234,0.135-0.255,0.342-0.047,0.462L325.568,300.689z M249.637,344.963l5.511-3.182c0.234-0.135,0.255-0.342,0.047-0.462
				l-5.272-3.044c-0.208-0.12-0.566-0.108-0.8,0.027l-5.511,3.182c-0.234,0.135-0.255,0.342-0.048,0.462l5.273,3.044
				C249.045,345.11,249.403,345.098,249.637,344.963z M257.692,340.312l5.511-3.182c0.234-0.135,0.255-0.342,0.047-0.462
				l-5.273-3.044c-0.208-0.12-0.566-0.108-0.8,0.028l-5.511,3.182c-0.234,0.135-0.255,0.342-0.048,0.462l5.273,3.044
				C257.1,340.46,257.458,340.448,257.692,340.312z M241.583,349.613l5.511-3.182c0.234-0.135,0.256-0.342,0.047-0.462l-5.272-3.044
				c-0.208-0.12-0.566-0.108-0.801,0.027l-5.511,3.182c-0.234,0.135-0.255,0.342-0.048,0.462l5.273,3.044
				C240.99,349.76,241.348,349.748,241.583,349.613z M273.801,331.012l5.511-3.182c0.234-0.135,0.256-0.342,0.047-0.462
				l-5.272-3.044c-0.208-0.12-0.566-0.108-0.801,0.027l-5.511,3.182c-0.234,0.135-0.255,0.342-0.047,0.462l5.272,3.044
				C273.209,331.159,273.567,331.147,273.801,331.012z M265.746,335.661l5.511-3.182c0.234-0.135,0.256-0.342,0.048-0.462
				l-5.273-3.044c-0.208-0.12-0.566-0.108-0.801,0.027l-5.511,3.181c-0.234,0.135-0.255,0.342-0.047,0.462l5.273,3.044
				C265.154,335.809,265.513,335.797,265.746,335.661z M281.856,326.361l5.511-3.182c0.234-0.135,0.255-0.342,0.047-0.462
				l-5.273-3.044c-0.208-0.12-0.566-0.108-0.801,0.027l-5.511,3.182c-0.234,0.135-0.255,0.342-0.047,0.462l5.272,3.044
				C281.263,326.509,281.621,326.496,281.856,326.361z M325.81,261.668c0.208,0.12,0.567,0.108,0.801-0.027l5.511-3.182
				c0.234-0.135,0.255-0.342,0.047-0.462l-1.403-0.811c-0.208-0.12-0.567-0.108-0.801,0.028l-5.511,3.182
				c-0.233,0.135-0.255,0.342-0.047,0.462L325.81,261.668z M285.776,287.016c0.207,0.12,0.566,0.108,0.8-0.027l5.511-3.182
				c0.234-0.135,0.255-0.342,0.047-0.462l-5.272-3.044c-0.208-0.121-0.567-0.108-0.801,0.027l-5.511,3.182
				c-0.234,0.135-0.256,0.342-0.048,0.462L285.776,287.016z M301.885,277.715c0.208,0.12,0.566,0.108,0.8-0.027l5.511-3.182
				c0.234-0.135,0.255-0.342,0.048-0.463l-5.273-3.044c-0.208-0.12-0.566-0.108-0.8,0.027l-5.511,3.182
				c-0.233,0.135-0.255,0.342-0.047,0.462L301.885,277.715z M275.94,292.694c0.208,0.12,0.566,0.108,0.801-0.027l5.511-3.182
				c0.234-0.135,0.255-0.342,0.047-0.462l-5.272-3.044c-0.208-0.12-0.566-0.108-0.801,0.028l-5.511,3.181
				c-0.234,0.135-0.255,0.342-0.047,0.462L275.94,292.694z M293.831,282.365c0.208,0.12,0.566,0.108,0.801-0.027l5.511-3.182
				c0.233-0.135,0.255-0.342,0.047-0.462l-5.273-3.044c-0.207-0.12-0.566-0.108-0.8,0.027l-5.511,3.182
				c-0.234,0.135-0.256,0.342-0.048,0.462L293.831,282.365z M259.831,301.995c0.208,0.12,0.566,0.107,0.801-0.028l5.511-3.182
				c0.234-0.135,0.255-0.342,0.048-0.463l-5.273-3.044c-0.208-0.12-0.566-0.108-0.801,0.027l-5.511,3.182
				c-0.234,0.136-0.255,0.342-0.047,0.462L259.831,301.995z M267.886,297.345c0.208,0.12,0.566,0.108,0.801-0.027l5.511-3.182
				c0.234-0.135,0.255-0.342,0.047-0.462l-5.272-3.044c-0.208-0.12-0.566-0.108-0.801,0.027l-5.511,3.182
				c-0.234,0.135-0.255,0.342-0.047,0.462L267.886,297.345z M309.701,270.969c0.208,0.12,0.567,0.108,0.801-0.027l5.511-3.182
				c0.234-0.135,0.255-0.341,0.047-0.462l-1.404-0.81c-0.208-0.12-0.566-0.108-0.8,0.027l-5.511,3.182
				c-0.234,0.135-0.256,0.342-0.048,0.462L309.701,270.969z M333.865,257.018c0.208,0.12,0.566,0.108,0.801-0.027l5.511-3.182
				c0.234-0.135,0.255-0.342,0.047-0.462l-1.404-0.811c-0.208-0.12-0.566-0.107-0.801,0.028l-5.511,3.182
				c-0.234,0.135-0.256,0.342-0.047,0.463L333.865,257.018z M344.941,263.412c0.208,0.12,0.566,0.108,0.801-0.027l5.511-3.182
				c0.234-0.135,0.255-0.342,0.048-0.462l-5.273-3.044c-0.208-0.12-0.566-0.108-0.801,0.027l-5.511,3.182
				c-0.234,0.135-0.255,0.342-0.047,0.462L344.941,263.412z M360.283,281.081l5.511-3.182c0.234-0.135,0.256-0.342,0.048-0.462
				l-5.273-3.044c-0.208-0.12-0.566-0.108-0.801,0.027l-5.511,3.182c-0.234,0.135-0.255,0.342-0.047,0.462l5.272,3.044
				C359.69,281.229,360.049,281.216,360.283,281.081z M317.756,266.318c0.208,0.12,0.566,0.108,0.801-0.027l5.511-3.182
				c0.234-0.135,0.255-0.342,0.047-0.462l-1.404-0.81c-0.208-0.12-0.566-0.108-0.801,0.027l-5.511,3.182
				c-0.234,0.135-0.255,0.342-0.047,0.462L317.756,266.318z M251.776,306.645c0.208,0.12,0.567,0.108,0.801-0.027l5.511-3.182
				c0.234-0.135,0.256-0.342,0.047-0.462l-5.273-3.044c-0.208-0.12-0.566-0.108-0.8,0.027l-5.511,3.182
				c-0.234,0.135-0.255,0.342-0.047,0.462L251.776,306.645z"/>
		</g>
		<polygon id="XMLID_268_" style="fill:#37474F;" points="275.613,348.186 276.743,348.838 306.757,366.164 360.133,335.346 
			361.244,334.713 330.1,316.736 		"/>
		<g id="XMLID_261_">
			<polygon id="XMLID_266_" style="fill:#263238;" points="276.743,348.838 306.757,366.164 360.133,335.346 330.1,318.02 			"/>
		</g>
	</g>
</g>
<g id="Mail_Box">
	<g id="MailBox_2_">
		<g>
			<g>
				<path style="fill:#27DEBF;" d="M107.063,213.205l-12.229-7.06c-0.544-0.314-0.94-0.393-1.154-0.268
					c-0.256,0.15-1.275,0.738-1.49,0.861c-0.26,0.148-0.255,0.59,0.073,1.271l2.975,6.159l-2.22,2.038
					c-1.017,0.934-0.873,2.25,0.323,2.94l12.228,7.06l1.493-0.863V213.205z"/>
				<path style="opacity:0.5;fill:#FFFFFF;" d="M107.063,213.205l-12.229-7.06c-0.544-0.314-0.94-0.393-1.154-0.268
					c-0.256,0.15-1.275,0.738-1.49,0.861c-0.26,0.148-0.255,0.59,0.073,1.271l2.975,6.159l-2.22,2.038
					c-1.017,0.934-0.873,2.25,0.323,2.94l12.228,7.06l1.493-0.863V213.205z"/>
				<path id="XMLID_1090_" style="fill:#27DEBF;" d="M93.342,207.008c-1.196-0.69-1.678-0.242-1.078,1.001l2.975,6.159l-2.22,2.038
					c-1.017,0.934-0.873,2.25,0.323,2.94l12.228,7.06v-12.139L93.342,207.008z"/>
			</g>
			<g id="XMLID_1088_">
				<path id="XMLID_1089_" style="fill:#455A64;" d="M107.007,252.11c-0.794,0-1.437-0.643-1.437-1.437v-40.62
					c0-0.794,0.644-1.437,1.437-1.437c0.794,0,1.437,0.644,1.437,1.437v40.62C108.444,251.467,107.801,252.11,107.007,252.11z"/>
			</g>
		</g>
		<g>
			<path id="XMLID_1087_" style="fill:#263238;" d="M54.385,360.274v-2.538h0.626c0.73-1.477,2.095-2.872,4.11-4.035
				c6.319-3.648,16.562-3.648,22.88,0c2.015,1.163,3.381,2.558,4.11,4.035h0.619v2.457c0.051,2.428-1.52,4.865-4.729,6.717
				c-6.318,3.648-16.562,3.648-22.88,0C55.948,365.078,54.371,362.675,54.385,360.274z"/>
			<path id="XMLID_628_" style="fill:#455A64;" d="M82.001,351.131c-6.318-3.648-16.562-3.648-22.88,0
				c-6.318,3.648-6.318,9.562,0,13.21c6.318,3.648,16.562,3.648,22.88,0C88.319,360.693,88.319,354.779,82.001,351.131z"/>
		</g>
		<g>
			<path id="XMLID_1085_" style="fill:#37474F;" d="M74.728,269.775l-0.003,86.853c0,0.615-0.407,1.23-1.22,1.7
				c-1.626,0.939-4.263,0.939-5.889,0c-0.813-0.47-1.219-1.085-1.219-1.7l0.003-86.853H74.728z"/>
			<polygon id="XMLID_1084_" style="fill:#263238;" points="66.397,280.279 66.397,288.449 74.727,293.246 74.728,285.098 			"/>
		</g>
		<g>
			<path style="fill:#27DEBF;" d="M96.601,262.005l15.4,8.9c-0.08,0.12-0.19,0.24-0.3,0.31l-26.94,15.55
				c-0.23,0.13-0.41,0.03-0.41-0.24v-19.41c0-3.38,0.78-7.14,2.25-10.88L96.601,262.005z"/>
			<path style="opacity:0.4;" d="M96.601,262.005l15.4,8.9c-0.08,0.12-0.19,0.24-0.3,0.31l-26.94,15.55
				c-0.23,0.13-0.41,0.03-0.41-0.24v-19.41c0-3.38,0.78-7.14,2.25-10.88L96.601,262.005z"/>
			<path id="XMLID_1083_" style="fill:#27DEBF;" d="M112.118,249.253v21.72l-25.513-14.734c0.025-0.07,0.054-0.143,0.082-0.213
				c2.736-6.834,7.348-12.63,12.347-15.506c2.05-1.187,3.993-1.787,5.771-1.787C109.315,238.734,112.118,242.765,112.118,249.253z"
				/>
			<path id="XMLID_629_" style="opacity:0.3;" d="M112.118,249.253v21.72l-25.513-14.734c0.025-0.07,0.054-0.143,0.082-0.213
				c2.736-6.834,7.348-12.63,12.347-15.506c2.05-1.187,3.993-1.787,5.771-1.787C109.315,238.734,112.118,242.765,112.118,249.253z"
				/>
		</g>
		<g id="XMLID_1075_">
			<path id="XMLID_627_" style="fill:#27DEBF;" d="M139.829,295.22l-0.001-1.94h-0.184v0.277c-0.114-0.526-0.28-1.05-0.506-1.57
				c-1.019-2.377-3.165-4.656-6.44-6.548l-18.232-10.525c-0.759-0.438-1.987-0.438-2.749,0l-27.875,16.093
				c-0.294-0.263-0.616-0.522-0.886-0.977l0,1.954v0.001l0,0c0,0.287,0.19,0.574,0.569,0.793l18.232,10.525
				c4.879,2.819,11.258,4.202,17.438,4.12c5.348-0.07,10.547-1.238,14.509-3.53c4.099-2.356,6.119-5.482,6.119-8.673H139.829z"/>
			<path id="XMLID_634_" style="opacity:0.4;" d="M139.829,295.22l-0.001-1.94h-0.184v0.277c-0.114-0.526-0.28-1.05-0.506-1.57
				c-1.019-2.377-3.165-4.656-6.44-6.548l-18.232-10.525c-0.759-0.438-1.987-0.438-2.749,0l-27.875,16.093
				c-0.294-0.263-0.616-0.522-0.886-0.977l0,1.954v0.001l0,0c0,0.287,0.19,0.574,0.569,0.793l18.232,10.525
				c4.879,2.819,11.258,4.202,17.438,4.12c5.348-0.07,10.547-1.238,14.509-3.53c4.099-2.356,6.119-5.482,6.119-8.673H139.829z"/>
			<path id="XMLID_1077_" style="fill:#27DEBF;" d="M139.138,291.987c-1.019-2.377-3.165-4.656-6.44-6.548l-18.232-10.525
				c-0.759-0.438-1.987-0.438-2.749,0l-27.875,16.093l17.915,10.344c4.879,2.819,11.258,4.203,17.438,4.12
				c5.348-0.073,10.547-1.241,14.509-3.53c3.679-2.117,5.688-4.85,6.059-7.697C139.671,293.489,139.462,292.733,139.138,291.987z"/>
			<path id="XMLID_632_" style="opacity:0.2;" d="M139.138,291.987c-1.019-2.377-3.165-4.656-6.44-6.548l-18.232-10.525
				c-0.759-0.438-1.987-0.438-2.749,0l-27.875,16.093l17.915,10.344c4.879,2.819,11.258,4.203,17.438,4.12
				c5.348-0.073,10.547-1.241,14.509-3.53c3.679-2.117,5.688-4.85,6.059-7.697C139.671,293.489,139.462,292.733,139.138,291.987z"/>
			<path id="XMLID_1076_" style="fill:#27DEBF;" d="M139.763,294.244c-0.092-0.755-0.302-1.511-0.625-2.257
				c-1.019-2.377-3.165-4.656-6.44-6.548l-18.232-10.525c-0.759-0.438-1.987-0.438-2.749,0l-27.875,16.093l-0.317-0.181
				c-0.759-0.438-0.759-1.149,0-1.587l28.192-16.277c0.762-0.438,1.99-0.438,2.749,0l18.232,10.525
				c3.276,1.892,5.421,4.171,6.44,6.548c0.343,0.79,0.559,1.593,0.644,2.396C139.849,293.038,139.842,293.644,139.763,294.244z"/>
			<path id="XMLID_635_" style="opacity:0.3;" d="M139.763,294.244c-0.092-0.755-0.302-1.511-0.625-2.257
				c-1.019-2.377-3.165-4.656-6.44-6.548l-18.232-10.525c-0.759-0.438-1.987-0.438-2.749,0l-27.875,16.093l-0.317-0.181
				c-0.759-0.438-0.759-1.149,0-1.587l28.192-16.277c0.762-0.438,1.99-0.438,2.749,0l18.232,10.525
				c3.276,1.892,5.421,4.171,6.44,6.548c0.343,0.79,0.559,1.593,0.644,2.396C139.849,293.038,139.842,293.644,139.763,294.244z"/>
		</g>
		<polygon id="XMLID_1074_" style="fill:#27DEBF;" points="84.138,288.961 112.33,272.684 111.705,271.211 84.763,286.767 		"/>
		<polygon id="XMLID_631_" style="opacity:0.1;" points="84.138,288.961 112.33,272.684 111.705,271.211 84.763,286.767 		"/>
		<g>
			<g id="Letter_6_">
				<g id="XMLID_1028_">
					<g id="XMLID_1030_">
						<path id="XMLID_624_" style="fill:#F5F5F5;" d="M109.633,247.958c0-0.428-0.3-0.948-0.671-1.162l-34.325-19.817
							c-0.371-0.214-0.971-0.214-1.342,0l-0.756,0.437c-0.371,0.214-0.671,0.734-0.671,1.162v26.31c0,0.426,0.302,0.949,0.671,1.162
							l34.325,19.817c0.369,0.213,0.973,0.213,1.342,0l0.756-0.437c0.369-0.213,0.671-0.736,0.671-1.162L109.633,247.958z"/>
					</g>
				</g>
				<path id="XMLID_1027_" style="fill:#E0E0E0;" d="M109.437,247.298l-1.904,1.098l-35.467-20.479
					c0.121-0.21,0.289-0.394,0.473-0.501l0.759-0.435c0.368-0.216,0.971-0.216,1.34,0l34.325,19.816
					C109.148,246.904,109.316,247.088,109.437,247.298z"/>
				<g id="XMLID_1025_">
					<g id="XMLID_1026_">
						<path style="fill:#27DEBF;" d="M107.377,276.012c0.04,0.01,0.08,0.01,0.13,0.01h-0.04
							C107.427,276.022,107.407,276.022,107.377,276.012z"/>
						<path style="fill:#EBEBEB;" d="M107.537,248.392l-0.35,0.21c0.21,0.08,0.35,0.29,0.35,0.57v26.31c0,0.22-0.08,0.37-0.21,0.44
							c-0.09,0.04-0.2,0.05-0.32,0.01c-0.05-0.02-0.1-0.04-0.14-0.06l-34.33-19.82c-0.37-0.22-0.67-0.74-0.67-1.16v-26.31
							c0-0.22,0.08-0.46,0.2-0.67L107.537,248.392z"/>
					</g>
				</g>
				<path id="XMLID_623_" style="opacity:0.2;" d="M107.533,248.396l-15.896,5.939c-1.133,0.422-2.406,0.003-3.066-1.009
					l-2.553-3.911l-14.08-21.571l13.571,21.718l-13.64,5.338c0.003,0.216,0.082,0.457,0.209,0.67l13.469-5.947l2.966,4.747
					c0.682,1.089,2.06,1.514,3.234,0.993l2.112-0.932l13.466,21.491c0.127-0.067,0.206-0.219,0.206-0.441v-0.438l-13.607-20.641
					L107.533,248.396z"/>
			</g>
			<g id="Letter_5_">
				<g id="XMLID_621_">
					<g id="XMLID_622_">
						<path id="XMLID_1023_" style="fill:#F5F5F5;" d="M101.508,252.615c0-0.428-0.3-0.948-0.671-1.162l-34.325-19.817
							c-0.371-0.214-0.971-0.214-1.342,0l-0.756,0.437c-0.371,0.214-0.671,0.734-0.671,1.162v26.311
							c0,0.426,0.302,0.949,0.671,1.162l34.325,19.817c0.369,0.213,0.973,0.213,1.342,0l0.756-0.437
							c0.369-0.213,0.671-0.736,0.671-1.162L101.508,252.615z"/>
					</g>
				</g>
				<path id="XMLID_1020_" style="fill:#E0E0E0;" d="M101.313,251.954l-1.905,1.098l-35.467-20.479
					c0.121-0.21,0.289-0.394,0.473-0.502l0.759-0.435c0.368-0.216,0.971-0.216,1.34,0l34.325,19.816
					C101.024,251.56,101.192,251.744,101.313,251.954z"/>
				<g id="XMLID_619_">
					<g id="XMLID_1016_">
						<path style="fill:#27DEBF;" d="M99.252,280.669c0.04,0.01,0.08,0.01,0.13,0.01h-0.04
							C99.302,280.679,99.282,280.679,99.252,280.669z"/>
						<path style="fill:#EBEBEB;" d="M99.412,253.049l-0.35,0.21c0.21,0.08,0.35,0.29,0.35,0.57v26.31c0,0.22-0.08,0.37-0.21,0.44
							c-0.09,0.04-0.2,0.05-0.32,0.01c-0.05-0.02-0.1-0.04-0.14-0.06l-34.33-19.82c-0.37-0.22-0.67-0.74-0.67-1.16v-26.31
							c0-0.22,0.08-0.46,0.2-0.67L99.412,253.049z"/>
					</g>
				</g>
				<path id="XMLID_1003_" style="opacity:0.2;" d="M99.408,253.052l-15.896,5.939c-1.133,0.422-2.406,0.003-3.066-1.009
					l-2.553-3.911L63.814,232.5l13.571,21.718l-13.64,5.338c0.003,0.216,0.083,0.457,0.209,0.67l13.469-5.947l2.966,4.747
					c0.682,1.089,2.06,1.514,3.234,0.993l2.112-0.932l13.466,21.491c0.127-0.067,0.206-0.219,0.206-0.441v-0.438l-13.607-20.641
					L99.408,253.052z"/>
			</g>
			<g id="Letter_4_">
				<g id="XMLID_617_">
					<g id="XMLID_942_">
						<path id="XMLID_618_" style="fill:#F5F5F5;" d="M93.384,257.271c0-0.428-0.3-0.948-0.671-1.162l-34.325-19.817
							c-0.371-0.214-0.971-0.214-1.342,0l-0.756,0.437c-0.371,0.214-0.671,0.734-0.671,1.162v26.311
							c0,0.426,0.302,0.949,0.671,1.162l34.325,19.817c0.369,0.213,0.973,0.213,1.342,0l0.756-0.437
							c0.369-0.213,0.671-0.736,0.671-1.162L93.384,257.271z"/>
					</g>
				</g>
				<path id="XMLID_616_" style="fill:#E0E0E0;" d="M93.188,256.61l-1.905,1.098l-35.467-20.479
					c0.121-0.209,0.289-0.394,0.473-0.501l0.759-0.435c0.368-0.216,0.971-0.216,1.34,0l34.325,19.816
					C92.899,256.217,93.067,256.401,93.188,256.61z"/>
				<g id="XMLID_614_">
					<g id="XMLID_615_">
						<path style="fill:#27DEBF;" d="M91.128,285.325c0.04,0.01,0.08,0.01,0.13,0.01h-0.04
							C91.178,285.335,91.158,285.335,91.128,285.325z"/>
						<path style="fill:#EBEBEB;" d="M91.288,257.705l-0.35,0.21c0.21,0.08,0.35,0.29,0.35,0.57v26.31c0,0.22-0.08,0.37-0.21,0.44
							c-0.09,0.04-0.2,0.05-0.32,0.01c-0.05-0.02-0.1-0.04-0.14-0.06l-34.33-19.82c-0.37-0.22-0.67-0.74-0.67-1.16v-26.31
							c0-0.22,0.08-0.46,0.2-0.67L91.288,257.705z"/>
					</g>
				</g>
				<path id="XMLID_613_" style="opacity:0.2;" d="M91.284,257.708l-15.896,5.939c-1.133,0.422-2.406,0.003-3.066-1.009
					l-2.553-3.911l-14.08-21.571l13.571,21.718l-13.641,5.338c0.003,0.216,0.083,0.457,0.209,0.67l13.469-5.947l2.966,4.747
					c0.682,1.089,2.06,1.514,3.234,0.993l2.112-0.932l13.466,21.491c0.127-0.067,0.206-0.219,0.206-0.441v-0.438l-13.607-20.641
					L91.284,257.708z"/>
			</g>
		</g>
		<g>
			<path style="fill:#27DEBF;" d="M108.551,238.035c-2.73-1.43-6.35-1.18-10.31,1.11c-4.45,2.56-8.46,7.19-11.27,12.51
				c-0.66,1.23-1.24,2.5-1.76,3.78c-1.55,3.86-2.45,7.9-2.45,11.68v22.18c-0.5,0-0.99-0.12-1.37-0.33l-39.494-22.812
				c-0.75-0.44-1.37-1.51-1.37-2.38v-21.06c0-10.52,6.93-23.04,15.47-27.98c4.05-2.34,7.73-2.53,10.49-0.98l0.01-0.02
				L108.551,238.035z"/>
			<path style="opacity:0.2;" d="M108.551,238.035c-2.73-1.43-6.35-1.18-10.31,1.11c-4.45,2.56-8.46,7.19-11.27,12.51
				c-0.66,1.23-1.24,2.5-1.76,3.78c-1.55,3.86-2.45,7.9-2.45,11.68v22.18c-0.5,0-0.99-0.12-1.37-0.33l-39.494-22.812
				c-0.75-0.44-1.37-1.51-1.37-2.38v-21.06c0-10.52,6.93-23.04,15.47-27.98c4.05-2.34,7.73-2.53,10.49-0.98l0.01-0.02
				L108.551,238.035z"/>
			<path style="opacity:0.1;" d="M41.896,266.153l39.494,22.812c0.38,0.21,0.87,0.33,1.37,0.33v-22.18
				c0-2.02,0.264-4.113,0.74-6.214l-42.243-24.389c-0.472,2.096-0.73,4.185-0.73,6.201v21.06
				C40.526,264.643,41.146,265.713,41.896,266.153z"/>
			<path style="fill:#27DEBF;" d="M85.211,255.435c-1.55,3.86-2.45,7.9-2.45,11.68v22.18c-0.17,0-0.34-0.02-0.5-0.05
				c-0.01-1.28-0.02-8.4-0.02-22.13c0-16.32,12.55-26.69,16-27.97c-4.45,2.56-8.46,7.19-11.27,12.51
				C86.311,252.885,85.731,254.155,85.211,255.435z"/>
			<path style="opacity:0.4;" d="M85.211,255.435c-1.55,3.86-2.45,7.9-2.45,11.68v22.18c-0.17,0-0.34-0.02-0.5-0.05
				c-0.01-1.28-0.02-8.4-0.02-22.13c0-16.32,12.55-26.69,16-27.97c-4.45,2.56-8.46,7.19-11.27,12.51
				C86.311,252.885,85.731,254.155,85.211,255.435z"/>
		</g>
		<path id="XMLID_607_" style="fill:#27DEBF;" d="M84.763,286.767c-0.228,0.132-0.412,0.025-0.412-0.238v-19.413
			c0-3.384,0.781-7.139,2.254-10.878c0.025-0.07,0.054-0.143,0.082-0.213c0.552-1.381,1.181-2.717,1.879-3.996
			c2.736-5.06,6.478-9.214,10.468-11.509c2.05-1.187,3.993-1.787,5.771-1.787c1.124,0,2.143,0.251,3.038,0.727
			c2.698,1.438,4.275,4.923,4.275,9.792v21.244c0,0.263-0.185,0.583-0.412,0.714l0.625,1.473c0.048-0.029,0.095-0.057,0.14-0.089
			c0.206-0.143,0.4-0.333,0.568-0.549c0.003,0,0.003-0.003,0.003-0.006c0.4-0.505,0.663-1.162,0.663-1.736v-21.051
			c0-5.634-1.99-9.554-5.152-11.214c-2.736-1.435-6.348-1.184-10.313,1.108c-4.447,2.558-8.456,7.186-11.274,12.509
			c-0.651,1.228-1.238,2.495-1.752,3.78c-1.549,3.86-2.45,7.897-2.45,11.681v22.174c0.079,0,0.159-0.003,0.238-0.01
			c0.416-0.029,0.819-0.136,1.136-0.321L84.763,286.767z"/>
		<path id="XMLID_630_" style="opacity:0.1;" d="M84.763,286.767c-0.228,0.132-0.412,0.025-0.412-0.238v-19.413
			c0-3.384,0.781-7.139,2.254-10.878c0.025-0.07,0.054-0.143,0.082-0.213c0.552-1.381,1.181-2.717,1.879-3.996
			c2.736-5.06,6.478-9.214,10.468-11.509c2.05-1.187,3.993-1.787,5.771-1.787c1.124,0,2.143,0.251,3.038,0.727
			c2.698,1.438,4.275,4.923,4.275,9.792v21.244c0,0.263-0.185,0.583-0.412,0.714l0.625,1.473c0.048-0.029,0.095-0.057,0.14-0.089
			c0.206-0.143,0.4-0.333,0.568-0.549c0.003,0,0.003-0.003,0.003-0.006c0.4-0.505,0.663-1.162,0.663-1.736v-21.051
			c0-5.634-1.99-9.554-5.152-11.214c-2.736-1.435-6.348-1.184-10.313,1.108c-4.447,2.558-8.456,7.186-11.274,12.509
			c-0.651,1.228-1.238,2.495-1.752,3.78c-1.549,3.86-2.45,7.897-2.45,11.681v22.174c0.079,0,0.159-0.003,0.238-0.01
			c0.416-0.029,0.819-0.136,1.136-0.321L84.763,286.767z"/>
	</g>
</g>
<g id="Envelopes">
	<g id="Envelope_1_">
		<g id="Letter_1_">
			<g id="XMLID_679_">
				<g id="XMLID_682_">
					<path id="XMLID_684_" style="fill:#27DEBF;" d="M178.94,229.877c0-1.657,1.163-3.672,2.598-4.5l128.174-73.996
						c1.435-0.828,3.761-0.829,5.196,0l2.928,1.691c1.435,0.828,2.598,2.843,2.598,4.5V259.45c0,1.65-1.169,3.675-2.598,4.5
						l-128.174,73.995c-1.429,0.825-3.767,0.825-5.196,0l-2.928-1.69c-1.429-0.825-2.598-2.85-2.598-4.5L178.94,229.877z"/>
				</g>
			</g>
			<g id="XMLID_880_" style="opacity:0.7;">
				<g id="XMLID_901_">
					<path id="XMLID_904_" style="fill:#FFFFFF;" d="M178.94,229.877c0-1.657,1.163-3.672,2.598-4.5l128.174-73.996
						c1.435-0.828,3.761-0.829,5.196,0l2.928,1.691c1.435,0.828,2.598,2.843,2.598,4.5V259.45c0,1.65-1.169,3.675-2.598,4.5
						l-128.174,73.995c-1.429,0.825-3.767,0.825-5.196,0l-2.928-1.69c-1.429-0.825-2.598-2.85-2.598-4.5L178.94,229.877z"/>
				</g>
			</g>
			<path id="XMLID_677_" style="fill:#27DEBF;" d="M179.698,227.318l7.374,4.253l132.599-76.559
				c-0.467-0.811-1.118-1.524-1.831-1.942l-2.938-1.684c-1.426-0.836-3.761-0.836-5.187,0l-128.174,73.99
				C180.816,225.794,180.165,226.506,179.698,227.318z"/>
			<path id="XMLID_687_" style="opacity:0.8;fill:#FFFFFF;" d="M179.698,227.318l7.374,4.253l132.599-76.559
				c-0.467-0.811-1.118-1.524-1.831-1.942l-2.938-1.684c-1.426-0.836-3.761-0.836-5.187,0l-128.174,73.99
				C180.816,225.794,180.165,226.506,179.698,227.318z"/>
			<path id="XMLID_676_" style="opacity:0.1;fill:#27DEBF;" d="M178.936,229.874v101.877c0,1.659,1.168,3.675,2.606,4.498
				l2.925,1.696c0.221,0.123,0.455,0.234,0.713,0.32c0.332,0.111,0.688,0.197,1.069,0.246c0.676,0.086,1.389,0.061,2.053-0.074
				c0.172-0.037,0.349-0.076,0.509-0.126c0.111-0.037,0.226-0.072,0.316-0.111c-0.479,0.172-0.911,0.126-1.255-0.047
				c-0.492-0.258-0.799-0.848-0.799-1.708V234.569c0-1.069,0.541-1.881,1.352-2.212l-1.352-0.786l-7.374-4.253
				C179.231,228.129,178.936,229.051,178.936,229.874z"/>
			<path id="XMLID_919_" style="opacity:0.05;" d="M178.936,229.874v101.877c0,1.659,1.168,3.675,2.606,4.498l2.925,1.696
				c0.221,0.123,0.455,0.234,0.713,0.32c0.332,0.111,0.688,0.197,1.069,0.246c0.676,0.086,1.389,0.061,2.053-0.074
				c0.172-0.037,0.349-0.076,0.509-0.126c0.111-0.037,0.226-0.072,0.316-0.111c-0.479,0.172-0.911,0.126-1.255-0.047
				c-0.492-0.258-0.799-0.848-0.799-1.708V234.569c0-1.069,0.541-1.881,1.352-2.212l-1.352-0.786l-7.374-4.253
				C179.231,228.129,178.936,229.051,178.936,229.874z"/>
			<path id="XMLID_675_" style="opacity:0.2;fill:#27DEBF;" d="M187.072,231.57l61.552,22.996c4.388,1.635,9.316,0.012,11.873-3.908
				l9.884-15.143l49.29-80.503l-47.32,81.072l48.082,23.411c-0.012,0.836-0.32,1.77-0.811,2.593l-47.418-25.768l-11.486,18.382
				c-2.642,4.216-7.977,5.863-12.524,3.847l-8.178-3.61l-52.144,83.216c-0.492-0.258-0.799-0.848-0.799-1.708v-1.696l52.688-79.924
				L187.072,231.57z"/>
			<path id="XMLID_920_" style="opacity:0.05;" d="M187.072,231.57l61.552,22.996c4.388,1.635,9.316,0.012,11.873-3.908
				l9.884-15.143l49.29-80.503l-47.32,81.072l48.082,23.411c-0.012,0.836-0.32,1.77-0.811,2.593l-47.418-25.768l-11.486,18.382
				c-2.642,4.216-7.977,5.863-12.524,3.847l-8.178-3.61l-52.144,83.216c-0.492-0.258-0.799-0.848-0.799-1.708v-1.696l52.688-79.924
				L187.072,231.57z"/>
		</g>
	</g>
	<g id="Envelope">
		<g id="Letter_2_">
			<g id="XMLID_670_">
				<g id="XMLID_671_">
					<path id="XMLID_672_" style="fill:#27DEBF;" d="M211.436,248.657c0-1.657,1.163-3.672,2.598-4.5l128.174-73.996
						c1.435-0.828,3.761-0.828,5.196,0l2.928,1.691c1.435,0.828,2.598,2.843,2.598,4.5v101.879c0,1.65-1.169,3.675-2.598,4.5
						l-128.174,73.995c-1.429,0.825-3.767,0.825-5.196,0l-2.928-1.69c-1.429-0.825-2.598-2.85-2.598-4.5L211.436,248.657z"/>
				</g>
			</g>
			<g id="XMLID_832_" style="opacity:0.5;">
				<g id="XMLID_833_">
					<path id="XMLID_860_" style="fill:#FFFFFF;" d="M211.436,248.657c0-1.657,1.163-3.672,2.598-4.5l128.174-73.996
						c1.435-0.828,3.761-0.828,5.196,0l2.928,1.691c1.435,0.828,2.598,2.843,2.598,4.5v101.879c0,1.65-1.169,3.675-2.598,4.5
						l-128.174,73.995c-1.429,0.825-3.767,0.825-5.196,0l-2.928-1.69c-1.429-0.825-2.598-2.85-2.598-4.5L211.436,248.657z"/>
				</g>
			</g>
			<path id="XMLID_669_" style="fill:#27DEBF;" d="M212.194,246.098l7.374,4.253l132.599-76.559
				c-0.467-0.811-1.118-1.524-1.831-1.942l-2.938-1.684c-1.426-0.836-3.761-0.836-5.187,0l-128.174,73.99
				C213.313,244.574,212.661,245.287,212.194,246.098z"/>
			<path id="XMLID_686_" style="opacity:0.6;fill:#FFFFFF;" d="M212.194,246.098l7.374,4.253l132.599-76.559
				c-0.467-0.811-1.118-1.524-1.831-1.942l-2.938-1.684c-1.426-0.836-3.761-0.836-5.187,0l-128.174,73.99
				C213.313,244.574,212.661,245.287,212.194,246.098z"/>
			<path id="XMLID_668_" style="opacity:0.1;" d="M211.432,248.655v101.877c0,1.659,1.168,3.675,2.606,4.498l2.925,1.696
				c0.221,0.123,0.455,0.234,0.713,0.32c0.332,0.111,0.688,0.197,1.069,0.246c0.676,0.086,1.389,0.061,2.053-0.074
				c0.172-0.037,0.344-0.086,0.504-0.135c0.111-0.037,0.209-0.074,0.307-0.123c-0.479,0.172-0.897,0.147-1.241-0.025
				c-0.492-0.258-0.799-0.848-0.799-1.708V253.35c0-1.069,0.541-1.88,1.352-2.212l-1.352-0.786l-7.374-4.253
				C211.727,246.91,211.432,247.831,211.432,248.655z"/>
			<path id="XMLID_667_" style="opacity:0.4;fill:#27DEBF;" d="M219.569,250.351l61.552,22.996
				c4.388,1.635,9.316,0.012,11.873-3.908l9.884-15.143l49.29-80.503l-47.32,81.072l48.082,23.411
				c-0.012,0.836-0.32,1.77-0.811,2.593L304.7,255.1l-11.486,18.382c-2.642,4.216-7.977,5.863-12.524,3.847l-8.178-3.61
				l-52.144,83.216c-0.492-0.258-0.799-0.848-0.799-1.708v-1.696l52.688-79.924L219.569,250.351z"/>
			<path id="XMLID_921_" style="opacity:0.05;" d="M219.569,250.351l61.552,22.996c4.388,1.635,9.316,0.012,11.873-3.908
				l9.884-15.143l49.29-80.503l-47.32,81.072l48.082,23.411c-0.012,0.836-0.32,1.77-0.811,2.593L304.7,255.1l-11.486,18.382
				c-2.642,4.216-7.977,5.863-12.524,3.847l-8.178-3.61l-52.144,83.216c-0.492-0.258-0.799-0.848-0.799-1.708v-1.696l52.688-79.924
				L219.569,250.351z"/>
		</g>
	</g>
</g>
<g id="Open_Envelope_1_">
	<g id="Open_Envelope">
		<g id="XMLID_1080_">
			<path id="XMLID_1109_" style="fill:#27DEBF;" d="M244.202,268.255l133.381-77.008l5.337,3.081
				c1.38,0.797,2.509,2.752,2.509,4.346v98.393c0,1.593-1.129,3.549-2.509,4.346l-128.363,74.11c-1.38,0.797-3.638,0.797-5.018,0
				l-2.828-1.633c-1.38-0.797-2.509-2.752-2.509-4.346L244.202,268.255z"/>
			<path id="XMLID_1108_" style="opacity:0.2;" d="M244.202,268.255l133.381-77.008l5.337,3.081c1.38,0.797,2.509,2.752,2.509,4.346
				v98.393c0,1.593-1.129,3.549-2.509,4.346l-128.363,74.11c-1.38,0.797-3.638,0.797-5.018,0l-2.828-1.633
				c-1.38-0.797-2.509-2.752-2.509-4.346L244.202,268.255z"/>
			<path id="XMLID_1107_" style="fill:#27DEBF;" d="M376.847,182.598l0.546-0.297l-2.073-1.204v0.002
				c-0.178-0.104-0.362-0.193-0.55-0.263l-58.701-21.752c-1.554-0.576-3.572,0.066-4.508,1.433l-65.665,95.894
				c-0.936,1.367-1.695,3.818-1.695,5.475c0,2.74,0,6.369,0,6.369l2.035,1.182l131.346-78.189v-6.37
				C377.583,184.102,377.3,183.298,376.847,182.598z"/>
			<path id="XMLID_1106_" style="opacity:0.1;" d="M314.279,160.982c-0.26,0.2-0.49,0.45-0.68,0.72l-65.67,95.89
				c-0.48,0.71-0.92,1.71-1.22,2.74l-2.04-1.18c0.15-0.5,0.33-0.99,0.53-1.45c0.01-0.02,0.01-0.03,0.02-0.04
				c0.09-0.2,0.18-0.39,0.28-0.58c0.02-0.03,0.03-0.06,0.05-0.09c0.11-0.21,0.23-0.41,0.35-0.58l65.66-95.89
				c0.1-0.15,0.21-0.27,0.33-0.4c0.11-0.11,0.23-0.22,0.35-0.32L314.279,160.982z"/>
			<path id="XMLID_1105_" style="opacity:0.35;fill:#FFFFFF;" d="M377.369,182.292c-0.18-0.11-0.37-0.2-0.56-0.27l-58.71-21.76
				c-1.24-0.46-2.78-0.14-3.82,0.72l-2.04-1.18c1.05-0.85,2.58-1.18,3.83-0.72l58.7,21.75c0.19,0.07,0.37,0.16,0.55,0.27
				L377.369,182.292z"/>
			<g id="XMLID_1093_">
				<path id="XMLID_1104_" style="fill:#27DEBF;" d="M245.546,256.988c0.113-0.208,0.23-0.402,0.35-0.577
					C245.776,256.586,245.659,256.781,245.546,256.988z"/>
				<path id="XMLID_1103_" style="fill:#27DEBF;" d="M311.891,160.121c0.111-0.113,0.228-0.219,0.352-0.32
					C312.119,159.902,311.999,160.006,311.891,160.121z"/>
				<path id="XMLID_1100_" style="fill:#27DEBF;" d="M244.666,259.154c0.15-0.502,0.332-0.997,0.533-1.455
					C244.997,258.158,244.817,258.651,244.666,259.154z"/>
				<path id="XMLID_1099_" style="fill:#27DEBF;" d="M245.217,257.658c0.09-0.201,0.185-0.391,0.282-0.574
					C245.401,257.267,245.306,257.457,245.217,257.658z"/>
				<path id="XMLID_1098_" style="opacity:0.2;" d="M245.199,257.699c0.006-0.013,0.011-0.028,0.017-0.041
					C245.211,257.671,245.205,257.686,245.199,257.699z"/>
				<polygon id="XMLID_1097_" style="opacity:0.2;" points="244.666,259.154 244.666,259.154 244.666,259.154 				"/>
				<polygon id="XMLID_1096_" style="opacity:0.2;" points="312.243,159.802 312.242,159.802 312.243,159.802 				"/>
				<path id="XMLID_1095_" style="opacity:0.2;" d="M245.498,257.084c0.016-0.031,0.031-0.066,0.048-0.096
					C245.529,257.018,245.514,257.053,245.498,257.084z"/>
				<path id="XMLID_1094_" style="opacity:0.2;" d="M311.561,160.517c0.097-0.141,0.212-0.27,0.33-0.395
					C311.77,160.244,311.658,160.375,311.561,160.517z"/>
			</g>
			<path id="XMLID_1092_" style="fill:#27DEBF;" d="M313.596,161.699l-65.664,95.894c-0.936,1.367-1.695,3.818-1.695,5.475
				c0,2.741,0,6.368,0,6.368l133.383-77.013l-0.001-6.363c0-1.657-1.259-3.467-2.813-4.042l-58.701-21.752
				C316.55,159.69,314.532,160.332,313.596,161.699z"/>
			<path id="XMLID_1091_" style="opacity:0.05;" d="M379.618,186.06c0-0.762-0.274-1.551-0.713-2.242l-132.196,76.513
				c0,0-0.007,0.012-0.013,0.021c-0.283,0.95-0.46,1.923-0.46,2.715c0,2.741,0,6.368,0,6.368l133.383-77.013L379.618,186.06z"/>
		</g>
		<g>
			<path style="fill:#F0F0F0;" d="M373.921,159.031c0-0.685-0.239-1.168-0.626-1.397c-0.392-0.232-3.679-2.124-4.071-2.35
				c-0.392-0.226-0.933-0.193-1.53,0.152l-109.405,63.162c-1.196,0.69-2.165,2.369-2.165,3.75l0.001,131.023
				c0,0.69,0.242,1.175,0.633,1.401c0.392,0.227,3.671,2.119,4.063,2.346c0.392,0.226,0.933,0.194,1.531-0.152l109.405-63.162
				c1.196-0.69,2.165-2.369,2.165-3.75L373.921,159.031z"/>
			<path style="fill:#FAFAFA;" d="M262.352,356.966l109.405-63.162c1.196-0.69,2.165-2.369,2.165-3.75l-0.001-131.023
				c0-1.381-0.969-1.94-2.165-1.25l-109.405,63.162c-1.196,0.69-2.165,2.369-2.165,3.75l0.001,131.023
				C260.187,357.097,261.157,357.657,262.352,356.966z"/>
			<g id="XMLID_662_">
				<path id="XMLID_663_" style="fill:#27DEBF;" d="M332.466,232.964c-0.116,1.551-0.389,3.003-0.818,4.361
					c-0.431,1.358-0.956,2.577-1.576,3.659c-0.62,1.082-1.309,2.014-2.064,2.792c-0.756,0.78-1.518,1.364-2.285,1.757
					c-1.37,0.701-2.421,0.953-3.151,0.759c-0.731-0.194-1.275-0.534-1.632-1.019c-0.236,0.513-0.484,1.034-0.747,1.558
					c-0.263,0.527-0.592,1.048-0.988,1.565c-0.396,0.517-0.886,1.022-1.469,1.517c-0.583,0.495-1.301,0.96-2.151,1.394
					c-1.014,0.519-1.921,0.698-2.72,0.537c-0.798-0.16-1.472-0.629-2.017-1.409c-0.547-0.78-0.947-1.839-1.202-3.18
					c-0.256-1.339-0.346-2.931-0.272-4.773c0.074-1.841,0.29-3.59,0.652-5.246c0.362-1.655,0.837-3.165,1.429-4.524
					c0.591-1.362,1.303-2.55,2.136-3.564c0.832-1.014,1.756-1.781,2.771-2.301c1.123-0.574,1.948-0.751,2.477-0.532
					c0.527,0.222,0.956,0.621,1.282,1.198l0.022-0.541c0.018-0.44,0.142-0.875,0.373-1.308c0.233-0.433,0.5-0.727,0.801-0.881
					l2.138-1.093c0.3-0.154,0.556-0.128,0.763,0.081c0.205,0.208,0.3,0.533,0.282,0.972l-0.511,12.791
					c-0.039,0.961,0.145,1.595,0.549,1.897c0.404,0.303,0.88,0.315,1.428,0.035c0.548-0.281,1.032-0.793,1.451-1.537
					c0.418-0.743,0.681-1.771,0.787-3.08c0.098-1.109,0.17-2.254,0.217-3.436c0.047-1.181,0.05-2.27,0.01-3.27
					c-0.077-2.117-0.342-3.884-0.795-5.299c-0.454-1.416-1.119-2.439-1.992-3.07c-0.875-0.632-1.994-0.873-3.354-0.727
					c-1.363,0.148-2.989,0.704-4.88,1.672c-1.59,0.814-3.029,1.874-4.315,3.179c-1.287,1.305-2.406,2.78-3.359,4.423
					c-0.951,1.645-1.735,3.427-2.348,5.348c-0.614,1.924-1.041,3.887-1.282,5.893c-0.076,0.549-0.137,1.256-0.185,2.124
					c-0.048,0.868-0.091,1.772-0.129,2.712c-0.038,0.942-0.067,1.85-0.088,2.723c-0.022,0.874-0.016,1.576,0.017,2.108
					c0.087,1.838,0.373,3.418,0.857,4.738c0.484,1.322,1.155,2.343,2.012,3.059c0.858,0.719,1.903,1.086,3.138,1.102
					c1.235,0.016,2.647-0.383,4.237-1.197c1.124-0.574,2.1-1.153,2.929-1.733c0.828-0.581,1.556-1.171,2.185-1.765
					c0.628-0.597,1.166-1.176,1.62-1.741c0.451-0.565,0.863-1.118,1.234-1.661c0.314-0.473,0.562-0.825,0.747-1.058
					c0.184-0.231,0.426-0.424,0.728-0.579l3.042-1.557c0.301-0.153,0.562-0.14,0.784,0.041c0.22,0.18,0.307,0.539,0.258,1.073
					c-0.013,0.32-0.12,0.67-0.323,1.048c-0.609,1.135-1.295,2.329-2.057,3.582c-0.762,1.251-1.663,2.477-2.704,3.677
					c-1.042,1.2-2.269,2.377-3.685,3.533c-1.416,1.155-3.083,2.225-5.001,3.206c-2.385,1.22-4.461,1.78-6.229,1.686
					c-1.768-0.096-3.242-0.695-4.418-1.799c-1.179-1.104-2.078-2.625-2.698-4.563c-0.621-1.936-0.964-4.126-1.027-6.563
					c-0.005-0.546,0.005-1.286,0.028-2.221c0.023-0.932,0.056-1.91,0.097-2.932c0.041-1.021,0.086-1.995,0.137-2.923
					c0.049-0.929,0.099-1.661,0.147-2.194c0.236-2.551,0.75-5.157,1.541-7.818c0.791-2.659,1.852-5.192,3.183-7.6
					c1.33-2.406,2.929-4.607,4.795-6.6c1.863-1.992,3.989-3.599,6.374-4.819c2.796-1.43,5.146-2.143,7.052-2.137
					c1.906,0.005,3.448,0.549,4.627,1.632c1.177,1.085,2.03,2.631,2.554,4.636c0.524,2.007,0.815,4.288,0.874,6.847
					c0.013,1.014-0.008,2.21-0.063,3.592C332.639,230.61,332.563,231.855,332.466,232.964z M313.689,240.275
					c-0.079,1.962,0.121,3.35,0.599,4.165c0.477,0.815,1.194,0.977,2.155,0.486c1.013-0.518,1.796-1.438,2.346-2.758
					c0.548-1.321,0.864-2.981,0.944-4.984c0.079-1.961-0.115-3.363-0.578-4.205c-0.463-0.841-1.203-1.001-2.216-0.484
					c-0.961,0.491-1.721,1.419-2.285,2.786C314.088,236.649,313.767,238.314,313.689,240.275z"/>
			</g>
			<path style="fill:#E0E0E0;" d="M260.183,355.715c0,0.61,0.19,1.06,0.51,1.32c-0.73-0.41-3.57-2.06-3.93-2.26
				c-0.4-0.23-0.64-0.71-0.64-1.4v-131.03c0-0.69,0.24-1.45,0.64-2.13l4.06,2.34c-0.4,0.68-0.64,1.45-0.64,2.14V355.715z"/>
		</g>
		<g id="XMLID_944_">
			<path id="XMLID_1018_" style="fill:#27DEBF;" d="M382.045,298.379c-0.04,0.07-0.079,0.13-0.139,0.2l-55.583-17.625
				c-4.365-1.939-9.476-0.36-12.012,3.698l-59.421,88.316l-2.197,1.269l-0.02,0.01c-0.666,0.37-1.263,0.42-1.7,0.19l61.111-91.035
				c2.536-4.057,7.656-5.636,12.021-3.707L382.045,298.379z"/>
			<path id="XMLID_1017_" style="opacity:0.4;fill:#FFFFFF;" d="M308.839,293.32l0.14-0.12l-54.09,79.771l-2.2,1.27l-0.02,0.01
				c-0.66,0.37-1.26,0.41-1.7,0.19l55.73-82.401L308.839,293.32z"/>
			<path id="XMLID_1013_" style="opacity:0.4;fill:#FFFFFF;" d="M382.049,298.382c-0.04,0.07-0.08,0.13-0.14,0.2l-55.59-17.631
				c-4.36-1.94-9.47-0.36-12.01,3.7l-2.2-1.28c2.54-4.04,7.64-5.6,12-3.68L382.049,298.382z"/>
			<path id="XMLID_1011_" style="fill:#27DEBF;" d="M385.383,198.046h-0.01c-0.12-0.72-0.5-0.92-0.99-0.58
				c-0.19,0.13-0.41,0.35-0.64,0.66l-0.28,0.39l-54.85,83.389l-8.19,11.41c-0.92,1.3-2.94,2.05-4.51,1.69l-7.07-1.68l-53.97-19.869
				c-0.39-0.09-0.76-0.1-1.1-0.04c-0.14,0.03-0.28,0.07-0.41,0.13l2.034-1.176l51.743,18.963l6.813,2.431
				c1.56,0.37,3.58-0.38,4.51-1.69l8.19-11.4l55.12-83.779c0.18-0.25,0.4-0.43,0.62-0.57l-4.77-2.75l2-1.15l3.3,1.9
				C384.123,195.026,385.133,196.596,385.383,198.046z"/>
			<path id="XMLID_1010_" style="opacity:0.4;fill:#FFFFFF;" d="M328.609,281.9l-8.19,11.41c-0.92,1.3-2.94,2.05-4.51,1.69
				l-7.07-1.68l0.14-0.12l0.34-0.54l4.63,1.1c1.56,0.37,3.58-0.38,4.51-1.69l8.11-11.28L328.609,281.9z"/>
			<path id="XMLID_1009_" style="opacity:0.1;" d="M382.919,194.322l-3.3-1.9l-2,1.15l4.77,2.75
				c0.004,0.003,0.008,0.006,0.012,0.009l-0.008-0.005c-0.24,0.151-0.451,0.336-0.62,0.57l-55.123,83.774l-0.08,0.11v0.01l2.04,1.11
				l54.85-83.389l0.28-0.39c0.23-0.31,0.45-0.53,0.64-0.66c0.49-0.34,0.87-0.14,0.99,0.58h0.01
				C385.129,196.592,384.119,195.022,382.919,194.322z"/>
			<path id="XMLID_1008_" style="fill:#27DEBF;" d="M255.969,275.052l-11.768-6.797l0.001,101.29c0,1.594,1.129,3.549,2.509,4.346
				l2.828,1.633c1.38,0.797,3.639,0.797,5.018,0l1.412-0.815V275.052z"/>
			<path id="XMLID_1007_" style="opacity:0.15;" d="M255.969,275.052l-11.768-6.797l0.001,101.29c0,1.594,1.129,3.549,2.509,4.346
				l2.828,1.633c1.38,0.797,3.639,0.797,5.018,0l1.412-0.815V275.052z"/>
			<path id="XMLID_1005_" style="fill:#27DEBF;" d="M385.433,198.676v98.39c0,0.83-0.3,1.74-0.78,2.54c-0.4,0.66-0.9,1.25-1.47,1.65
				l-0.1,0.05c-0.06,0.04-0.1,0.08-0.16,0.11l-128.36,74.1l-0.02,0.01c-0.67,0.38-1.27,0.43-1.71,0.2c-0.39-0.2-0.66-0.61-0.75-1.2
				c-0.02-0.14-0.03-0.29-0.03-0.45v-98.4c0-1.59,1.25-2.59,2.82-2.22l53.97,19.869l7.07,1.68c1.57,0.36,3.59-0.39,4.51-1.69
				l8.19-11.41l54.85-83.389l0.28-0.39C384.673,196.836,385.433,197.076,385.433,198.676z"/>
			<path id="XMLID_1004_" style="fill:#27DEBF;" d="M382.922,301.417c0.058-0.029,0.106-0.068,0.165-0.106l0.096-0.058
				c0.57-0.396,1.072-0.985,1.468-1.642c0.475-0.788,0.769-1.688,0.779-2.498l-56.812-15.206l38.045,28.898L382.922,301.417z"/>
			<path id="XMLID_1000_" style="opacity:0.2;" d="M382.922,301.417c0.058-0.029,0.106-0.068,0.165-0.106l0.096-0.058
				c0.57-0.396,1.072-0.985,1.468-1.642c0.475-0.788,0.769-1.688,0.779-2.498l-56.812-15.206l38.045,28.898L382.922,301.417z"/>
			<path id="XMLID_999_" style="fill:#27DEBF;" d="M252.051,374.072c0,0.831,0.299,1.4,0.782,1.652
				c0.444,0.232,1.043,0.183,1.71-0.193l0.019-0.01l44.193-25.513l10.092-56.685l-56.795,79.115L252.051,374.072z"/>
			<path id="XMLID_998_" style="opacity:0.15;" d="M314.289,284.64l-61.46,91.081c-0.48-0.25-0.78-0.82-0.78-1.65l0.004-1.635
				l60.036-89.036c0-0.01,0.01-0.02,0.02-0.03L314.289,284.64z"/>
			<path id="XMLID_992_" style="fill:#27DEBF;" d="M384.65,299.611c-0.396,0.657-0.898,1.246-1.468,1.642l-0.096,0.058
				l-128.524,74.21l-0.019,0.01c-0.666,0.377-1.265,0.425-1.71,0.193l61.466-91.098c2.547-4.067,7.695-5.646,12.085-3.708
				L384.65,299.611z"/>
			<path id="XMLID_966_" style="opacity:0.15;" d="M244.669,259.152l2.04,1.18c-0.29,0.96-0.47,1.94-0.47,2.74c0,2.74,0,6.36,0,6.36
				l-2.04-1.18c0,0,0-3.63,0-6.37C244.199,261.092,244.379,260.112,244.669,259.152z"/>
			<polygon id="XMLID_946_" style="fill:#27DEBF;" points="255.397,272.37 253.363,273.546 251.303,272.356 246.233,269.436 
				248.203,268.266 			"/>
			<path id="XMLID_945_" style="opacity:0.1;" d="M255.487,272.408l-7.285-4.142l-1.97,1.17l5.07,2.92l2.06,1.19l0.021-0.012
				c0.123-0.054,0.254-0.094,0.385-0.122c0.34-0.06,0.71-0.05,1.1,0.04l4.101,1.513l47.112,17.344l0.737-1.093L255.487,272.408z"/>
		</g>
	</g>
</g>
<g id="Clouds">
	<g id="Clouds_5_">
		<g id="Cloud_5_">
			<path id="XMLID_1112_" style="fill:#F0F0F0;" d="M145.026,102.074l-7.618,4.398c0.038-0.34,0.064-0.678,0.064-1.008v-2.207
				c0-3.928-2.757-5.52-6.159-3.556c-1.378,0.795-2.645,2.056-3.671,3.53c-0.557-4.939-4.432-6.778-9.138-4.061
				c-5.089,2.938-9.214,10.083-9.214,15.959v3.302c0,1.522,0.282,2.804,0.78,3.825l-6.328,3.653
				c-1.887,1.09-3.416,3.739-3.416,5.917c0,2.179,1.529,3.062,3.416,1.972l41.284-23.835c1.887-1.089,3.416-3.739,3.416-5.917
				C148.443,101.868,146.913,100.985,145.026,102.074z"/>
		</g>
		<g id="Cloud_4_">
			<path id="XMLID_1110_" style="fill:#F0F0F0;" d="M108.142,76.958l-9.379,5.415c0.046-0.419,0.079-0.835,0.079-1.241v-2.717
				c0-4.835-3.394-6.795-7.582-4.377c-1.696,0.979-3.256,2.53-4.519,4.345c-0.686-6.08-5.456-8.345-11.249-5
				c-6.265,3.617-11.343,12.413-11.343,19.647v4.065c0,1.874,0.347,3.452,0.96,4.709l-7.79,4.497
				c-2.323,1.341-4.206,4.602-4.206,7.284c0,2.682,1.883,3.769,4.206,2.428l50.823-29.342c2.323-1.341,4.206-4.603,4.206-7.285
				C112.348,76.704,110.465,75.617,108.142,76.958z"/>
		</g>
	</g>
</g>
<g id="Paper_Plane_1_">
	<g id="Paper_Plane">
		<polygon id="XMLID_1116_" style="fill:#27DEBF;" points="404.958,164.723 440.335,142.067 455.918,147.07 		"/>
		<polygon id="XMLID_1115_" style="fill:#27DEBF;" points="404.958,164.723 435.534,139.224 428.739,131.378 		"/>
		<polygon id="XMLID_1114_" style="fill:#27DEBF;" points="435.534,139.224 435.534,145.142 404.958,164.723 		"/>
		<polygon id="XMLID_1113_" style="opacity:0.25;" points="435.534,139.224 435.534,145.142 404.958,164.723 		"/>
		<g id="XMLID_1111_">
			<path style="fill:#E0E0E0;" d="M440.629,138.73c-0.201,0-0.402-0.081-0.551-0.241c-0.281-0.304-0.263-0.779,0.042-1.06
				c1.052-0.973,2.023-2.033,2.888-3.151c0.254-0.328,0.725-0.388,1.053-0.135c0.327,0.253,0.388,0.724,0.135,1.052
				c-0.916,1.184-1.944,2.307-3.058,3.336C440.995,138.664,440.812,138.73,440.629,138.73z M446.257,131.262
				c-0.112,0-0.227-0.025-0.335-0.08c-0.37-0.186-0.52-0.636-0.335-1.006c0.867-1.73,1.534-3.568,1.983-5.463
				c0.095-0.403,0.499-0.651,0.902-0.557c0.403,0.096,0.652,0.499,0.557,0.903c-0.475,2.008-1.182,3.956-2.101,5.789
				C446.797,131.111,446.533,131.262,446.257,131.262z M448.99,120.69c-0.012,0-0.023,0-0.034-0.001
				c-0.414-0.019-0.734-0.369-0.716-0.783c0.018-0.402,0.027-0.805,0.027-1.21c0-1.527-0.132-3.077-0.391-4.607
				c-0.069-0.409,0.206-0.796,0.614-0.865c0.399-0.072,0.795,0.205,0.864,0.614c0.273,1.613,0.412,3.248,0.412,4.858
				c0,0.427-0.01,0.853-0.029,1.277C449.72,120.377,449.388,120.69,448.99,120.69z M447.376,109.877
				c-0.311,0-0.602-0.194-0.709-0.504c-0.628-1.814-1.443-3.607-2.423-5.328c-0.204-0.36-0.078-0.818,0.281-1.023
				c0.36-0.205,0.817-0.079,1.023,0.281c1.024,1.801,1.878,3.678,2.536,5.579c0.136,0.392-0.072,0.819-0.464,0.954
				C447.54,109.864,447.457,109.877,447.376,109.877z M442.124,100.269c-0.225,0-0.447-0.1-0.595-0.292
				c-1.174-1.52-2.5-2.987-3.943-4.361c-0.3-0.285-0.312-0.76-0.025-1.06c0.284-0.3,0.759-0.313,1.06-0.026
				c1.497,1.426,2.876,2.95,4.096,4.53c0.253,0.328,0.192,0.799-0.136,1.052C442.445,100.218,442.283,100.269,442.124,100.269z
				 M434.29,92.593c-0.157,0-0.315-0.049-0.451-0.151c-1.53-1.156-3.186-2.251-4.924-3.254c-0.359-0.207-0.481-0.666-0.274-1.025
				c0.206-0.358,0.664-0.482,1.024-0.274c1.79,1.035,3.499,2.163,5.078,3.356c0.33,0.25,0.396,0.72,0.147,1.051
				C434.742,92.49,434.517,92.593,434.29,92.593z M355.697,89.693c-0.26,0-0.512-0.134-0.65-0.375
				c-0.207-0.359-0.084-0.817,0.274-1.024c1.737-1.003,3.544-1.948,5.37-2.81c0.378-0.18,0.822-0.015,0.999,0.358
				c0.177,0.375,0.016,0.821-0.358,0.998c-1.79,0.844-3.56,1.77-5.261,2.752C355.953,89.661,355.824,89.693,355.697,89.693z
				 M424.871,86.953c-0.109,0-0.221-0.024-0.325-0.075c-1.776-0.859-3.609-1.652-5.447-2.356c-0.387-0.148-0.58-0.582-0.432-0.969
				c0.148-0.387,0.581-0.581,0.969-0.432c1.877,0.72,3.749,1.529,5.563,2.406c0.373,0.18,0.529,0.629,0.349,1.002
				C425.418,86.797,425.15,86.953,424.871,86.953z M365.602,84.936c-0.3,0-0.583-0.181-0.698-0.477
				c-0.151-0.386,0.039-0.821,0.425-0.972c1.871-0.732,3.798-1.397,5.728-1.979c0.394-0.119,0.814,0.106,0.934,0.502
				c0.12,0.397-0.104,0.815-0.502,0.935c-1.89,0.569-3.778,1.221-5.612,1.938C365.786,84.919,365.693,84.936,365.602,84.936z
				 M414.64,82.947c-0.072,0-0.146-0.01-0.219-0.033c-1.88-0.574-3.813-1.077-5.744-1.496c-0.404-0.088-0.661-0.487-0.574-0.892
				c0.088-0.405,0.489-0.662,0.893-0.574c1.972,0.427,3.944,0.941,5.863,1.527c0.396,0.121,0.619,0.54,0.499,0.937
				C415.258,82.739,414.961,82.947,414.64,82.947z M376.102,81.694c-0.341,0-0.65-0.235-0.729-0.581
				c-0.094-0.404,0.158-0.806,0.563-0.899c1.956-0.451,3.958-0.829,5.951-1.125c0.401-0.064,0.791,0.222,0.853,0.631
				c0.061,0.41-0.223,0.792-0.632,0.852c-1.954,0.29-3.918,0.661-5.836,1.103C376.215,81.688,376.158,81.694,376.102,81.694z
				 M403.919,80.544c-0.036,0-0.072-0.003-0.109-0.008c-1.948-0.285-3.935-0.494-5.905-0.621c-0.413-0.027-0.727-0.384-0.699-0.797
				c0.026-0.414,0.383-0.727,0.797-0.7c2.01,0.13,4.037,0.344,6.024,0.634c0.41,0.06,0.693,0.441,0.634,0.851
				C404.605,80.275,404.285,80.544,403.919,80.544z M386.962,80.01c-0.387,0-0.715-0.297-0.746-0.689
				c-0.034-0.413,0.273-0.775,0.686-0.809c2.008-0.164,4.045-0.249,6.054-0.253h0.001c0.413,0,0.749,0.335,0.75,0.748
				c0.001,0.414-0.334,0.75-0.749,0.752c-1.969,0.004-3.965,0.087-5.934,0.248C387.004,80.009,386.983,80.01,386.962,80.01z"/>
		</g>
	</g>
</g>
</svg>
