<?xml version="1.0" encoding="utf-8"?>
<!-- Generator: Adobe Illustrator 27.5.0, SVG Export Plug-In . SVG Version: 6.00 Build 0)  -->
<svg version="1.1" xmlns="http://www.w3.org/2000/svg" xmlns:xlink="http://www.w3.org/1999/xlink" x="0px" y="0px"
	 viewBox="0 0 500 500" style="enable-background:new 0 0 500 500;" xml:space="preserve">
<g id="Background_Simple">
	<g>
		<path style="fill:#92E3A9;" d="M466.13,330.34c-9.25,40.48-22.23,79.93-39.54,105.18c-9.88,14.44-21.19,24.23-34.02,26.92
			c-67.78,14.2-261.42,9.03-294.34-4.52c-6.13-2.52-14.05-11.41-22.58-24.83c-14.99-23.59-31.85-61.2-44.16-102.97
			c-18.3-62.08-26.54-133.35-3.62-181.39C51.51,99.2,98.2,68.01,138.88,49.23c45.39-20.95,96.53-26.08,145.25-14.84
			c7.95,1.84,16.56,4,25.82,6.55c63.25,17.43,174.27,99.4,174.92,147.17C485.18,211.01,479.55,271.75,466.13,330.34z"/>
		<path style="opacity:0.7;fill:#FFFFFF;" d="M466.13,330.34c-9.25,40.48-22.23,79.93-39.54,105.18
			c-9.88,14.44-21.19,24.23-34.02,26.92c-67.78,14.2-261.42,9.03-294.34-4.52c-6.13-2.52-14.05-11.41-22.58-24.83
			c-14.99-23.59-31.85-61.2-44.16-102.97c-18.3-62.08-26.54-133.35-3.62-181.39C51.51,99.2,98.2,68.01,138.88,49.23
			c45.39-20.95,96.53-26.08,145.25-14.84c7.95,1.84,16.56,4,25.82,6.55c63.25,17.43,174.27,99.4,174.92,147.17
			C485.18,211.01,479.55,271.75,466.13,330.34z"/>
	</g>
</g>
<g id="Mountains">
	<g>
		<path style="fill:#263238;" d="M475.06,284.8c-2.47,14.86-5.43,30.27-8.93,45.54c-9.25,40.48-22.23,79.93-39.54,105.18
			c-9.88,14.44-21.19,24.23-34.02,26.92c-67.78,14.2-261.42,9.03-294.34-4.52c-6.13-2.52-14.05-11.41-22.58-24.83
			c-14.99-23.59-31.85-61.2-44.16-102.97c-4.32-14.65-8.08-29.82-10.99-45.07l76.07-31.9l26.06,1.45l5.07,1.45l14.48-23.17
			l40.53-29.68l17.38,5.79l45.6,102.8l24.62-8.69l14.47-28.23l10.86-2.9l39.09-41.26l34.75,7.24l3.62,10.86l15.93,17.37l49.95,22.44
			l12.3-18.82l14.48,1.45L475.06,284.8z"/>
		<path style="opacity:0.7;fill:#FFFFFF;" d="M475.06,284.8c-0.65,3.92-1.34,7.88-2.07,11.87c-2,11.11-4.28,22.43-6.86,33.67
			c-9.25,40.48-22.23,79.93-39.54,105.18c-9.88,14.44-21.19,24.23-34.02,26.92c-67.78,14.2-261.42,9.03-294.34-4.52
			c-6.13-2.52-14.05-11.41-22.58-24.83c-14.99-23.59-31.85-61.2-44.16-102.97c-4.32-14.65-8.08-29.82-10.99-45.07l76.07-31.9
			l26.06,1.45l5.07,1.45l14.48-23.17l35.77-26.19l4.76-3.49l17.38,5.79l45.6,102.8l24.62-8.69l14.47-28.23l10.86-2.9l39.09-41.26
			l34.75,7.24l3.62,10.86l15.93,17.37l49.95,22.44l9.34-14.29l2.96-4.53l14.48,1.45L475.06,284.8z"/>
		<polygon style="fill:#FFFFFF;" points="200.09,208.99 245.69,311.79 234.84,314.68 191.4,296.59 202.98,283.55 223.25,294.41 
			193.57,238.67 196.47,226.37 178.37,207.55 177.95,206.69 182.71,203.2 		"/>
		<polygon style="fill:#FFFFFF;" points="389.03,266.18 438.98,288.62 428.12,297.31 367.31,293.69 364.41,283.55 381.06,272.7 
			362.24,261.84 359.35,253.15 345.59,247.36 334.73,230.71 369.48,237.95 373.1,248.81 		"/>
		<path style="fill:#FFFFFF;" d="M475.06,284.8c-0.65,3.92-1.34,7.88-2.07,11.87l-15.19-19.63l-9.48-2.71l2.96-4.53l14.48,1.45
			L475.06,284.8z"/>
	</g>
</g>
<g id="Rocks_2">
	<g>
		<polygon style="fill:#263238;" points="165.613,335.228 159.499,339.304 164.085,347.966 170.199,345.928 173.256,340.832 		"/>
		<polygon style="fill:#263238;" points="162.046,364.78 160.008,371.404 164.594,373.442 166.123,367.837 		"/>
		<polygon style="fill:#263238;" points="182.704,358.686 178.355,357.592 177.193,360.624 180.866,361.423 		"/>
	</g>
</g>
<g id="Rocks_1">
	<g>
		<g>
			<path style="fill:#263238;" d="M466.13,327.12v3.22c-0.16,0.69-0.32,1.39-0.48,2.08c-2.46,10.63-5.19,21.16-8.18,31.37
				c-2.37,8.12-4.92,16.03-7.65,23.62c-6.66,18.58-14.38,35.2-23.23,48.11l-24.03-20.4l-20.18-12.14l-7.28-20.03l-24.89-21.85
				c0,0-5.46-15.78-3.03-20.63c0.7-1.39,2.87-4.01,5.7-7.08c7.08-7.68,18.23-18.15,20.4-19.02
				C376.31,313.16,466.13,327.12,466.13,327.12z"/>
			<path style="opacity:0.3;fill:#FFFFFF;" d="M466.13,327.12v3.22c-0.16,0.69-0.32,1.39-0.48,2.08l-42.22-4.84l4.59,4.08
				l-17.83,6.12l-35.67-18.35l-21.64,13.96c7.08-7.68,18.23-18.15,20.4-19.02C376.31,313.16,466.13,327.12,466.13,327.12z"/>
			<path style="opacity:0.3;fill:#FFFFFF;" d="M457.47,363.79c-2.37,8.12-4.92,16.03-7.65,23.62c-0.94-0.48-1.92-1.06-2.95-1.74
				c-19.36-12.74-27-12.74-27-12.74l-2.55-9.68l38.72,1.02L457.47,363.79z"/>
		</g>
		<g>
			<path style="fill:#263238;" d="M151.83,356.22c-2.13,4.7-9.05,11.81-10.99,12.77c-2.43,1.22-13.96,15.17-13.96,15.17l-4.85,13.96
				l-7.28,13.35l-14.9,6.68l-20.3,9.1l-3.9,5.84c-13.63-21.45-28.81-54.49-40.7-91.71c-1.19-3.71-2.34-7.47-3.46-11.26l4.98-1.13
				l64.32-14.62c0,0,36.41,6.07,39.44,7.89c3.04,1.82,10.93,27.31,12.14,30.95C152.62,353.96,152.39,355.01,151.83,356.22z"/>
			<path style="opacity:0.3;fill:#FFFFFF;" d="M151.83,356.22l-24.43,2.45l6.11-24.46l-28.53-9.17l-68.51,3.95l64.32-14.62
				c0,0,36.41,6.07,39.44,7.89c3.04,1.82,10.93,27.31,12.14,30.95C152.62,353.96,152.39,355.01,151.83,356.22z"/>
		</g>
	</g>
</g>
<g id="Clouds">
	<g style="opacity:0.3;">
		<path style="fill:none;stroke:#000000;stroke-miterlimit:10;" d="M427.413,176.321c0,0-6.617-16.582-20.335-18.542
			c-13.718-1.96-18.207,15.928-28.658,17.235c-10.452,1.307-13.718-11.105-21.557-7.186c-7.839,3.919-7.186,13.718-11.758,15.024
			c-4.573,1.307-12.412-3.919-15.025,1.307c-2.613,5.226-5.226,11.105-5.226,11.105s-3.919,2.613-9.799,3.919
			c-5.879,1.307-12.412,0-13.718,2.613h164.617c0,0,0.653-15.025-9.145-18.944C447.01,178.934,436.1,191.638,427.413,176.321z"/>
		<path style="fill:none;stroke:#000000;stroke-miterlimit:10;" d="M100.213,182.033c0,0-3.046-7.633-9.361-8.535
			c-6.315-0.902-8.381,7.333-13.193,7.934c-4.811,0.601-6.315-5.112-9.924-3.308c-3.609,1.804-3.308,6.315-5.413,6.916
			c-2.105,0.601-5.714-1.804-6.916,0.601s-2.406,5.112-2.406,5.112s-1.804,1.203-4.511,1.804c-2.707,0.601-5.714,0-6.315,1.203
			h75.78c0,0,0.301-6.916-4.21-8.721C109.234,183.236,104.212,189.084,100.213,182.033z"/>
		<g>
			<path style="fill:none;stroke:#000000;stroke-miterlimit:10;" d="M251.044,40.087c0,0-2.837-7.109-8.718-7.949
				c-5.881-0.84-7.805,6.829-12.286,7.389c-4.481,0.56-5.881-4.761-9.242-3.081c-3.361,1.68-3.081,5.881-5.041,6.441
				c-1.96,0.56-5.321-1.68-6.441,0.56c-1.12,2.241-2.24,4.761-2.24,4.761s-1.68,1.12-4.201,1.68c-2.52,0.56-5.321,0-5.881,1.12
				h70.575c0,0,0.28-6.441-3.921-8.122C259.445,41.207,254.768,46.654,251.044,40.087z"/>
			<path style="fill:none;stroke:#000000;stroke-miterlimit:10;" d="M183.478,44.709c0,0-1.636-4.101-5.029-4.585
				c-3.392-0.485-4.502,3.939-7.087,4.262c-2.585,0.323-3.392-2.746-5.331-1.777c-1.938,0.969-1.777,3.392-2.908,3.715
				c-1.131,0.323-3.069-0.969-3.715,0.323c-0.646,1.292-1.292,2.746-1.292,2.746s-0.969,0.646-2.423,0.969
				c-1.454,0.323-3.069,0-3.392,0.646h40.708c0,0,0.162-3.715-2.261-4.685C188.324,45.355,185.626,48.497,183.478,44.709z"/>
		</g>
	</g>
</g>
<g id="Sun">
	<circle style="opacity:0.3;fill:none;stroke:#000000;stroke-miterlimit:10;" cx="403.504" cy="75.795" r="34.747"/>
</g>
<g id="Character">
	<g>
		<g>
			<path style="fill:#FFFFFF;stroke:#263238;strokeLinecap:round;strokeLinejoin:round;stroke-miterlimit:10;" d="
				M168.499,266.136l-9.711,0.925c0,0-7.168-1.85-7.861-0.231c-0.694,1.618-0.462,7.861,0.462,10.636
				c0.925,2.775,0.231,7.168,0.694,9.711s5.549,10.636,6.474,10.867c0.925,0.231,2.543-1.85,2.543-2.775
				c0-0.925,0.231-10.867,0.462-12.023c0.231-1.156,3.237-8.786,3.237-8.786l4.393-0.694L168.499,266.136z"/>
			<path style="fill:#263238;stroke:#263238;strokeLinecap:round;strokeLinejoin:round;stroke-miterlimit:10;" d="M163.973,276.58
				l-4.029-2.121l-0.147-7.495l-1.009,0.096c0,0-7.168-1.85-7.861-0.231c-0.694,1.618-0.462,7.861,0.462,10.636
				c0.925,2.775,0.231,7.168,0.694,9.711c0.462,2.543,5.549,10.636,6.474,10.867c0.925,0.231,2.543-1.85,2.543-2.775
				c0-0.925,0.231-10.867,0.462-12.023C161.714,282.485,163.065,278.929,163.973,276.58z"/>
		</g>
		<path style="fill:#263238;stroke:#263238;strokeLinecap:round;strokeLinejoin:round;stroke-miterlimit:10;" d="M227.689,211.802
			l-9.942,37.225c0,0-28.208,6.474-30.52,7.63c-2.312,1.156-21.503,8.555-21.503,8.555l3.468,12.254c0,0,55.028-13.41,56.878-13.873
			c1.85-0.462,3.93-0.694,4.855-2.081c0.925-1.387,19.884-32.37,22.89-36.994C256.821,219.894,230.463,216.888,227.689,211.802z"/>
		<g>
			<path style="fill:#FFFFFF;stroke:#263238;strokeLinecap:round;strokeLinejoin:round;stroke-miterlimit:10;" d="
				M261.146,127.824c0,0-22.653-8.938-25.119-8.63c-2.466,0.308-27.738,3.698-28.817,4.161c-1.079,0.462-34.163,28.024-35.519,29.38
				c-1.356,1.356-1.479,2.096-2.219,3.575c-0.74,1.479-2.342,4.931-2.589,5.548c-0.247,0.616-2.342,5.424-1.726,5.548
				c0.616,0.123,3.698-2.959,3.698-2.959s-1.603,3.822-0.247,3.205c1.356-0.616,3.945-4.685,4.315-5.054
				c0.37-0.37,6.411-3.822,6.411-3.822s-1.849,4.315-1.356,5.548c0.493,1.233,1.726,0.863,1.849,0
				c0.123-0.863-0.123-0.986,0.986-2.589c1.11-1.603,1.849-3.698,1.849-4.931c0-1.233-0.123-5.918-0.123-5.918l28.985-14.278
				l20.958,0.616l7.089,7.551c0,0-4.315,36.676-4.469,37.447c-0.154,0.771-1.695,2.003-2.157,3.699
				c-0.462,1.695,0.308,2.466,1.387,2.774c1.079,0.308,19.263,7.089,23.578,9.092c4.315,2.003,6.78,3.39,7.859,2.62
				c1.079-0.771,3.39-5.24,3.39-5.24l12.174-23.424l5.548-8.013c0,0,16.027,2.003,23.732,1.849
				c7.705-0.154,9.863-3.236,10.325-4.777c0,0-3.853,0.616-7.089-2.311c-3.236-2.928-6.318-8.013-6.318-8.013
				s-10.941-2.774-12.328-3.699s-3.544-2.311-10.941-7.089c-7.397-4.777-9.554-5.548-9.554-5.548L261.146,127.824z"/>
			<path style="fill:#92E3A9;stroke:#263238;strokeLinecap:round;strokeLinejoin:round;stroke-miterlimit:10;" d="
				M239.571,144.776c0,0-4.315,36.676-4.469,37.447c-0.154,0.77-1.695,2.003-2.158,3.699c-0.462,1.695,0.308,2.466,1.387,2.774
				c1.079,0.308,19.263,7.089,23.578,9.092c4.315,2.003,6.78,3.39,7.859,2.62c1.079-0.771,3.39-5.24,3.39-5.24l12.174-23.424
				l5.548-8.013c0,0,16.027,2.003,23.732,1.849c7.705-0.154,9.863-3.236,10.325-4.777c0,0-3.853,0.616-7.089-2.311
				c-3.236-2.928-6.318-8.013-6.318-8.013s-10.941-2.774-12.328-3.699s-3.544-2.311-10.941-7.089
				c-7.397-4.777-9.554-5.548-9.554-5.548l-13.561-6.318c0,0-22.653-8.938-25.119-8.63c-2.466,0.308-27.738,3.698-28.817,4.161
				c-0.071,0.03-0.284,0.182-0.61,0.428c1.364,2.465,4.123,7.898,4.925,12.825l20.958,0.616L239.571,144.776z"/>
			
				<line style="fill:none;stroke:#263238;strokeLinecap:round;strokeLinejoin:round;stroke-miterlimit:10;" x1="232.482" y1="137.225" x2="228.322" y2="132.139"/>
			<polyline style="fill:none;stroke:#263238;strokeLinecap:round;strokeLinejoin:round;stroke-miterlimit:10;" points="
				294.894,154.946 286.88,163.73 303.678,155.1 			"/>
			<path style="fill:none;stroke:#263238;strokeLinecap:round;strokeLinejoin:round;stroke-miterlimit:10;" d="M168.855,164.447
				c0,0,3.836-6.265,5.377-7.652"/>
			
				<line style="fill:none;stroke:#263238;strokeLinecap:round;strokeLinejoin:round;stroke-miterlimit:10;" x1="167.606" y1="160.494" x2="172.691" y2="154.484"/>
		</g>
		<path style="fill:#263238;stroke:#263238;strokeLinecap:round;strokeLinejoin:round;stroke-miterlimit:10;" d="M262.421,143.531
			l0.798,7.709c0,0-9.836,5.849-12.362,4.652s-18.609-11.963-19.672-11.564c-1.063,0.399-21.267,6.912-24.059,7.444
			c-2.791,0.532-5.583,0.931-5.583,0.931l-6.779,7.842l14.754,5.184c0,0,10.767-6.779,14.887-9.304
			c4.12-2.526,8.241-5.051,8.241-5.051s16.349,9.836,16.881,9.703c0.532-0.133,15.286-8.773,15.286-8.773s3.589-1.196,5.317-2.525
			c1.728-1.329,3.968-6.659,4.576-6.852c0.608-0.193,1.14-1.389,1.14-1.389l-2.127-0.133l-5.184,5.849l-3.323-1.063l-0.665-5.849
			L262.421,143.531z"/>
		<polygon style="fill:#92E3A9;stroke:#263238;strokeLinecap:round;strokeLinejoin:round;stroke-miterlimit:10;" points="
			267.618,147.704 274.706,142.926 280.254,150.94 276.864,134.913 270.392,143.389 		"/>
		<g>
			<path style="fill:#FFFFFF;stroke:#263238;strokeLinecap:round;strokeLinejoin:round;stroke-miterlimit:10;" d="
				M289.654,113.647c0,0,1.233,3.082,0.308,4.315c-0.925,1.233-1.387,1.849-1.387,1.849s4.007,4.469,3.082,5.548
				c-0.925,1.079-2.466,1.695-2.466,1.695s-3.082,6.935-3.853,7.705c-0.77,0.77-4.469-0.462-4.469-0.462l-13.253,13.407
				l-0.462-7.243l-3.39-14.177l0.771-1.541c0,0,0.771-11.866,5.24-15.872c4.469-4.007,12.482-3.853,16.489-1.849
				C290.271,109.024,289.654,113.647,289.654,113.647z"/>
			<polygon style="fill:#263238;stroke:#263238;strokeLinecap:round;strokeLinejoin:round;stroke-miterlimit:10;" points="
				280.87,134.297 277.491,131.899 276.983,137.823 			"/>
			<path style="fill:#263238;stroke:#263238;strokeLinecap:round;strokeLinejoin:round;stroke-miterlimit:10;" d="
				M274.552,116.421l2.003-0.154c0,0,0.308-2.312,1.079-2.62c0.771-0.308,1.541,0.616,2.928-0.616
				c1.387-1.233,1.849-4.469,4.623-4.315c2.774,0.154,4.161,2.62,4.469,4.931c0.308,2.312,5.085-0.462,5.702-2.157
				c0.616-1.695,1.695-5.856,0.154-6.318c-1.541-0.462-4.007,2.312-4.161,1.849c-0.154-0.462,0.462-7.089-2.003-6.472
				c-2.466,0.616-3.39,1.695-3.39,1.695s-8.784-4.777-12.945-3.544c-4.161,1.233-9.554,5.239-10.017,8.167
				c-0.462,2.928,0.154,18.955,1.541,17.876c1.387-1.079,7.859-6.935,7.859-6.935L274.552,116.421z"/>
			<path style="fill:#FFFFFF;stroke:#263238;strokeLinecap:round;strokeLinejoin:round;stroke-miterlimit:10;" d="
				M275.169,117.808c0,0-0.616-6.626-3.853-4.623c-3.236,2.003-2.003,6.472-1.233,7.551c0.77,1.079,3.082,0.308,3.082,0.308"/>
			<path style="fill:none;stroke:#263238;strokeLinecap:round;strokeLinejoin:round;stroke-miterlimit:10;" d="M271.624,121.352
				c0,0-0.154,5.702,0.771,6.626c0.925,0.925,3.698,2.774,3.698,2.774"/>
			<path style="fill:none;stroke:#263238;strokeLinecap:round;strokeLinejoin:round;stroke-miterlimit:10;" d="M289.038,116.729
				c0,0-0.925-2.003-2.928-1.541"/>
			<path style="fill:none;stroke:#263238;strokeLinecap:round;strokeLinejoin:round;stroke-miterlimit:10;" d="M284.415,126.746
				c0,0,2.311,0.308,2.62,1.695"/>
			<path style="fill:#263238;" d="M287.497,118.964c0,0.638-0.276,1.156-0.616,1.156s-0.616-0.517-0.616-1.156
				c0-0.638,0.276-1.156,0.616-1.156S287.497,118.325,287.497,118.964z"/>
		</g>
		<polygon style="fill:#92E3A9;stroke:#263238;strokeLinecap:round;strokeLinejoin:round;stroke-miterlimit:10;" points="
			263.765,126.283 267.155,140.461 259.45,149.245 259.604,127.362 		"/>
		<path style="fill:#92E3A9;stroke:#263238;strokeLinecap:round;strokeLinejoin:round;stroke-miterlimit:10;" d="M205.515,124.434
			c0,0,2.158,3.082,2.928,5.856c0.771,2.774,1.541,7.859,1.541,7.859s0,0.616,2.62,0c2.62-0.616,3.39,1.079,3.699-2.157
			s-0.771-8.938-2.003-11.712c-1.233-2.774,0-2.774-1.849-2.774S205.823,122.431,205.515,124.434z"/>
		<path style="fill:#92E3A9;stroke:#263238;strokeLinecap:round;strokeLinejoin:round;stroke-miterlimit:10;" d="M308.917,145.854
			c0,0-5.394,5.548-4.777,6.472s9.4,9.863,11.404,10.479c2.003,0.616,4.161,0.616,6.626-2.003c2.466-2.62,0.462-6.781-0.616-8.784
			C320.475,150.015,310.304,145.238,308.917,145.854z"/>
		<g>
			<path style="fill:#FFFFFF;stroke:#263238;strokeLinecap:round;strokeLinejoin:round;stroke-miterlimit:10;" d="
				M316.468,113.647c0,0-8.013,34.057-8.476,35.443c-0.462,1.387,5.393,7.705,7.551,8.167c2.157,0.462,5.085-0.617,5.548-2.928
				c0.462-2.311,0.925-6.318,0.925-6.318l0.154-38.68c0,0-5.702-9.4-6.935-9.4c-1.233,0-6.78,5.085-6.318,6.164
				c0.462,1.079,1.541,3.699,2.62,4.161c1.079,0.462,1.387,0.771,2.003,0.925C314.156,111.336,316.468,113.647,316.468,113.647z"/>
			<path style="fill:#FFFFFF;stroke:#263238;strokeLinecap:round;strokeLinejoin:round;stroke-miterlimit:10;" d="
				M321.678,108.609c0,0-4.439-11.142-5.518-10.834c-1.079,0.308-6.626,2.62-6.626,3.236c0,0.616-0.154,3.082,0.154,3.698
				s5.856,5.702,6.318,6.01c0.462,0.308,0.308,0.616,1.695,0s2.466-2.003,1.541-2.312"/>
			<path style="fill:#FFFFFF;stroke:#263238;strokeLinecap:round;strokeLinejoin:round;stroke-miterlimit:10;" d="M309.101,102.32
				c0,0-2.464,0.765-2.379,1.785c0.085,1.02,2.125,3.229,2.634,3.314c0.51,0.085,1.53-0.255,1.53-0.85
				C310.885,105.974,309.101,102.32,309.101,102.32z"/>
			<path style="fill:#FFFFFF;stroke:#263238;strokeLinecap:round;strokeLinejoin:round;stroke-miterlimit:10;" d="
				M319.553,105.465c0,0-3.994,1.445-3.994,2.039c0,0.595,0.447,3.215,0.447,3.215"/>
			<path style="fill:none;stroke:#263238;strokeLinecap:round;strokeLinejoin:round;stroke-miterlimit:10;" d="M318.534,103.085
				c0,0-4.929,1.615-4.929,2.379s0.255,3.314,0.255,3.314"/>
			<path style="fill:none;stroke:#263238;strokeLinecap:round;strokeLinejoin:round;stroke-miterlimit:10;" d="M317.429,100.111
				c0,0-6.203,2.124-6.203,3.144c0,1.02,0.51,3.399,0.51,3.399"/>
			<path style="fill:none;stroke:#263238;strokeLinecap:round;strokeLinejoin:round;stroke-miterlimit:10;" d="M316.468,113.647
				c0,0,1.131,0.995,2.15,1.08"/>
		</g>
		<g>
			<path style="fill:#FFFFFF;stroke:#263238;strokeLinecap:round;strokeLinejoin:round;stroke-miterlimit:10;" d="
				M324.971,275.919l3.806,1.776c0,0,8.063-4.972,11.217-6.373c3.154-1.401,4.731-3.917,5.67-3.457
				c0.939,0.461-1.7,7.939-2.869,9.765c-1.169,1.825-5.527,7.639-7.033,8.614c-1.506,0.975-8.253,7.436-10.537,7.943
				c-2.284,0.507-5.074-7.104-5.582-8.119c-0.507-1.015-2.791-4.821-2.791-4.821L324.971,275.919z"/>
			<path style="fill:#263238;stroke:#263238;strokeLinecap:round;strokeLinejoin:round;stroke-miterlimit:10;" d="
				M319.643,286.068c0.507,1.015,3.298,8.626,5.582,8.119c2.284-0.508,9.03-6.968,10.537-7.943c1.506-0.975,5.864-6.788,7.033-8.614
				c1.169-1.825,3.808-9.304,2.869-9.765c-0.939-0.461-2.516,2.056-5.67,3.457c-3.154,1.401-11.217,6.373-11.217,6.373l0.153,3.539
				L319.643,286.068z"/>
		</g>
		<g>
			<path style="fill:#263238;stroke:#263238;strokeLinecap:round;strokeLinejoin:round;stroke-miterlimit:10;" d="
				M234.332,188.695c0,0-6.412,9.697-8.493,16.633c-2.081,6.936,2.081,13.179,6.243,15.491c4.162,2.312,16.185,4.855,20.809,5.549
				c4.624,0.694,30.751,1.387,30.751,1.387s9.057,23.474,12.294,28.56c3.237,5.087,13.642,20.115,13.642,20.115l4.162,8.555
				l14.335-9.942c0,0-9.711-16.185-10.173-17.803c-0.462-1.618-19.231-43.589-20.387-44.976
				c-1.156-1.387-31.676-10.405-31.676-10.405S238.663,188.246,234.332,188.695z"/>
			<path style="fill:none;stroke:#FFFFFF;strokeLinecap:round;strokeLinejoin:round;stroke-miterlimit:10;" d="M231.85,201.166
				c0,0,7.399-3.468,10.405-4.162c3.006-0.694,23.514,3.402,23.514,3.402"/>
			<path style="fill:none;stroke:#FFFFFF;strokeLinecap:round;strokeLinejoin:round;stroke-miterlimit:10;" d="M233.007,196.542
				c0,0,4.162-1.85,8.092-1.618"/>
		</g>
	</g>
</g>
</svg>
