<?xml version="1.0" encoding="utf-8"?>
<!-- Generator: Adobe Illustrator 27.5.0, SVG Export Plug-In . SVG Version: 6.00 Build 0)  -->
<svg version="1.1" xmlns="http://www.w3.org/2000/svg" xmlns:xlink="http://www.w3.org/1999/xlink" x="0px" y="0px"
	 viewBox="0 0 750 500" style="enable-background:new 0 0 750 500;" xml:space="preserve">
<g id="Background_Simple">
	<g>
		<path style="fill:#92E3A9;" d="M709.613,338.901c16.667-123.477-66.914-238.302-189.135-262.519
			c-17.449-3.458-36.814-6.408-58.131-8.488c-123-12-216,103-301,136s-124,29-132,135s89,139,199,118s102-76,228-31s183,55,228-14
			C697.284,392.056,705.841,366.846,709.613,338.901z"/>
		<path style="opacity:0.7;fill:#FFFFFF;" d="M709.613,338.901c16.667-123.477-66.914-238.302-189.135-262.519
			c-17.449-3.458-36.814-6.408-58.131-8.488c-123-12-216,103-301,136s-124,29-132,135s89,139,199,118s102-76,228-31s183,55,228-14
			C697.284,392.056,705.841,366.846,709.613,338.901z"/>
	</g>
</g>
<g id="Plant">
	<g>
		<g>
			<line style="fill:none;stroke:#263238;stroke-miterlimit:10;" x1="671.255" y1="333.834" x2="682.152" y2="438.258"/>
			<g>
				<g>
					<line style="fill:none;stroke:#263238;stroke-miterlimit:10;" x1="680.396" y1="418.274" x2="675.456" y2="413.056"/>
					<path style="fill:#92E3A9;stroke:#263238;stroke-miterlimit:10;" d="M676.957,414.619c0,0,0.141-2.308-1.966-4.191
						c-1.268-1.132-7.942-3.94-8.575-1.59C665.726,411.395,672.557,416.416,676.957,414.619z"/>
					
						<line style="fill:none;stroke:#263238;strokeWidth:0.5;stroke-miterlimit:10;" x1="676.957" y1="414.619" x2="670.603" y2="410.66"/>
				</g>
				<g>
					<line style="fill:none;stroke:#263238;stroke-miterlimit:10;" x1="681.635" y1="430.15" x2="676.695" y2="424.932"/>
					<path style="fill:#92E3A9;stroke:#263238;stroke-miterlimit:10;" d="M678.196,426.495c0,0,0.141-2.308-1.966-4.191
						c-1.268-1.132-7.942-3.94-8.575-1.59C666.965,423.271,673.797,428.292,678.196,426.495z"/>
					
						<line style="fill:none;stroke:#263238;strokeWidth:0.5;stroke-miterlimit:10;" x1="678.196" y1="426.495" x2="671.842" y2="422.536"/>
				</g>
				<g>
					<line style="fill:none;stroke:#263238;stroke-miterlimit:10;" x1="677.371" y1="389.294" x2="672.431" y2="384.076"/>
					<path style="fill:#92E3A9;stroke:#263238;stroke-miterlimit:10;" d="M673.932,385.639c0,0,0.141-2.308-1.966-4.191
						c-1.268-1.133-7.942-3.94-8.576-1.59C662.702,382.415,669.533,387.436,673.932,385.639z"/>
					
						<line style="fill:none;stroke:#263238;strokeWidth:0.5;stroke-miterlimit:10;" x1="673.932" y1="385.639" x2="667.578" y2="381.68"/>
				</g>
				<g>
					<line style="fill:none;stroke:#263238;stroke-miterlimit:10;" x1="678.611" y1="401.17" x2="673.67" y2="395.952"/>
					<path style="fill:#92E3A9;stroke:#263238;stroke-miterlimit:10;" d="M675.172,397.515c0,0,0.141-2.308-1.966-4.191
						c-1.268-1.132-7.942-3.94-8.575-1.59C663.941,394.292,670.772,399.312,675.172,397.515z"/>
					
						<line style="fill:none;stroke:#263238;strokeWidth:0.5;stroke-miterlimit:10;" x1="675.172" y1="397.515" x2="668.818" y2="393.556"/>
				</g>
				<g>
					<line style="fill:none;stroke:#263238;stroke-miterlimit:10;" x1="675.358" y1="370.002" x2="670.418" y2="364.784"/>
					<path style="fill:#92E3A9;stroke:#263238;stroke-miterlimit:10;" d="M671.919,366.348c0,0,0.141-2.308-1.966-4.191
						c-1.268-1.132-7.942-3.94-8.575-1.59C660.688,363.124,667.519,368.145,671.919,366.348z"/>
					
						<line style="fill:none;stroke:#263238;strokeWidth:0.5;stroke-miterlimit:10;" x1="671.919" y1="366.348" x2="665.565" y2="362.388"/>
				</g>
				<g>
					
						<line style="fill:none;stroke:#263238;strokeWidth:2;stroke-miterlimit:10;" x1="673.336" y1="350.626" x2="668.396" y2="345.408"/>
					<path style="fill:#92E3A9;stroke:#263238;stroke-miterlimit:10;" d="M669.897,346.972c0,0,0.141-2.308-1.966-4.191
						c-1.268-1.133-7.942-3.94-8.575-1.59C658.666,343.748,665.497,348.769,669.897,346.972z"/>
					
						<line style="fill:none;stroke:#263238;strokeWidth:0.5;stroke-miterlimit:10;" x1="669.897" y1="346.972" x2="663.543" y2="343.012"/>
				</g>
				<g>
					
						<line style="fill:none;stroke:#263238;strokeWidth:2;stroke-miterlimit:10;" x1="679.566" y1="411.247" x2="683.322" y2="405.121"/>
					<path style="fill:#92E3A9;stroke:#263238;stroke-miterlimit:10;" d="M682.176,406.961c0,0-0.615-2.229,1.059-4.506
						c1.007-1.37,6.957-5.495,8.062-3.326C692.499,401.488,686.852,407.811,682.176,406.961z"/>
					
						<line style="fill:none;stroke:#263238;strokeWidth:0.5;stroke-miterlimit:10;" x1="682.176" y1="406.961" x2="687.897" y2="401.493"/>
				</g>
				<g>
					<line style="fill:none;stroke:#263238;stroke-miterlimit:10;" x1="676.304" y1="379.995" x2="680.061" y2="373.869"/>
					<path style="fill:#92E3A9;stroke:#263238;stroke-miterlimit:10;" d="M678.915,375.709c0,0-0.615-2.229,1.059-4.506
						c1.007-1.37,6.957-5.495,8.062-3.326C689.238,370.236,683.591,376.559,678.915,375.709z"/>
					
						<line style="fill:none;stroke:#263238;strokeWidth:0.5;stroke-miterlimit:10;" x1="678.915" y1="375.709" x2="684.636" y2="370.241"/>
				</g>
				<g>
					<line style="fill:none;stroke:#263238;stroke-miterlimit:10;" x1="674.871" y1="366.261" x2="678.627" y2="360.135"/>
					<path style="fill:#92E3A9;stroke:#263238;stroke-miterlimit:10;" d="M677.482,361.975c0,0-0.615-2.229,1.059-4.506
						c1.007-1.37,6.957-5.495,8.062-3.326C687.804,356.502,682.157,362.825,677.482,361.975z"/>
					
						<line style="fill:none;stroke:#263238;strokeWidth:0.5;stroke-miterlimit:10;" x1="677.482" y1="361.975" x2="683.203" y2="356.507"/>
				</g>
				<g>
					<line style="fill:none;stroke:#263238;stroke-miterlimit:10;" x1="672.77" y1="346.127" x2="676.526" y2="340.001"/>
					<path style="fill:#92E3A9;stroke:#263238;stroke-miterlimit:10;" d="M675.38,341.841c0,0-0.615-2.229,1.059-4.506
						c1.007-1.37,6.957-5.495,8.062-3.326C685.703,336.367,680.056,342.691,675.38,341.841z"/>
					
						<line style="fill:none;stroke:#263238;strokeWidth:0.5;stroke-miterlimit:10;" x1="675.38" y1="341.841" x2="681.101" y2="336.372"/>
					<path style="fill:#92E3A9;stroke:#263238;stroke-miterlimit:10;" d="M671.163,333.254c0,0-0.615-2.229,1.059-4.506
						c1.007-1.37,6.957-5.495,8.062-3.326C681.486,327.781,675.839,334.104,671.163,333.254z"/>
					
						<line style="fill:none;stroke:#263238;strokeWidth:0.5;stroke-miterlimit:10;" x1="671.163" y1="333.254" x2="676.884" y2="327.786"/>
					<path style="fill:#92E3A9;stroke:#263238;stroke-miterlimit:10;" d="M671.494,333.49c0,0-2.281,0.378-4.37-1.525
						c-1.257-1.145-4.735-7.495-2.462-8.367C667.134,322.65,672.83,328.929,671.494,333.49z"/>
					
						<line style="fill:none;stroke:#263238;strokeWidth:0.5;stroke-miterlimit:10;" x1="671.494" y1="333.49" x2="666.656" y2="327.227"/>
				</g>
			</g>
		</g>
		<g>
			<line style="fill:none;stroke:#263238;stroke-miterlimit:10;" x1="699.998" y1="348.215" x2="689.162" y2="452.645"/>
			<g>
				<g>
					<line style="fill:none;stroke:#263238;stroke-miterlimit:10;" x1="691.557" y1="432.728" x2="687.797" y2="426.604"/>
					<path style="fill:#92E3A9;stroke:#263238;stroke-miterlimit:10;" d="M688.944,428.443c0,0,0.614-2.23-1.061-4.506
						c-1.008-1.369-6.961-5.491-8.064-3.321C678.618,422.976,684.269,429.296,688.944,428.443z"/>
					
						<line style="fill:none;stroke:#263238;strokeWidth:0.5;stroke-miterlimit:10;" x1="688.944" y1="428.443" x2="683.542" y2="423.26"/>
				</g>
				<g>
					<line style="fill:none;stroke:#263238;stroke-miterlimit:10;" x1="694.565" y1="403.746" x2="690.805" y2="397.622"/>
					<path style="fill:#92E3A9;stroke:#263238;stroke-miterlimit:10;" d="M691.952,399.462c0,0,0.614-2.23-1.061-4.506
						c-1.008-1.369-6.961-5.491-8.064-3.321C681.625,393.995,687.276,400.314,691.952,399.462z"/>
					
						<line style="fill:none;stroke:#263238;strokeWidth:0.5;stroke-miterlimit:10;" x1="691.952" y1="399.462" x2="686.549" y2="394.279"/>
				</g>
				<g>
					<line style="fill:none;stroke:#263238;stroke-miterlimit:10;" x1="693.332" y1="415.623" x2="689.572" y2="409.499"/>
					<path style="fill:#92E3A9;stroke:#263238;stroke-miterlimit:10;" d="M690.719,411.338c0,0,0.614-2.23-1.061-4.506
						c-1.008-1.369-6.961-5.491-8.064-3.321C680.393,405.871,686.044,412.191,690.719,411.338z"/>
					
						<line style="fill:none;stroke:#263238;strokeWidth:0.5;stroke-miterlimit:10;" x1="690.719" y1="411.338" x2="685.317" y2="406.155"/>
				</g>
				<g>
					<line style="fill:none;stroke:#263238;stroke-miterlimit:10;" x1="696.567" y1="384.453" x2="692.806" y2="378.33"/>
					<path style="fill:#92E3A9;stroke:#263238;stroke-miterlimit:10;" d="M693.953,380.169c0,0,0.614-2.23-1.061-4.506
						c-1.008-1.369-6.961-5.491-8.064-3.321C683.627,374.702,689.278,381.021,693.953,380.169z"/>
					
						<line style="fill:none;stroke:#263238;strokeWidth:0.5;stroke-miterlimit:10;" x1="693.953" y1="380.169" x2="688.551" y2="374.986"/>
				</g>
				<g>
					<line style="fill:none;stroke:#263238;stroke-miterlimit:10;" x1="698.577" y1="365.076" x2="694.817" y2="358.952"/>
					<path style="fill:#92E3A9;stroke:#263238;stroke-miterlimit:10;" d="M695.964,360.792c0,0,0.614-2.23-1.061-4.506
						c-1.008-1.369-6.961-5.491-8.064-3.321C685.638,355.324,691.289,361.644,695.964,360.792z"/>
					
						<line style="fill:none;stroke:#263238;strokeWidth:0.5;stroke-miterlimit:10;" x1="695.964" y1="360.792" x2="690.562" y2="355.609"/>
				</g>
				<g>
					<line style="fill:none;stroke:#263238;stroke-miterlimit:10;" x1="692.192" y1="425.681" x2="697.129" y2="420.459"/>
					<path style="fill:#92E3A9;stroke:#263238;stroke-miterlimit:10;" d="M695.629,422.024c0,0-0.143-2.308,1.964-4.192
						c1.267-1.133,7.94-3.945,8.574-1.595C706.858,418.793,700.029,423.818,695.629,422.024z"/>
					
						<line style="fill:none;stroke:#263238;strokeWidth:0.5;stroke-miterlimit:10;" x1="695.629" y1="422.024" x2="702.354" y2="417.851"/>
				</g>
				<g>
					<line style="fill:none;stroke:#263238;stroke-miterlimit:10;" x1="695.435" y1="394.427" x2="700.372" y2="389.206"/>
					<path style="fill:#92E3A9;stroke:#263238;stroke-miterlimit:10;" d="M698.872,390.77c0,0-0.143-2.308,1.964-4.192
						c1.267-1.133,7.94-3.945,8.574-1.595C710.101,387.539,703.273,392.564,698.872,390.77z"/>
					
						<line style="fill:none;stroke:#263238;strokeWidth:0.5;stroke-miterlimit:10;" x1="698.872" y1="390.77" x2="705.597" y2="386.597"/>
				</g>
				<g>
					
						<line style="fill:none;stroke:#263238;strokeWidth:2;stroke-miterlimit:10;" x1="696.86" y1="380.692" x2="701.797" y2="375.471"/>
					<path style="fill:#92E3A9;stroke:#263238;stroke-miterlimit:10;" d="M700.297,377.035c0,0-0.143-2.308,1.964-4.192
						c1.267-1.133,7.94-3.945,8.574-1.595C711.526,373.805,704.698,378.829,700.297,377.035z"/>
					
						<line style="fill:none;stroke:#263238;strokeWidth:0.5;stroke-miterlimit:10;" x1="700.297" y1="377.035" x2="707.022" y2="372.862"/>
				</g>
				<g>
					<line style="fill:none;stroke:#263238;stroke-miterlimit:10;" x1="698.949" y1="360.556" x2="703.887" y2="355.335"/>
					<path style="fill:#92E3A9;stroke:#263238;stroke-miterlimit:10;" d="M702.387,356.9c0,0-0.143-2.308,1.964-4.192
						c1.268-1.133,7.94-3.945,8.575-1.595C713.615,353.669,706.787,358.694,702.387,356.9z"/>
					
						<line style="fill:none;stroke:#263238;strokeWidth:0.5;stroke-miterlimit:10;" x1="702.387" y1="356.9" x2="709.111" y2="352.727"/>
					<path style="fill:#92E3A9;stroke:#263238;stroke-miterlimit:10;" d="M700.028,347.628c0,0-0.143-2.308,1.964-4.192
						c1.267-1.133,7.94-3.945,8.575-1.595C711.256,344.398,704.428,349.423,700.028,347.628z"/>
					
						<line style="fill:none;stroke:#263238;strokeWidth:0.5;stroke-miterlimit:10;" x1="700.028" y1="347.628" x2="706.752" y2="343.455"/>
					<path style="fill:#92E3A9;stroke:#263238;stroke-miterlimit:10;" d="M700.303,347.927c0,0-2.31-0.1-3.963-2.393
						c-0.994-1.379-3.09-8.31-0.687-8.694C698.268,336.422,702.549,343.739,700.303,347.927z"/>
					
						<line style="fill:none;stroke:#263238;strokeWidth:0.5;stroke-miterlimit:10;" x1="700.303" y1="347.927" x2="696.859" y2="340.802"/>
				</g>
			</g>
		</g>
		<line style="fill:none;stroke:#263238;stroke-miterlimit:10;" x1="687.58" y1="305.69" x2="687.58" y2="437.749"/>
		<g>
			<g>
				<line style="fill:none;stroke:#263238;stroke-miterlimit:10;" x1="687.685" y1="417.893" x2="683.313" y2="412.19"/>
				<path style="fill:#92E3A9;stroke:#263238;stroke-miterlimit:10;" d="M684.643,413.901c0,0,0.38-2.281-1.521-4.372
					c-1.144-1.258-7.49-4.743-8.364-2.471C673.808,409.529,680.081,415.232,684.643,413.901z"/>
				
					<line style="fill:none;stroke:#263238;strokeWidth:0.5;stroke-miterlimit:10;" x1="684.643" y1="413.901" x2="678.735" y2="409.304"/>
			</g>
			<g>
				<line style="fill:none;stroke:#263238;stroke-miterlimit:10;" x1="687.685" y1="393.076" x2="683.313" y2="387.373"/>
				<path style="fill:#92E3A9;stroke:#263238;stroke-miterlimit:10;" d="M684.643,389.084c0,0,0.38-2.281-1.521-4.372
					c-1.144-1.258-7.49-4.743-8.364-2.471C673.808,384.712,680.081,390.414,684.643,389.084z"/>
				<line style="fill:none;stroke:#263238;stroke-miterlimit:10;" x1="684.643" y1="389.084" x2="678.735" y2="384.486"/>
			</g>
			<g>
				<line style="fill:none;stroke:#263238;stroke-miterlimit:10;" x1="687.685" y1="363.939" x2="683.313" y2="358.236"/>
				<path style="fill:#92E3A9;stroke:#263238;stroke-miterlimit:10;" d="M684.643,359.947c0,0,0.38-2.281-1.521-4.372
					c-1.144-1.258-7.49-4.743-8.364-2.471C673.808,355.575,680.081,361.277,684.643,359.947z"/>
				
					<line style="fill:none;stroke:#263238;strokeWidth:0.5;stroke-miterlimit:10;" x1="684.643" y1="359.947" x2="678.735" y2="355.349"/>
			</g>
			<g>
				<line style="fill:none;stroke:#263238;stroke-miterlimit:10;" x1="687.685" y1="344.542" x2="683.313" y2="338.839"/>
				<path style="fill:#92E3A9;stroke:#263238;stroke-miterlimit:10;" d="M684.643,340.55c0,0,0.38-2.281-1.521-4.372
					c-1.144-1.258-7.49-4.743-8.364-2.471C673.808,336.178,680.081,341.881,684.643,340.55z"/>
				
					<line style="fill:none;stroke:#263238;strokeWidth:0.5;stroke-miterlimit:10;" x1="684.643" y1="340.55" x2="678.735" y2="335.953"/>
			</g>
			<g>
				<line style="fill:none;stroke:#263238;stroke-miterlimit:10;" x1="687.685" y1="325.061" x2="683.313" y2="319.358"/>
				<path style="fill:#92E3A9;stroke:#263238;stroke-miterlimit:10;" d="M684.643,321.069c0,0,0.38-2.281-1.521-4.372
					c-1.144-1.258-7.49-4.743-8.364-2.471C673.808,316.697,680.081,322.4,684.643,321.069z"/>
				<line style="fill:none;stroke:#263238;stroke-miterlimit:10;" x1="684.643" y1="321.069" x2="678.735" y2="316.471"/>
			</g>
			<g>
				<line style="fill:none;stroke:#263238;stroke-miterlimit:10;" x1="687.589" y1="425.471" x2="691.961" y2="419.769"/>
				<path style="fill:#92E3A9;stroke:#263238;stroke-miterlimit:10;" d="M690.63,421.479c0,0-0.38-2.281,1.521-4.372
					c1.144-1.258,7.49-4.743,8.364-2.471C701.465,417.107,695.192,422.81,690.63,421.479z"/>
				
					<line style="fill:none;stroke:#263238;strokeWidth:0.5;stroke-miterlimit:10;" x1="690.63" y1="421.479" x2="696.888" y2="416.635"/>
			</g>
			<g>
				<line style="fill:none;stroke:#263238;stroke-miterlimit:10;" x1="687.589" y1="386.001" x2="691.961" y2="380.298"/>
				<path style="fill:#92E3A9;stroke:#263238;stroke-miterlimit:10;" d="M690.63,382.009c0,0-0.38-2.281,1.521-4.372
					c1.144-1.258,7.49-4.743,8.364-2.471C701.465,377.637,695.192,383.34,690.63,382.009z"/>
				
					<line style="fill:none;stroke:#263238;strokeWidth:0.5;stroke-miterlimit:10;" x1="690.63" y1="382.009" x2="696.888" y2="377.164"/>
			</g>
			<g>
				<line style="fill:none;stroke:#263238;stroke-miterlimit:10;" x1="687.589" y1="366.52" x2="691.961" y2="360.817"/>
				<path style="fill:#92E3A9;stroke:#263238;stroke-miterlimit:10;" d="M690.63,362.528c0,0-0.38-2.281,1.521-4.372
					c1.144-1.258,7.49-4.743,8.364-2.471C701.465,358.155,695.192,363.858,690.63,362.528z"/>
				
					<line style="fill:none;stroke:#263238;strokeWidth:0.5;stroke-miterlimit:10;" x1="690.63" y1="362.528" x2="696.888" y2="357.683"/>
			</g>
			<g>
				<line style="fill:none;stroke:#263238;stroke-miterlimit:10;" x1="687.589" y1="340.771" x2="691.961" y2="335.068"/>
				<path style="fill:#92E3A9;stroke:#263238;stroke-miterlimit:10;" d="M690.63,336.779c0,0-0.38-2.281,1.521-4.372
					c1.144-1.258,7.49-4.743,8.364-2.471C701.465,332.406,695.192,338.109,690.63,336.779z"/>
				
					<line style="fill:none;stroke:#263238;strokeWidth:0.5;stroke-miterlimit:10;" x1="690.63" y1="336.779" x2="696.888" y2="331.934"/>
			</g>
			<g>
				<line style="fill:none;stroke:#263238;stroke-miterlimit:10;" x1="687.589" y1="320.527" x2="691.961" y2="314.824"/>
				<path style="fill:#92E3A9;stroke:#263238;stroke-miterlimit:10;" d="M690.63,316.535c0,0-0.38-2.281,1.521-4.372
					c1.144-1.258,7.49-4.743,8.364-2.471C701.465,312.163,695.192,317.866,690.63,316.535z"/>
				
					<line style="fill:none;stroke:#263238;strokeWidth:0.5;stroke-miterlimit:10;" x1="690.63" y1="316.535" x2="696.888" y2="311.69"/>
				<path style="fill:#92E3A9;stroke:#263238;stroke-miterlimit:10;" d="M687.327,307.557c0,0-0.38-2.281,1.521-4.372
					c1.144-1.258,7.49-4.743,8.364-2.471C698.162,303.185,691.889,308.887,687.327,307.557z"/>
				
					<line style="fill:none;stroke:#263238;strokeWidth:0.5;stroke-miterlimit:10;" x1="687.327" y1="307.557" x2="693.585" y2="302.712"/>
				<path style="fill:#92E3A9;stroke:#263238;stroke-miterlimit:10;" d="M687.632,307.826c0,0-2.309,0.139-4.189-1.971
					c-1.131-1.269-3.932-7.946-1.58-8.577C684.42,296.592,689.434,303.428,687.632,307.826z"/>
				
					<line style="fill:none;stroke:#263238;strokeWidth:0.5;stroke-miterlimit:10;" x1="687.632" y1="307.826" x2="683.47" y2="301.094"/>
			</g>
		</g>
		<polygon style="fill:#263238;stroke:#263238;stroke-miterlimit:10;" points="693.013,472 679.027,472 677.279,436.679 
			694.761,436.679 		"/>
	</g>
</g>
<g id="Windows">
	<g>
		<g>
			
				<rect x="56" y="55" style="fill:none;stroke:#B2B2B2;strokeLinecap:round;strokeLinejoin:round;stroke-miterlimit:10;" width="92.601" height="62.66"/>
			
				<rect x="154.091" y="55" style="fill:none;stroke:#B2B2B2;strokeLinecap:round;strokeLinejoin:round;stroke-miterlimit:10;" width="92.601" height="62.66"/>
		</g>
		<g>
			
				<rect x="289.154" y="55" style="fill:none;stroke:#B2B2B2;strokeLinecap:round;strokeLinejoin:round;stroke-miterlimit:10;" width="92.601" height="62.66"/>
			
				<rect x="387.245" y="55" style="fill:none;stroke:#B2B2B2;strokeLinecap:round;strokeLinejoin:round;stroke-miterlimit:10;" width="92.601" height="62.66"/>
		</g>
		<g>
			
				<rect x="522.308" y="55" style="fill:none;stroke:#B2B2B2;strokeLinecap:round;strokeLinejoin:round;stroke-miterlimit:10;" width="92.601" height="62.66"/>
			
				<rect x="620.399" y="55" style="fill:none;stroke:#B2B2B2;strokeLinecap:round;strokeLinejoin:round;stroke-miterlimit:10;" width="92.601" height="62.66"/>
		</g>
	</g>
</g>
<g id="Boxes">
	<g>
		<g>
			
				<rect x="418.071" y="381.901" style="fill:#FFFFFF;stroke:#B2B2B2;strokeLinecap:round;strokeLinejoin:round;stroke-miterlimit:10;" width="71.859" height="76.887"/>
			<rect x="423.725" y="381.901" style="fill:#B2B2B2;stroke:#B2B2B2;stroke-miterlimit:10;" width="6.527" height="27.974"/>
		</g>
		<g>
			
				<rect x="489.87" y="381.901" style="fill:#FFFFFF;stroke:#B2B2B2;strokeLinecap:round;strokeLinejoin:round;stroke-miterlimit:10;" width="71.859" height="76.887"/>
			<rect x="495.524" y="381.901" style="fill:#B2B2B2;stroke:#B2B2B2;stroke-miterlimit:10;" width="6.527" height="27.974"/>
		</g>
		<g>
			
				<rect x="418.071" y="304.506" style="fill:#FFFFFF;stroke:#B2B2B2;strokeLinecap:round;strokeLinejoin:round;stroke-miterlimit:10;" width="71.859" height="76.887"/>
			<rect x="423.725" y="304.506" style="fill:#B2B2B2;stroke:#B2B2B2;stroke-miterlimit:10;" width="6.527" height="27.974"/>
		</g>
		<g>
			
				<rect x="489.87" y="304.506" style="fill:#FFFFFF;stroke:#B2B2B2;strokeLinecap:round;strokeLinejoin:round;stroke-miterlimit:10;" width="71.859" height="76.887"/>
			<rect x="495.524" y="304.506" style="fill:#B2B2B2;stroke:#B2B2B2;stroke-miterlimit:10;" width="6.527" height="27.974"/>
		</g>
		<g>
			
				<rect x="415.315" y="468.326" style="fill:#FFFFFF;stroke:#B2B2B2;strokeLinecap:round;strokeLinejoin:round;stroke-miterlimit:10;" width="153.848" height="3.674"/>
			
				<rect x="415.315" y="455.008" style="fill:#FFFFFF;stroke:#B2B2B2;strokeLinecap:round;strokeLinejoin:round;stroke-miterlimit:10;" width="153.848" height="3.674"/>
			
				<rect x="418.071" y="458.788" style="fill:#FFFFFF;stroke:#B2B2B2;strokeLinecap:round;strokeLinejoin:round;stroke-miterlimit:10;" width="11.94" height="9.321"/>
			
				<rect x="484.299" y="458.788" style="fill:#FFFFFF;stroke:#B2B2B2;strokeLinecap:round;strokeLinejoin:round;stroke-miterlimit:10;" width="11.94" height="9.321"/>
			
				<rect x="550.527" y="458.788" style="fill:#FFFFFF;stroke:#B2B2B2;strokeLinecap:round;strokeLinejoin:round;stroke-miterlimit:10;" width="11.94" height="9.321"/>
		</g>
	</g>
	<g>
		<g>
			
				<rect x="261.071" y="381.901" style="fill:#FFFFFF;stroke:#B2B2B2;strokeLinecap:round;strokeLinejoin:round;stroke-miterlimit:10;" width="71.859" height="76.887"/>
			<rect x="266.725" y="381.901" style="fill:#B2B2B2;stroke:#B2B2B2;stroke-miterlimit:10;" width="6.527" height="27.974"/>
		</g>
		<g>
			
				<rect x="332.87" y="381.901" style="fill:#FFFFFF;stroke:#B2B2B2;strokeLinecap:round;strokeLinejoin:round;stroke-miterlimit:10;" width="71.859" height="76.887"/>
			<rect x="338.524" y="381.901" style="fill:#B2B2B2;stroke:#B2B2B2;stroke-miterlimit:10;" width="6.527" height="27.974"/>
		</g>
		<g>
			
				<rect x="261.071" y="304.506" style="fill:#FFFFFF;stroke:#B2B2B2;strokeLinecap:round;strokeLinejoin:round;stroke-miterlimit:10;" width="71.859" height="76.887"/>
			<rect x="266.725" y="304.506" style="fill:#B2B2B2;stroke:#B2B2B2;stroke-miterlimit:10;" width="6.527" height="27.974"/>
		</g>
		<g>
			
				<rect x="332.87" y="304.506" style="fill:#FFFFFF;stroke:#B2B2B2;strokeLinecap:round;strokeLinejoin:round;stroke-miterlimit:10;" width="71.859" height="76.887"/>
			<rect x="338.524" y="304.506" style="fill:#B2B2B2;stroke:#B2B2B2;stroke-miterlimit:10;" width="6.527" height="27.974"/>
		</g>
		<g>
			
				<rect x="258.315" y="468.326" style="fill:#FFFFFF;stroke:#B2B2B2;strokeLinecap:round;strokeLinejoin:round;stroke-miterlimit:10;" width="153.848" height="3.674"/>
			
				<rect x="258.315" y="455.008" style="fill:#FFFFFF;stroke:#B2B2B2;strokeLinecap:round;strokeLinejoin:round;stroke-miterlimit:10;" width="153.848" height="3.674"/>
			
				<rect x="261.071" y="458.788" style="fill:#FFFFFF;stroke:#B2B2B2;strokeLinecap:round;strokeLinejoin:round;stroke-miterlimit:10;" width="11.94" height="9.321"/>
			
				<rect x="327.299" y="458.788" style="fill:#FFFFFF;stroke:#B2B2B2;strokeLinecap:round;strokeLinejoin:round;stroke-miterlimit:10;" width="11.94" height="9.321"/>
			
				<rect x="393.527" y="458.788" style="fill:#FFFFFF;stroke:#B2B2B2;strokeLinecap:round;strokeLinejoin:round;stroke-miterlimit:10;" width="11.94" height="9.321"/>
		</g>
	</g>
	<g>
		<g>
			
				<rect x="104.071" y="381.901" style="fill:#FFFFFF;stroke:#B2B2B2;strokeLinecap:round;strokeLinejoin:round;stroke-miterlimit:10;" width="71.859" height="76.887"/>
			<rect x="109.725" y="381.901" style="fill:#B2B2B2;stroke:#B2B2B2;stroke-miterlimit:10;" width="6.527" height="27.974"/>
		</g>
		<g>
			
				<rect x="175.87" y="381.901" style="fill:#FFFFFF;stroke:#B2B2B2;strokeLinecap:round;strokeLinejoin:round;stroke-miterlimit:10;" width="71.859" height="76.887"/>
			<rect x="181.524" y="381.901" style="fill:#B2B2B2;stroke:#B2B2B2;stroke-miterlimit:10;" width="6.527" height="27.974"/>
		</g>
		<g>
			
				<rect x="104.071" y="304.506" style="fill:#FFFFFF;stroke:#B2B2B2;strokeLinecap:round;strokeLinejoin:round;stroke-miterlimit:10;" width="71.859" height="76.887"/>
			<rect x="109.725" y="304.506" style="fill:#B2B2B2;stroke:#B2B2B2;stroke-miterlimit:10;" width="6.527" height="27.974"/>
		</g>
		<g>
			
				<rect x="175.87" y="304.506" style="fill:#FFFFFF;stroke:#B2B2B2;strokeLinecap:round;strokeLinejoin:round;stroke-miterlimit:10;" width="71.859" height="76.887"/>
			<rect x="181.524" y="304.506" style="fill:#B2B2B2;stroke:#B2B2B2;stroke-miterlimit:10;" width="6.527" height="27.974"/>
		</g>
		<g>
			
				<rect x="104.071" y="228.506" style="fill:#FFFFFF;stroke:#B2B2B2;strokeLinecap:round;strokeLinejoin:round;stroke-miterlimit:10;" width="71.859" height="76.887"/>
			<rect x="109.725" y="228.506" style="fill:#B2B2B2;stroke:#B2B2B2;stroke-miterlimit:10;" width="6.527" height="27.974"/>
		</g>
		<g>
			
				<rect x="175.87" y="228.506" style="fill:#FFFFFF;stroke:#B2B2B2;strokeLinecap:round;strokeLinejoin:round;stroke-miterlimit:10;" width="71.859" height="76.887"/>
			<rect x="181.524" y="228.506" style="fill:#B2B2B2;stroke:#B2B2B2;stroke-miterlimit:10;" width="6.527" height="27.974"/>
		</g>
		<g>
			
				<rect x="101.315" y="468.326" style="fill:#FFFFFF;stroke:#B2B2B2;strokeLinecap:round;strokeLinejoin:round;stroke-miterlimit:10;" width="153.848" height="3.674"/>
			
				<rect x="101.315" y="455.008" style="fill:#FFFFFF;stroke:#B2B2B2;strokeLinecap:round;strokeLinejoin:round;stroke-miterlimit:10;" width="153.848" height="3.674"/>
			
				<rect x="104.071" y="458.788" style="fill:#FFFFFF;stroke:#B2B2B2;strokeLinecap:round;strokeLinejoin:round;stroke-miterlimit:10;" width="11.94" height="9.321"/>
			
				<rect x="170.299" y="458.788" style="fill:#FFFFFF;stroke:#B2B2B2;strokeLinecap:round;strokeLinejoin:round;stroke-miterlimit:10;" width="11.94" height="9.321"/>
			
				<rect x="236.527" y="458.788" style="fill:#FFFFFF;stroke:#B2B2B2;strokeLinecap:round;strokeLinejoin:round;stroke-miterlimit:10;" width="11.94" height="9.321"/>
		</g>
	</g>
</g>
<g id="Screen">
	<g>
		<g>
			
				<rect x="394.342" y="27.154" style="fill:#E8E8E8;stroke:#263238;strokeLinecap:round;strokeLinejoin:round;stroke-miterlimit:10;" width="273.08" height="213.669"/>
			
				<rect x="394.342" y="27.154" style="fill:#263238;stroke:#263238;strokeLinecap:round;strokeLinejoin:round;stroke-miterlimit:10;" width="273.08" height="9.667"/>
			<path style="fill:#FFFFFF;stroke:#263238;strokeLinecap:round;strokeLinejoin:round;stroke-miterlimit:10;" d="M645.342,31.566
				c0-1.368-1.109-2.477-2.477-2.477c-1.368,0-2.477,1.109-2.477,2.477c0,1.368,1.109,2.477,2.477,2.477
				C644.233,34.043,645.342,32.934,645.342,31.566z"/>
			<path style="fill:#FFFFFF;stroke:#263238;strokeLinecap:round;strokeLinejoin:round;stroke-miterlimit:10;" d="M653.956,31.566
				c0-1.368-1.109-2.477-2.477-2.477c-1.368,0-2.477,1.109-2.477,2.477c0,1.368,1.109,2.477,2.477,2.477
				C652.847,34.043,653.956,32.934,653.956,31.566z"/>
			<path style="fill:#FFFFFF;stroke:#263238;strokeLinecap:round;strokeLinejoin:round;stroke-miterlimit:10;" d="M662.569,31.566
				c0-1.368-1.109-2.477-2.477-2.477c-1.368,0-2.477,1.109-2.477,2.477c0,1.368,1.109,2.477,2.477,2.477
				C661.461,34.043,662.569,32.934,662.569,31.566z"/>
			<g>
				<path style="fill:#263238;" d="M411.632,63.611h-1.454V49.066h2.057l3.366,10.514V49.066h1.434v14.545h-1.683l-3.721-11.761
					V63.611z"/>
				<path style="fill:#263238;" d="M423.873,55.507v1.454h-3.553v5.174h4.364v1.476h-5.985V49.066h5.985v1.475h-4.364v4.967H423.873
					z"/>
				<path style="fill:#263238;" d="M430.047,63.611h-2.223l-1.995-14.545h1.579l1.704,12.384l1.621-12.364h1.6l1.6,12.384
					l1.641-12.405h1.412l-1.974,14.545h-2.139l-1.392-9.87L430.047,63.611z"/>
				<path style="fill:#263238;" d="M446.695,55.507v1.454h-3.553v5.174h4.364v1.476h-5.985V49.066h5.985v1.475h-4.364v4.967H446.695
					z"/>
				<path style="fill:#263238;" d="M450.436,63.611h-1.454V49.066h2.057l3.367,10.514V49.066h1.434v14.545h-1.684l-3.719-11.761
					V63.611z"/>
				<path style="fill:#263238;" d="M459.603,63.611v-13.07h-2.681v-1.475h6.961v1.475h-2.68v13.07H459.603z"/>
				<path style="fill:#263238;" d="M468.227,49.066c2.286,0,3.241,1.164,3.241,3.325v1.184c0,1.6-0.561,2.598-1.808,2.992
					c1.33,0.395,1.829,1.475,1.829,3.034v2.265c0,0.644,0.021,1.247,0.291,1.745h-1.641c-0.188-0.415-0.27-0.789-0.27-1.766v-2.286
					c0-1.641-0.769-2.161-2.12-2.161h-1.142v6.213h-1.621V49.066H468.227z M467.812,55.923c1.289,0,2.058-0.415,2.058-1.995v-1.392
					c0-1.309-0.478-1.995-1.684-1.995h-1.579v5.382H467.812z"/>
				<path style="fill:#263238;" d="M474.796,49.066v14.545h-1.621V49.066H474.796z"/>
				<path style="fill:#263238;" d="M481.633,55.507v1.454h-3.553v5.174h4.364v1.476h-5.985V49.066h5.985v1.475h-4.364v4.967H481.633
					z"/>
				<path style="fill:#263238;" d="M490.238,52.557v0.395H488.7v-0.478c0-1.309-0.499-2.078-1.663-2.078
					c-1.163,0-1.663,0.769-1.663,2.057c0,3.262,4.884,3.574,4.884,7.667c0,2.202-1.06,3.637-3.284,3.637
					c-2.223,0-3.262-1.434-3.262-3.637v-0.831h1.516v0.915c0,1.309,0.54,2.078,1.704,2.078c1.164,0,1.704-0.769,1.704-2.078
					c0-3.242-4.862-3.553-4.862-7.646c0-2.244,1.038-3.637,3.22-3.637C489.199,48.92,490.238,50.354,490.238,52.557z"/>
			</g>
			<path style="fill:#D9D9D9;stroke:#263238;strokeLinecap:round;strokeLinejoin:round;stroke-miterlimit:10;" d="M501.308,90.822
				h-88.601c-1.927,0-3.488-1.562-3.488-3.488V74.776c0-1.927,1.562-3.488,3.488-3.488h88.601c1.927,0,3.488,1.562,3.488,3.488
				v12.558C504.797,89.26,503.235,90.822,501.308,90.822z"/>
			<path style="fill:#D9D9D9;stroke:#263238;strokeLinecap:round;strokeLinejoin:round;stroke-miterlimit:10;" d="
				M457.425,230.896h-45.844c-1.305,0-2.362-1.057-2.362-2.362v-12.206c0-1.305,1.058-2.362,2.362-2.362h45.844
				c1.305,0,2.362,1.058,2.362,2.362v12.206C459.787,229.839,458.73,230.896,457.425,230.896z"/>
			<path style="fill:#263238;stroke:#263238;strokeLinecap:round;strokeLinejoin:round;stroke-miterlimit:10;" d="
				M519.954,230.896H474.11c-1.305,0-2.362-1.057-2.362-2.362v-12.206c0-1.305,1.057-2.362,2.362-2.362h45.844
				c1.305,0,2.362,1.058,2.362,2.362v12.206C522.316,229.839,521.258,230.896,519.954,230.896z"/>
			<path style="fill:#D9D9D9;stroke:#263238;strokeLinecap:round;strokeLinejoin:round;stroke-miterlimit:10;" d="
				M650.604,123.099H412.708c-1.927,0-3.488-1.562-3.488-3.488v-12.558c0-1.926,1.562-3.488,3.488-3.488h237.896
				c1.927,0,3.488,1.562,3.488,3.488v12.558C654.092,121.537,652.531,123.099,650.604,123.099z"/>
			
				<rect x="584.918" y="132.016" style="fill:#FFFFFF;stroke:#263238;strokeLinecap:round;strokeLinejoin:round;stroke-miterlimit:10;" width="69.175" height="68.756"/>
			
				<rect x="409.219" y="132.016" style="fill:#FFFFFF;stroke:#263238;strokeLinecap:round;strokeLinejoin:round;stroke-miterlimit:10;" width="169.7" height="68.756"/>
			
				<line style="fill:none;stroke:#263238;strokeLinecap:round;strokeLinejoin:round;stroke-miterlimit:10;" x1="589.663" y1="143.178" x2="645.721" y2="143.178"/>
			
				<line style="fill:none;stroke:#263238;strokeLinecap:round;strokeLinejoin:round;stroke-miterlimit:10;" x1="415.498" y1="143.178" x2="574.539" y2="143.178"/>
			
				<line style="fill:none;stroke:#263238;strokeLinecap:round;strokeLinejoin:round;stroke-miterlimit:10;" x1="590.108" y1="157.829" x2="645.721" y2="157.829"/>
			
				<line style="fill:none;stroke:#263238;strokeLinecap:round;strokeLinejoin:round;stroke-miterlimit:10;" x1="415.498" y1="157.829" x2="574.983" y2="157.829"/>
			
				<line style="fill:none;stroke:#263238;strokeLinecap:round;strokeLinejoin:round;stroke-miterlimit:10;" x1="590.108" y1="172.48" x2="645.721" y2="172.48"/>
			
				<line style="fill:none;stroke:#263238;strokeLinecap:round;strokeLinejoin:round;stroke-miterlimit:10;" x1="415.498" y1="172.48" x2="574.983" y2="172.48"/>
			
				<line style="fill:none;stroke:#263238;strokeLinecap:round;strokeLinejoin:round;stroke-miterlimit:10;" x1="590.108" y1="187.13" x2="645.721" y2="187.13"/>
			
				<line style="fill:none;stroke:#263238;strokeLinecap:round;strokeLinejoin:round;stroke-miterlimit:10;" x1="415.498" y1="187.13" x2="574.983" y2="187.13"/>
			<g>
				<g>
					<path style="fill:#263238;" d="M585.761,75.412c1.308,0,1.907,0.791,1.907,2.087v4.234c0,1.283-0.6,2.075-1.907,2.075h-1.967
						v-8.396H585.761z M585.749,82.956c0.672,0,0.995-0.42,0.995-1.188v-4.317c0-0.768-0.323-1.188-1.007-1.188h-1.008v6.692
						H585.749z"/>
					<path style="fill:#263238;" d="M589.481,82.117l-0.323,1.691h-0.863l1.607-8.396h1.355l1.607,8.396h-0.935l-0.324-1.691
						H589.481z M589.601,81.313h1.871l-0.947-4.845L589.601,81.313z"/>
					<path style="fill:#263238;" d="M594.821,83.808v-7.544h-1.547v-0.852h4.029v0.852h-1.547v7.544H594.821z"/>
					<path style="fill:#263238;" d="M600.94,79.13v0.839h-2.051v2.986h2.519v0.852h-3.454v-8.396h3.454v0.852h-2.519v2.867H600.94z"
						/>
				</g>
				
					<rect x="606.312" y="74.005" style="fill:#FFFFFF;stroke:#263238;strokeLinecap:round;strokeLinejoin:round;stroke-miterlimit:10;" width="13.196" height="13.196"/>
				
					<rect x="624.032" y="74.005" style="fill:#FFFFFF;stroke:#263238;strokeLinecap:round;strokeLinejoin:round;stroke-miterlimit:10;" width="13.196" height="13.196"/>
				
					<rect x="641.752" y="74.005" style="fill:#FFFFFF;stroke:#263238;strokeLinecap:round;strokeLinejoin:round;stroke-miterlimit:10;" width="13.196" height="13.196"/>
			</g>
		</g>
		<g>
			<polyline style="fill:none;stroke:#263238;strokeLinecap:round;strokeLinejoin:round;stroke-miterlimit:10;" points="
				482.218,248.518 528.625,248.518 573.917,299.667 542.986,248.518 594.543,248.518 			"/>
			
				<line style="fill:#FFFFFF;stroke:#263238;strokeLinecap:round;strokeLinejoin:round;stroke-miterlimit:10;" x1="474.133" y1="248.518" x2="477.973" y2="248.518"/>
		</g>
	</g>
</g>
<g id="Character">
	<g>
		<g>
			<g>
				<path style="fill:#FFFFFF;stroke:#263238;strokeLinecap:round;strokeLinejoin:round;stroke-miterlimit:10;" d="
					M590.795,454.84c0,0-4.736,7.612-6.09,8.796c-1.353,1.184-4.736,3.721-6.09,5.075c-1.353,1.353,0.338,3.045,1.861,3.214
					c1.522,0.169,19.961,0,19.961,0s2.03-0.338,2.199-1.353c0.169-1.015,1.015-4.06-0.169-6.766
					c-1.184-2.707-1.184-5.751-1.184-5.751l0.338-0.846l-0.338-2.03L590.795,454.84z"/>
				<path style="fill:#FFFFFF;stroke:#263238;strokeLinecap:round;strokeLinejoin:round;stroke-miterlimit:10;" d="
					M580.476,471.925c1.522,0.169,19.961,0,19.961,0s2.03-0.338,2.199-1.353c0.108-0.651,0.493-2.138,0.444-3.834
					c-2.792,0.828-5.619,1.973-5.619,1.973h-18.845C577.262,470.064,578.954,471.756,580.476,471.925z"/>
				
					<line style="fill:#FFFFFF;stroke:#263238;strokeLinecap:round;strokeLinejoin:round;stroke-miterlimit:10;" x1="598.332" y1="466.986" x2="597.026" y2="471.559"/>
				<g>
					<path style="fill:#FFFFFF;stroke:#263238;strokeLinecap:round;strokeLinejoin:round;stroke-miterlimit:10;" d="
						M592.887,464.911c-0.103,0-0.207-0.021-0.307-0.065c-3.508-1.56-5.796-0.494-5.893-0.448c-0.372,0.18-0.826,0.027-1.011-0.347
						c-0.183-0.373-0.033-0.824,0.339-1.01c0.12-0.06,2.983-1.444,7.179,0.421c0.382,0.17,0.554,0.617,0.384,0.999
						C593.454,464.744,593.177,464.911,592.887,464.911z"/>
				</g>
				<g>
					<path style="fill:#FFFFFF;stroke:#263238;strokeLinecap:round;strokeLinejoin:round;stroke-miterlimit:10;" d="
						M593.54,462.952c-0.103,0-0.207-0.021-0.307-0.065c-3.508-1.561-5.797-0.495-5.892-0.449c-0.376,0.18-0.827,0.024-1.01-0.348
						c-0.183-0.373-0.033-0.823,0.339-1.009c0.12-0.06,2.981-1.444,7.18,0.421c0.382,0.17,0.554,0.617,0.384,0.999
						C594.107,462.784,593.831,462.952,593.54,462.952z"/>
				</g>
				<g>
					<path style="fill:#FFFFFF;stroke:#263238;strokeLinecap:round;strokeLinejoin:round;stroke-miterlimit:10;" d="
						M594.194,460.991c-0.103,0-0.207-0.021-0.307-0.065c-3.508-1.561-5.796-0.494-5.892-0.448c-0.372,0.18-0.826,0.026-1.011-0.347
						c-0.183-0.373-0.033-0.824,0.339-1.01c0.12-0.061,2.983-1.445,7.18,0.421c0.382,0.17,0.554,0.617,0.385,0.999
						C594.761,460.824,594.484,460.991,594.194,460.991z"/>
				</g>
			</g>
			<g>
				<path style="fill:#FFFFFF;stroke:#263238;strokeLinecap:round;strokeLinejoin:round;stroke-miterlimit:10;" d="
					M642.166,454.84c0,0,4.736,7.612,6.09,8.796c1.353,1.184,4.736,3.721,6.09,5.075c1.353,1.353-0.338,3.045-1.861,3.214
					c-1.522,0.169-19.961,0-19.961,0s-2.03-0.338-2.199-1.353c-0.169-1.015-1.015-4.06,0.169-6.766
					c1.184-2.707,1.184-5.751,1.184-5.751l-0.338-0.846l0.338-2.03L642.166,454.84z"/>
				<path style="fill:#FFFFFF;stroke:#263238;strokeLinecap:round;strokeLinejoin:round;stroke-miterlimit:10;" d="
					M652.485,471.925c-1.522,0.169-19.961,0-19.961,0s-2.03-0.338-2.199-1.353c-0.109-0.651-0.493-2.138-0.444-3.834
					c2.792,0.828,5.619,1.973,5.619,1.973h18.846C655.699,470.064,654.007,471.756,652.485,471.925z"/>
				
					<line style="fill:#FFFFFF;stroke:#263238;strokeLinecap:round;strokeLinejoin:round;stroke-miterlimit:10;" x1="634.629" y1="466.986" x2="635.936" y2="471.559"/>
				<g>
					<path style="fill:#FFFFFF;stroke:#263238;strokeLinecap:round;strokeLinejoin:round;stroke-miterlimit:10;" d="
						M640.074,464.911c0.103,0,0.207-0.021,0.307-0.065c3.508-1.56,5.796-0.494,5.892-0.448c0.372,0.18,0.826,0.027,1.011-0.347
						c0.183-0.373,0.033-0.824-0.339-1.01c-0.12-0.06-2.983-1.444-7.18,0.421c-0.382,0.17-0.554,0.617-0.384,0.999
						C639.507,464.744,639.784,464.911,640.074,464.911z"/>
				</g>
				<g>
					<path style="fill:#FFFFFF;stroke:#263238;strokeLinecap:round;strokeLinejoin:round;stroke-miterlimit:10;" d="
						M639.421,462.952c0.103,0,0.207-0.021,0.307-0.065c3.508-1.561,5.797-0.495,5.892-0.449c0.376,0.18,0.827,0.024,1.011-0.348
						c0.183-0.373,0.033-0.823-0.339-1.009c-0.12-0.06-2.981-1.444-7.18,0.421c-0.382,0.17-0.554,0.617-0.384,0.999
						C638.854,462.784,639.13,462.952,639.421,462.952z"/>
				</g>
				<g>
					<path style="fill:#FFFFFF;stroke:#263238;strokeLinecap:round;strokeLinejoin:round;stroke-miterlimit:10;" d="
						M638.767,460.991c0.103,0,0.207-0.021,0.307-0.065c3.509-1.561,5.796-0.494,5.893-0.448c0.372,0.18,0.826,0.026,1.01-0.347
						c0.183-0.373,0.033-0.824-0.339-1.01c-0.12-0.061-2.983-1.445-7.18,0.421c-0.382,0.17-0.554,0.617-0.384,0.999
						C638.2,460.824,638.477,460.991,638.767,460.991z"/>
				</g>
			</g>
			<g>
				<path style="fill:#263238;stroke:#263238;strokeLinecap:round;strokeLinejoin:round;stroke-miterlimit:10;" d="
					M644.778,450.174c-0.141-0.511-0.287-1.017-0.425-1.513c-1.386-5.002-1.752-10.221-2.111-15.399
					c-2.333-33.644-4.665-67.289-6.998-100.933c0.079,1.144-33.191,0.444-36.166,0.396c-6.782-0.109-6.351,1.727-6.516,8.295
					c-0.169,6.71-0.326,13.421-0.459,20.132c-0.512,25.726-0.737,51.457-0.675,77.188c0.005,2.103,0.008,4.24-0.571,6.262
					c-0.46,1.606-1.273,3.091-1.78,4.682c-0.854,2.683-0.795,5.648,0.165,8.296c4.385-0.139,8.798,0.665,12.853,2.342
					c2.504-4.877,3.165-10.461,3.787-15.908c2.998-26.28,5.995-52.559,8.993-78.839c3.854,22.147,7.709,44.293,11.563,66.44
					c0.721,4.141,1.441,8.281,2.162,12.422c0.921,5.295,1.843,10.59,2.851,15.868c4.26-1.568,8.788-2.404,13.327-2.458
					C646.018,455.272,645.463,452.661,644.778,450.174z"/>
				<g>
					<g>
						
							<rect x="600.078" y="335.118" style="fill:#575757;stroke:#263238;strokeLinecap:round;strokeLinejoin:round;stroke-miterlimit:10;" width="27.391" height="2.957"/>
						
							<rect x="629.959" y="335.118" style="fill:#575757;stroke:#263238;strokeLinecap:round;strokeLinejoin:round;stroke-miterlimit:10;" width="5.292" height="2.957"/>
						
							<rect x="593.385" y="335.118" style="fill:#575757;stroke:#263238;strokeLinecap:round;strokeLinejoin:round;stroke-miterlimit:10;" width="4.202" height="2.957"/>
					</g>
					
						<rect x="610.661" y="335.43" style="fill:#FFFFFF;stroke:#263238;strokeLinecap:round;strokeLinejoin:round;stroke-miterlimit:10;" width="6.848" height="2.49"/>
				</g>
			</g>
			<g>
				<path style="fill:#FFFFFF;stroke:#263238;strokeLinecap:round;strokeLinejoin:round;stroke-miterlimit:10;" d="
					M583.887,280.679c0,0-12.616,43.883-13.165,44.98c-0.549,1.097,2.743,0.549,5.851,1.097c3.108,0.548,7.497-1.829,8.045-2.743
					c0.549-0.914,5.12-15.176,5.12-15.176L583.887,280.679z"/>
				<g>
					
						<line style="fill:#FFFFFF;stroke:#263238;strokeLinecap:round;strokeLinejoin:round;stroke-miterlimit:10;" x1="584.461" y1="294.903" x2="583.935" y2="293.632"/>
					
						<line style="fill:#FFFFFF;stroke:#263238;strokeLinecap:round;strokeLinejoin:round;stroke-miterlimit:10;" x1="588.598" y1="304.912" x2="585.065" y2="296.366"/>
					<path style="fill:#FFFFFF;stroke:#263238;strokeLinecap:round;strokeLinejoin:round;stroke-miterlimit:10;" d="
						M584.163,318.244c0.6,0.425,1.001,0.717,1.001,0.717"/>
					<path style="fill:#FFFFFF;stroke:#263238;strokeLinecap:round;strokeLinejoin:round;stroke-miterlimit:10;" d="
						M574.836,316.256c0,0,3.443-1.23,4.18-1.23c0.424,0,2.388,1.297,3.983,2.402"/>
				</g>
			</g>
			<g>
				<path style="fill:#FFFFFF;stroke:#263238;strokeLinecap:round;strokeLinejoin:round;stroke-miterlimit:10;" d="
					M642.398,278.119c0,0,14.445,38.581,14.811,40.044c0.366,1.463,0.731,2.377,0.548,4.023c-0.183,1.646-2.743,2.743-3.291,2.743
					c-0.548,0-4.571-2.56-6.217-3.291c-1.646-0.732-6.583-3.108-6.583-3.108l-2.56-8.228L642.398,278.119z"/>
				<g>
					
						<line style="fill:#FFFFFF;stroke:#263238;strokeLinecap:round;strokeLinejoin:round;stroke-miterlimit:10;" x1="643.206" y1="290.64" x2="643.446" y2="289.698"/>
					
						<line style="fill:#FFFFFF;stroke:#263238;strokeLinecap:round;strokeLinejoin:round;stroke-miterlimit:10;" x1="639.757" y1="304.206" x2="642.816" y2="292.174"/>
					
						<line style="fill:#FFFFFF;stroke:#263238;strokeLinecap:round;strokeLinejoin:round;stroke-miterlimit:10;" x1="648.61" y1="311.092" x2="642.708" y2="314.78"/>
				</g>
			</g>
			<polygon style="fill:#FFFFFF;stroke:#263238;strokeLinecap:round;strokeLinejoin:round;stroke-miterlimit:10;" points="
				605.007,267.389 605.606,258.103 617.439,258.103 619.835,268.438 611.897,275.477 			"/>
			<path style="fill:#FFFFFF;stroke:#263238;strokeLinecap:round;strokeLinejoin:round;stroke-miterlimit:10;" d="
				M604.549,269.708l-20.662,10.971l8.959,47.54c0,0-0.731,4.388-0.183,5.303c0.549,0.914,1.463,1.463,1.463,1.463h40.409
				c0,0,2.743-2.56,2.743-3.108c0-0.549,0-2.377,0-2.377l5.12-51.38l-20.462-8.156L604.549,269.708z"/>
			<polygon style="fill:#263238;stroke:#263238;strokeLinecap:round;strokeLinejoin:round;stroke-miterlimit:10;" points="
				609.18,271.876 611.891,279.53 608.223,326.091 613.964,335.18 618.907,325.294 613.804,279.53 616.993,272.674 612.369,267.571 
							"/>
			<polygon style="fill:#FFFFFF;stroke:#263238;strokeLinecap:round;strokeLinejoin:round;stroke-miterlimit:10;" points="
				604.237,265.658 603.759,270.76 608.064,277.776 611.253,270.122 			"/>
			<polygon style="fill:#FFFFFF;stroke:#263238;strokeLinecap:round;strokeLinejoin:round;stroke-miterlimit:10;" points="
				614.123,270.282 616.674,278.414 621.936,269.963 619.545,265.02 			"/>
			<g>
				<polygon style="fill:#FFFFFF;stroke:#263238;strokeLinecap:round;strokeLinejoin:round;stroke-miterlimit:10;" points="
					627.222,324.197 626.491,318.528 631.428,319.442 				"/>
				<g>
					<path style="fill:#FFFFFF;stroke:#263238;strokeLinecap:round;strokeLinejoin:round;stroke-miterlimit:10;" d="
						M613.691,307.009c0,0-2.925-0.366-4.571-0.914c-1.646-0.549-2.743,0.183-1.463,1.828c1.28,1.646,5.851,2.377,6.4,2.377
						c0,0,0.914,4.754,3.474,5.668c2.56,0.914,4.023,0.914,4.023,0.914s1.28,1.828,2.925,2.011c1.646,0.183,5.485,2.925,5.485,2.925
						l1.828-4.206l-4.023-3.291l-4.023-6.948l-3.84-1.28l-3.291-1.097L613.691,307.009z"/>
					<g>
						<path style="fill:#FFFFFF;stroke:#263238;strokeLinecap:round;strokeLinejoin:round;stroke-miterlimit:10;" d="
							M623.931,311.946l-1.646,1.645c0,0,0.183,0.732,0.183,1.463c0,0.731-1.28,0.731-2.194,0.731c-0.914,0-2.011-0.183-2.743-0.731
							c-0.732-0.549-3.657-3.108-3.657-3.108l3.109-5.486l-2.743,1.828c0,0-1.28,2.377-2.377,3.474
							c-1.097,1.097-1.463-0.183-1.463-0.183s1.097-3.474,1.828-4.389c0.732-0.914,3.291-3.108,3.291-3.108s0.914-0.183,2.194,0
							c1.28,0.183,3.84,1.646,4.937,2.377c1.097,0.731,2.011,2.194,2.194,2.926c0.183,0.731,0.183,1.28,0.183,1.28"/>
						<path style="fill:none;stroke:#263238;strokeLinecap:round;strokeLinejoin:round;stroke-miterlimit:10;" d="
							M619.177,315.603c0,0-0.549-1.28-0.183-2.194c0.366-0.914,2.743-4.388,2.743-4.388"/>
						<path style="fill:none;stroke:#263238;strokeLinecap:round;strokeLinejoin:round;stroke-miterlimit:10;" d="
							M617.531,315.054c0,0-0.293-0.33-0.617-0.793c-0.399-0.571-0.061-1.286-0.061-1.892c0-1.097,2.69-5.543,2.69-5.543"/>
					</g>
				</g>
				<path style="fill:#FFFFFF;stroke:#263238;strokeLinecap:round;strokeLinejoin:round;stroke-miterlimit:10;" d="
					M653.552,314.14c0,0,4.571,6.948,4.388,8.777c-0.183,1.828-1.28,5.851-2.926,5.851c-1.646,0-8.96-0.914-14.079-1.828
					c-5.12-0.914-8.594-1.28-8.594-1.28l-5.12-1.463l3.474-8.411l3.327,0.695c0,0,2.452-0.622,4.829-0.805
					c2.377-0.183,10.311-2.085,10.311-2.085"/>
				<path style="fill:none;stroke:#263238;strokeLinecap:round;strokeLinejoin:round;stroke-miterlimit:10;" d="M634.048,317.309
					c0,0,0.244,3.169-1.463,5.851"/>
			</g>
			<g>
				<path style="fill:#FFFFFF;stroke:#263238;strokeLinecap:round;strokeLinejoin:round;stroke-miterlimit:10;" d="
					M573.099,319.808c0,0-3.108,7.497-3.291,8.045c-0.183,0.549,0.549,4.023,3.474,3.291c2.925-0.731,18.468-2.377,20.479-2.743
					c2.011-0.366,5.12-0.914,5.12-0.914s2.194,0,4.023,0c1.829,0,6.948,0,8.045-0.366c1.097-0.365,3.291-1.097,4.388-1.463
					c1.097-0.366,3.474-1.828,3.657-2.377c0.183-0.548-0.549-1.097-2.377-0.914c-1.829,0.183-7.497,0.366-7.497,0.366
					s5.12-2.011,6.765-2.743c1.646-0.731,1.097-1.463,1.097-1.463s-1.829,0-3.109,0.548c-1.28,0.549-13.896,2.194-13.896,2.194
					l-1.463-1.28c0,0,0.731-1.828,0.731-3.291c0-1.463-0.731-2.56-1.646-2.194c-0.914,0.366-1.28,2.56-1.463,3.291
					c-0.183,0.731-1.097,3.657-1.097,3.657l-0.366,1.646c0,0-7.497-1.463-9.691-2.377c-2.194-0.914-6.765-2.194-7.497-2.011
					c-0.731,0.183-2.194,2.194-2.56,3.108"/>
				<path style="fill:none;stroke:#263238;strokeLinecap:round;strokeLinejoin:round;stroke-miterlimit:10;" d="M589.434,322.429
					c0,0-1.219,2.682,0.244,4.388"/>
				<path style="fill:#92E3A9;stroke:#263238;strokeLinecap:round;strokeLinejoin:round;stroke-miterlimit:10;" d="
					M592.045,312.796l5.56,11.312c0.205,0.416,0.626,0.682,1.09,0.686l20.295,0.207c0.867,0.009,1.47-0.858,1.159-1.668
					l-4.416-11.519c-0.182-0.475-0.638-0.789-1.147-0.789h-21.439C592.238,311.026,591.644,311.98,592.045,312.796z"/>
				<g>
					<path style="fill:#FFFFFF;stroke:#263238;strokeLinecap:round;strokeLinejoin:round;stroke-miterlimit:10;" d="
						M616.617,322.368c-1.829,0.183-7.497,0.366-7.497,0.366s5.12-2.011,6.765-2.743c1.646-0.731,1.097-1.463,1.097-1.463
						s-1.829,0-3.109,0.548c-1.28,0.549-13.896,2.194-13.896,2.194l-1.463-1.28c0,0,0.731-1.828,0.731-3.291
						c0-1.463-0.731-2.56-1.646-2.194c-0.914,0.366-1.28,2.56-1.463,3.291c-0.183,0.731-1.097,3.657-1.097,3.657l-0.366,1.646
						c0,0-0.791-0.154-1.931-0.394c-0.281,0.99-0.411,2.326,0.103,3.868c0.248,0.744,0.486,1.351,0.718,1.861
						c0.073-0.012,0.142-0.023,0.197-0.033c2.011-0.366,5.12-0.914,5.12-0.914s2.194,0,4.023,0c1.829,0,6.948,0,8.045-0.366
						c1.097-0.365,3.291-1.097,4.388-1.463c1.097-0.366,3.474-1.828,3.657-2.377C619.177,322.734,618.445,322.185,616.617,322.368z"
						/>
					<path style="fill:none;stroke:#263238;strokeLinecap:round;strokeLinejoin:round;stroke-miterlimit:10;" d="M618.298,323.568
						c0,0-3.793,1.806-4.335,1.806c-0.542,0-7.045,0.723-7.045,0.723"/>
				</g>
			</g>
			<g>
				<path style="fill:#FFFFFF;stroke:#263238;strokeLinecap:round;strokeLinejoin:round;stroke-miterlimit:10;" d="
					M589.185,457.621c0,0,0.053-0.219,0.176-0.522c-0.075,0.116-0.151,0.234-0.229,0.355L589.185,457.621z"/>
			</g>
		</g>
		<g>
			<g>
				<path style="fill:#FFFFFF;stroke:#263238;strokeLinecap:round;strokeLinejoin:round;stroke-miterlimit:10;" d="
					M600.214,243.84c0,0-1.648-1.198-2.247,0.599c-0.599,1.797-0.899,3.744,0.3,5.092c1.198,1.348,2.846,3.744,2.846,3.744
					L600.214,243.84z"/>
				<path style="fill:#FFFFFF;stroke:#263238;strokeLinecap:round;strokeLinejoin:round;stroke-miterlimit:10;" d="
					M622.756,243.84c0,0,1.647-1.198,2.247,0.599c0.599,1.797,0.899,3.744-0.3,5.092c-1.198,1.348-2.846,3.744-2.846,3.744
					L622.756,243.84z"/>
				<path style="fill:#FFFFFF;stroke:#263238;strokeLinecap:round;strokeLinejoin:round;stroke-miterlimit:10;" d="
					M601.908,256.758c0,0,6.004,8.051,7.259,8.469c1.452,0.484,4.114,0.968,5.324,0.242c1.21-0.726,7.615-7.9,7.8-11.21
					c0.185-3.309,1.327-16.254-0.541-19.522c-1.936-3.388-5.807-7.985-16.213-4.598C605.538,230.14,595.617,233.286,601.908,256.758
					z"/>
				<path style="fill:none;stroke:#263238;strokeLinecap:round;strokeLinejoin:round;stroke-miterlimit:10;" d="M608.829,256.091
					c0,0,0.814,1.764,3.075,1.719c1.433-0.029,2.284-1.696,2.284-1.696"/>
				<path style="fill:none;stroke:#263238;strokeLinecap:round;strokeLinejoin:round;stroke-miterlimit:10;" d="M610.136,259.904
					c0,0,0.968,1.21,3.63,0"/>
				<path style="fill:none;stroke:#263238;strokeLinecap:round;strokeLinejoin:round;stroke-miterlimit:10;" d="M603.602,250.951
					c0,0,3.202,1.577,5.149-0.071"/>
				<path style="fill:none;stroke:#263238;strokeLinecap:round;strokeLinejoin:round;stroke-miterlimit:10;" d="M614.733,250.951
					c0,0,2.944,0.815,5.551-0.071"/>
				<path style="fill:none;stroke:#263238;strokeLinecap:round;strokeLinejoin:round;stroke-miterlimit:10;" d="M609.051,249.083
					c0,0-2.696-2.396-5.991-1.198"/>
				<path style="fill:none;stroke:#263238;strokeLinecap:round;strokeLinejoin:round;stroke-miterlimit:10;" d="M614.293,249.083
					c0,0,2.996-2.247,6.74-0.449"/>
			</g>
			<g>
				<path style="fill:#FFFFFF;stroke:#263238;strokeLinecap:round;strokeLinejoin:round;stroke-miterlimit:10;" d="
					M595.048,241.064c0,0,4.92,6.56,13.12,6.888c8.2,0.328,11.562-1.148,13.612-2.788c2.05-1.64,6.068-5.084,6.068-5.084
					s-1.804-2.788-2.296-6.232c-0.492-3.444-0.984-10.168-8.528-12.464c-7.544-2.296-16.072,0.82-18.696,6.068
					C595.704,232.7,596.852,238.932,595.048,241.064z"/>
				<path style="fill:#FFFFFF;stroke:#263238;strokeLinecap:round;strokeLinejoin:round;stroke-miterlimit:10;" d="
					M603.57,240.926c0,0-0.223-7.587,0.669-10.265c0.893-2.678,5.802-4.91,5.802-4.91v-2.901"/>
				<path style="fill:#FFFFFF;stroke:#263238;strokeLinecap:round;strokeLinejoin:round;stroke-miterlimit:10;" d="
					M618.076,240.926c0,0,1.116-7.81-1.116-11.381c-2.232-3.571-3.794-3.571-3.794-3.571v-3.124"/>
			</g>
		</g>
	</g>
</g>
<g id="Forklift">
	<g>
		<g>
			
				<rect x="221.6" y="165.266" style="fill:#263238;stroke:#263238;strokeLinecap:round;strokeLinejoin:round;stroke-miterlimit:10;" width="20.514" height="294.657"/>
			<path style="fill:#424242;stroke:#263238;strokeLinecap:round;strokeLinejoin:round;stroke-miterlimit:10;" d="
				M252.057,227.378h-12.859c-6.341,0-11.481,5.14-11.481,11.481v8.72c0,3.775,3.997,6.212,7.353,4.481l22.039-11.364v-11.941
				L252.057,227.378z"/>
			<path style="fill:#424242;stroke:#263238;strokeLinecap:round;strokeLinejoin:round;stroke-miterlimit:10;" d="
				M252.057,389.952h-12.859c-6.341,0-11.481,5.14-11.481,11.481v8.72c0,3.776,3.997,6.212,7.353,4.481l22.039-11.364V391.33
				L252.057,389.952z"/>
			
				<rect x="213.939" y="157.572" style="fill:#424242;stroke:#263238;strokeLinecap:round;strokeLinejoin:round;stroke-miterlimit:10;" width="9.185" height="65.213"/>
		</g>
		
			<rect x="314.886" y="347.4" style="fill:#263238;stroke:#263238;strokeLinecap:round;strokeLinejoin:round;stroke-miterlimit:10;" width="70.897" height="32.494"/>
		<path style="fill:none;stroke:#263238;strokeWidth:11;stroke-miterlimit:10;" d="M255.79,403.975l30.585-158.108
			c3.572-18.466,19.347-32.068,38.138-32.885l69.658-3.029c7.076-0.308,13.128,5.038,13.696,12.098l12.037,149.598"/>
		<polygon style="fill:#263238;stroke:#263238;stroke-miterlimit:10;" points="310.495,407.705 237.297,396.982 237.297,431.949 
			315.157,412.834 		"/>
		<path style="fill:#263238;stroke:#263238;stroke-miterlimit:10;" d="M305.233,328.312l-10.257-5.906l-5.307,2.621l-8.703-6.527
			l-3.419,5.595l3.419,3.73l-3.419,1.554l1.865,4.041c0,0-7.771,5.284-9.635,19.582l-8.081-0.311v28.284l10.257-4.662l3.73-0.622
			c0,0,19.892-20.514,24.555-30.46S305.233,328.312,305.233,328.312z"/>
		<g>
			<path style="fill:#FFFFFF;stroke:#263238;strokeLinecap:round;strokeLinejoin:round;stroke-miterlimit:10;" d="M326.48,301.816
				l-2.984,1.326l-21.554-1.99c0,0-5.637-3.316-8.953-1.99c-3.316,1.326-5.306,3.648-5.306,3.648s0,6.3,1.658,6.632
				c1.658,0.332,4.642-0.663,4.642-0.663l1.658-1.658c0,0,21.222,5.637,24.207,6.3c2.984,0.663,11.606-2.984,11.606-2.984
				L326.48,301.816z"/>
			<g>
				<path style="fill:#92E3A9;stroke:#263238;strokeLinecap:round;strokeLinejoin:round;stroke-miterlimit:10;" d="
					M292.989,299.163c-3.316,1.326-5.306,3.648-5.306,3.648s0,6.3,1.658,6.632c1.658,0.332,4.642-0.663,4.642-0.663l1.658-1.658
					c0,0,2.661,0.707,6.227,1.648c0.626-0.736,1.27-1.775,1.27-2.945c0-1.047-0.378-2.916-0.787-4.634l-0.409-0.038
					C301.942,301.153,296.305,297.837,292.989,299.163z"/>
				<path style="fill:none;stroke:#263238;stroke-miterlimit:10;" d="M295.814,301.104l-1.953,0.326c0,0-2.93,3.255-2.93,4.395
					c0,1.139,1.79,1.79,2.441,1.465c0.651-0.326,1.953-1.628,1.953-1.628s0.977,0.814,2.767,0.814c1.79,0,3.255-0.814,3.255-0.814"
					/>
			</g>
		</g>
		<polygon style="fill:#FFFFFF;stroke:#263238;strokeLinecap:round;strokeLinejoin:round;stroke-miterlimit:10;" points="
			342.397,285.568 324.159,300.158 331.454,310.438 342.397,302.479 		"/>
		<polygon style="fill:#FFFFFF;stroke:#263238;strokeLinecap:round;strokeLinejoin:round;stroke-miterlimit:10;" points="
			324.159,300.158 330.46,313.422 334.439,309.443 328.801,296.179 		"/>
		<g>
			<path style="fill:#FFFFFF;stroke:#263238;strokeLinecap:round;strokeLinejoin:round;stroke-miterlimit:10;" d="
				M342.729,274.957l-4.642,21.222c0,0,1.99,17.575,1.99,20.891c0,3.316-1.658,10.611-1.658,10.611l-0.663,2.321
				c0,0,0,12.601,5.306,13.927c5.306,1.326,10.611,2.653,17.243,2.653s11.938-2.984,14.59-7.627
				c2.653-4.642,2.653-14.59,2.653-18.238c0-3.648-5.637-32.165-6.632-39.46c-0.995-7.295-10.611-12.932-12.601-13.596
				C356.324,266.998,342.729,274.957,342.729,274.957z"/>
			<g>
				<path style="fill:#FFFFFF;stroke:#263238;strokeLinecap:round;strokeLinejoin:round;stroke-miterlimit:10;" d="
					M334.081,244.291l-1.839,4.065c0,0-4.934,3.611-3.794,4.56c1.14,0.948,1.843,1.726,1.843,1.726s-1.873,8.126-1.189,8.849
					c1.373,1.453,3.687,1.572,5.51,0.773c1.822-0.799,3.532,0.624,3.532,0.624l4.851,9.199l14.911-9.003l-2.014-7.615l3.698-5.604
					L334.081,244.291z"/>
				<path style="fill:#263238;stroke:#263238;strokeLinecap:round;strokeLinejoin:round;stroke-miterlimit:10;" d="
					M355.891,257.469l3.698-5.604l-20.472-5.853c-0.5,0.889-1.372,2.676-0.625,3.154c1.007,0.645,1.976,2.03,1.976,2.03
					s-0.245,1.918,1.103,1.689c1.348-0.229,3.415-2.946,5.562-1.352c2.147,1.593,2.205,3.378,0.649,4.784
					c-1.556,1.406-2.941,2.376-2.941,2.376s8.317,6.3,11.013,5.842c0.477-0.081,1.007-0.174,1.559-0.277L355.891,257.469z"/>
				<path style="fill:#FFFFFF;stroke:#263238;strokeLinecap:round;strokeLinejoin:round;stroke-miterlimit:10;" d="
					M331.808,242.773l-5.456,0.807c0,0,12.745,4.976,16.428,4.945c3.684-0.03,18.037,7.409,18.037,7.409s6.087-9.006,1.51-17.035
					c-4.576-8.029-12.503-10.105-18.457-8.023C337.917,232.959,334.793,235.127,331.808,242.773z"/>
			</g>
			<polygon style="fill:#FFFFFF;stroke:#263238;strokeLinecap:round;strokeLinejoin:round;stroke-miterlimit:10;" points="
				357.319,261.693 339.413,272.635 340.076,278.273 359.972,266.667 			"/>
			<g>
				<path style="fill:#263238;stroke:#263238;strokeLinecap:round;strokeLinejoin:round;stroke-miterlimit:10;" d="
					M284.386,384.705c0,0-10.568,5.906-12.433,6.527c-1.865,0.622-13.987,3.73-13.676,5.906c0.311,2.176,1.243,2.797,6.216,4.041
					c4.973,1.243,25.798,3.419,28.595,3.108c2.797-0.311-0.311-17.095-0.311-17.095L284.386,384.705z"/>
				<path style="fill:#FFFFFF;stroke:#263238;strokeLinecap:round;strokeLinejoin:round;stroke-miterlimit:10;" d="
					M264.493,401.178c4.973,1.243,25.798,3.419,28.595,3.108c0.998-0.111,1.243-2.323,1.146-5.119
					c-16.749,2.386-29.41-0.739-35.559-2.859c-0.289,0.286-0.437,0.564-0.4,0.828C258.588,399.313,259.52,399.935,264.493,401.178z"
					/>
			</g>
			<path style="fill:#92E3A9;stroke:#263238;strokeLinecap:round;strokeLinejoin:round;stroke-miterlimit:10;" d="
				M363.645,335.906c0,0-13.365-5.906-14.608-6.838c-1.243-0.932-39.785,2.176-43.204,4.662
				c-3.419,2.487-29.528,48.177-29.528,48.177l16.784,10.879l26.109-39.785c0,0,9.946-0.311,12.433-1.243
				c2.487-0.933,17.095-3.419,17.095-3.419s15.852,2.176,20.203,0.311c4.351-1.865-0.622-9.635-0.622-9.635"/>
		</g>
		<polyline style="fill:none;stroke:#263238;stroke-miterlimit:10;" points="318.576,352.069 310.495,342.433 319.508,348.96 		"/>
		<g>
			<path style="fill:#263238;stroke:#263238;strokeLinecap:round;strokeLinejoin:round;stroke-miterlimit:10;" d="
				M326.457,357.064h59.908V339.46c0,0-2.555-3.123-7.95-1.136c-5.395,1.988-9.37,9.086-9.37,9.086S329.581,340.596,326.457,357.064
				z"/>
			<polygon style="fill:#263238;stroke:#263238;strokeLinecap:round;strokeLinejoin:round;stroke-miterlimit:10;" points="
				385.797,346.275 393.747,346.275 407.375,307.945 401.129,306.241 			"/>
			<path style="fill:#263238;stroke:#263238;strokeLinecap:round;strokeLinejoin:round;stroke-miterlimit:10;" d="
				M401.129,306.241l-11.073,30.096l-9.516-3.9c-4.369-1.791-6.285-6.931-4.136-11.135c3.361-6.575,8.725-15.445,14.788-19.319
				C401.413,295.452,401.981,301.699,401.129,306.241z"/>
		</g>
		<g>
			<path style="fill:#92E3A9;stroke:#263238;strokeLinecap:round;strokeLinejoin:round;stroke-miterlimit:10;" d="
				M307.697,371.806l-1.865,39.63l-34.236,5.968c8.781,5.831,14.572,15.805,14.572,27.135c0,4.644-0.979,9.057-2.731,13.054h142.289
				c3.565,0,6.455-2.89,6.455-6.455v-85.684c0-3.03-2.315-5.554-5.334-5.814C407.925,358.009,343.251,354.029,307.697,371.806z"/>
			
				<ellipse transform="matrix(0.7429 -0.6694 0.6694 0.7429 -232.3666 284.0499)" style="fill:#263238;stroke:#263238;strokeLinecap:round;strokeLinejoin:round;stroke-miterlimit:10;" cx="253.615" cy="444.537" rx="27.463" ry="27.463"/>
			
				<ellipse transform="matrix(0.7417 -0.6707 0.6707 0.7417 -232.6601 284.9417)" style="fill:#FFFFFF;stroke:#263238;strokeLinecap:round;strokeLinejoin:round;stroke-miterlimit:10;" cx="253.615" cy="444.537" rx="12.789" ry="12.789"/>
			
				<ellipse transform="matrix(0.7071 -0.7071 0.7071 0.7071 -201.3919 428.6988)" style="fill:#263238;stroke:#263238;strokeLinecap:round;strokeLinejoin:round;stroke-miterlimit:10;" cx="416.789" cy="457.451" rx="14.549" ry="14.549"/>
			<path style="fill:#FFFFFF;stroke:#263238;strokeLinecap:round;strokeLinejoin:round;stroke-miterlimit:10;" d="
				M423.564,457.451c0-3.742-3.033-6.775-6.775-6.775c-3.742,0-6.775,3.033-6.775,6.775c0,3.742,3.033,6.775,6.775,6.775
				C420.531,464.226,423.564,461.193,423.564,457.451z"/>
			<path style="fill:#92E3A9;stroke:#263238;strokeLinecap:round;strokeLinejoin:round;stroke-miterlimit:10;" d="M235.149,419.94
				c5.143-3.867,11.536-6.16,18.465-6.16c16.987,0,30.757,13.77,30.757,30.757c0,3.269-0.515,6.417-1.459,9.372h1.966
				c0.889-2.969,1.373-6.114,1.373-9.372c0-18.024-14.612-32.636-32.636-32.636c-7.341,0-14.115,2.425-19.567,6.515L235.149,419.94z
				"/>
			<path style="fill:none;stroke:#263238;strokeLinecap:round;strokeLinejoin:round;stroke-miterlimit:10;" d="M305.832,411.435
				c0,0,75.195-11.131,80.885-12.029c5.69-0.898,22.46-6.888,28.749-40.428"/>
		</g>
		<g>
			
				<rect x="61.468" y="136.36" style="fill:#92E3A9;stroke:#263238;strokeLinecap:round;strokeLinejoin:round;stroke-miterlimit:10;" width="71.859" height="76.887"/>
			<rect x="67.123" y="136.36" style="fill:#263238;" width="6.527" height="27.974"/>
		</g>
		<g>
			
				<rect x="133.268" y="136.36" style="fill:#92E3A9;stroke:#263238;strokeLinecap:round;strokeLinejoin:round;stroke-miterlimit:10;" width="71.859" height="76.887"/>
			<rect x="138.922" y="136.36" style="fill:#263238;" width="6.527" height="27.974"/>
		</g>
		<g>
			
				<rect x="61.468" y="58.966" style="fill:#92E3A9;stroke:#263238;strokeLinecap:round;strokeLinejoin:round;stroke-miterlimit:10;" width="71.859" height="76.887"/>
			<rect x="67.123" y="58.966" style="fill:#263238;" width="6.527" height="27.974"/>
		</g>
		<g>
			
				<rect x="133.268" y="58.966" style="fill:#92E3A9;stroke:#263238;strokeLinecap:round;strokeLinejoin:round;stroke-miterlimit:10;" width="71.859" height="76.887"/>
			<rect x="138.922" y="58.966" style="fill:#263238;" width="6.527" height="27.974"/>
		</g>
		<g>
			
				<rect x="58.713" y="222.785" style="fill:#FFFFFF;stroke:#263238;strokeLinecap:round;strokeLinejoin:round;stroke-miterlimit:10;" width="153.848" height="3.674"/>
			
				<rect x="58.713" y="209.467" style="fill:#FFFFFF;stroke:#263238;strokeLinecap:round;strokeLinejoin:round;stroke-miterlimit:10;" width="153.848" height="3.674"/>
			
				<rect x="61.468" y="213.247" style="fill:#FFFFFF;stroke:#263238;strokeLinecap:round;strokeLinejoin:round;stroke-miterlimit:10;" width="11.941" height="9.321"/>
			
				<rect x="127.697" y="213.247" style="fill:#FFFFFF;stroke:#263238;strokeLinecap:round;strokeLinejoin:round;stroke-miterlimit:10;" width="11.94" height="9.321"/>
			
				<rect x="193.925" y="213.247" style="fill:#FFFFFF;stroke:#263238;strokeLinecap:round;strokeLinejoin:round;stroke-miterlimit:10;" width="11.941" height="9.321"/>
		</g>
		<g>
			<path style="fill:#FFFFFF;stroke:#263238;strokeLinecap:round;strokeLinejoin:round;stroke-miterlimit:10;" d="
				M335.434,311.433c0,0-17.575,5.969-20.228,6.964c-2.653,0.995-3.316,2.653-3.316,2.653s-2.321,5.637-0.332,6.632
				s6.964,0.332,6.964,0.332s2.984,0.663,3.648-0.663c0.663-1.326,0.995-4.642,0.995-4.642s15.254-0.995,18.57-1.326
				c3.316-0.332,5.969-2.653,5.969-2.653L335.434,311.433z"/>
			<path style="fill:#92E3A9;stroke:#263238;strokeLinecap:round;strokeLinejoin:round;stroke-miterlimit:10;" d="
				M322.169,327.349c0.639-1.278,0.969-4.396,0.993-4.621c-1.05-0.089-3.213-0.491-5.213-2.255
				c-1.201-1.059-1.266-1.996-0.957-2.717c-0.808,0.284-1.433,0.507-1.787,0.64c-2.653,0.995-3.316,2.653-3.316,2.653
				s-2.321,5.637-0.332,6.632c1.99,0.995,6.964,0.332,6.964,0.332S321.506,328.676,322.169,327.349z"/>
		</g>
		<g>
			<path style="fill:#FFFFFF;stroke:#263238;strokeLinecap:round;strokeLinejoin:round;stroke-miterlimit:10;" d="
				M350.024,275.951c0,0-3.648,4.311-4.642,7.958c-0.995,3.648-3.648,16.912-3.648,16.912l-2.653,4.974l-3.648,5.637
				c0,0,0.995,4.974,6.632,6.632c5.637,1.658,6.964,2.321,8.29,0.995c1.326-1.326,6.964-11.274,8.29-15.917
				c1.326-4.642,6.632-17.575,6.632-17.575"/>
			<path style="fill:#FFFFFF;stroke:#263238;strokeLinecap:round;strokeLinejoin:round;stroke-miterlimit:10;" d="
				M339.081,305.795l-7.627,4.642c0,0,0.995,3.648,3.316,6.632s5.969,4.311,6.964,4.311c0.995,0,4.642,0,4.642,0l5.306-2.984
				c0,0-7.295-0.995-9.616-5.969S339.081,305.795,339.081,305.795z"/>
		</g>
		<polygon style="fill:#263238;stroke:#263238;stroke-miterlimit:10;" points="292.467,312.905 296.197,322.852 306.143,327.514 
			309.562,321.608 		"/>
		<g>
			<path style="fill:#263238;" d="M320.178,328.883c-0.294,0-0.592-0.069-0.87-0.217l-33.823-17.906
				c-0.911-0.482-1.258-1.611-0.776-2.521c0.482-0.911,1.609-1.259,2.521-0.776l33.823,17.906c0.911,0.482,1.258,1.611,0.776,2.521
				C321.493,328.522,320.847,328.883,320.178,328.883z"/>
		</g>
	</g>
</g>
<g id="Floor">
	<g>
		
			<line style="fill:none;stroke:#263238;strokeLinecap:round;strokeLinejoin:round;stroke-miterlimit:10;" x1="57" y1="472" x2="720.849" y2="472"/>
		
			<line style="fill:none;stroke:#263238;strokeLinecap:round;strokeLinejoin:round;stroke-miterlimit:10;" x1="22" y1="472" x2="50" y2="472"/>
	</g>
</g>
</svg>
