<?xml version="1.0" encoding="utf-8"?>
<!-- Generator: Adobe Illustrator 27.5.0, SVG Export Plug-In . SVG Version: 6.00 Build 0)  -->
<svg version="1.1" xmlns="http://www.w3.org/2000/svg" xmlns:xlink="http://www.w3.org/1999/xlink" x="0px" y="0px"
	 viewBox="0 0 500 500" style="enable-background:new 0 0 500 500;" xml:space="preserve">
<g id="Background_Simple">
	<g>
		<path style="fill:#92E3A9;" d="M454.58,247.444c-4.794,40.601-23.332,87.807-60.357,109.493
			c-55.941,32.772-51.258,83.179-160.449,105.092c-17.024,3.418-33.18,4.857-48.414,4.573c-8.189-0.152-16.117-0.812-23.762-1.937
			C92.201,454.527,45.5,406.289,28.367,348.061C5.819,271.48,50.841,221.344,80.682,191.137
			c29.841-30.207,51.698-124.328,158.87-146.714c16.341-3.406,33.052-5.144,49.758-4.727c38.131,0.936,79.723,13.457,108.502,39.59
			c2.161,1.964,4.262,4,6.311,6.098C444.122,126.441,461.119,192.092,454.58,247.444z"/>
		<path style="opacity:0.7;fill:#FFFFFF;" d="M454.58,247.444c-4.794,40.601-23.332,87.807-60.357,109.493
			c-55.941,32.772-51.258,83.179-160.449,105.092c-17.024,3.418-33.18,4.857-48.414,4.573c-8.189-0.152-16.117-0.812-23.762-1.937
			C92.201,454.527,45.5,406.289,28.367,348.061C5.819,271.48,50.841,221.344,80.682,191.137
			c29.841-30.207,51.698-124.328,158.87-146.714c16.341-3.406,33.052-5.144,49.758-4.727c38.131,0.936,79.723,13.457,108.502,39.59
			c2.161,1.964,4.262,4,6.311,6.098C444.122,126.441,461.119,192.092,454.58,247.444z"/>
	</g>
</g>
<g id="Plant">
	<g>
		
			<line style="fill:none;stroke:#263238;strokeLinecap:round;strokeLinejoin:round;stroke-miterlimit:10;" x1="423.012" y1="422.595" x2="423.012" y2="309.746"/>
		
			<line style="fill:none;stroke:#263238;strokeLinecap:round;strokeLinejoin:round;stroke-miterlimit:10;" x1="413.864" y1="422.595" x2="413.864" y2="366.635"/>
		<g>
			<path style="fill:#FFFFFF;stroke:#263238;strokeLinecap:round;strokeLinejoin:round;stroke-miterlimit:10;" d="M425.87,328.252
				c0,0-9.225-1.056-12.97-8.357c-3.746-7.301-4.144-26.13,10.22-46.952c14.364-20.822,21.886-21.089,24.387-4.063
				c2.501,17.026,2.144,41.76-3.735,51.131C437.893,329.382,425.87,328.252,425.87,328.252z"/>
			<path style="fill:none;stroke:#263238;strokeLinecap:round;strokeLinejoin:round;stroke-miterlimit:10;" d="M429.14,288.937
				c1.702-5.802,3.727-11.023,6.093-14.554"/>
			<path style="fill:none;stroke:#263238;strokeLinecap:round;strokeLinejoin:round;stroke-miterlimit:10;" d="M422.034,326.947
				c0,0,1.897-18.206,6.022-34.08"/>
		</g>
		<g>
			<path style="fill:#FFFFFF;stroke:#263238;strokeLinecap:round;strokeLinejoin:round;stroke-miterlimit:10;" d="
				M431.361,364.878c0,0-5.918-4.589-5.444-11.19c0.474-6.601,8.08-19.749,26.698-28.092c18.618-8.343,23.915-5.379,18.513,7.406
				c-5.402,12.785-16.001,29.687-23.976,33.687C439.177,370.689,431.361,364.878,431.361,364.878z"/>
			<path style="fill:none;stroke:#263238;strokeLinecap:round;strokeLinejoin:round;stroke-miterlimit:10;" d="M450.071,339.142
				c3.602-3.287,7.183-6.039,10.292-7.483"/>
			<path style="fill:none;stroke:#263238;strokeLinecap:round;strokeLinejoin:round;stroke-miterlimit:10;" d="M447.678,341.398
				c-9.488,9.217-18.416,20.974-18.416,20.974s-4.769,6.414-6.186,19.17"/>
		</g>
		<g>
			<path style="fill:#FFFFFF;stroke:#263238;strokeLinecap:round;strokeLinejoin:round;stroke-miterlimit:10;" d="
				M427.972,403.043c0,0-3.428-2.659-3.154-6.483c0.274-3.824,4.681-11.442,15.468-16.276c10.787-4.834,13.856-3.116,10.726,4.291
				c-3.13,7.407-9.27,17.2-13.891,19.517C432.5,406.41,427.972,403.043,427.972,403.043z"/>
			<path style="fill:none;stroke:#263238;strokeLinecap:round;strokeLinejoin:round;stroke-miterlimit:10;" d="M438.812,388.133
				c2.087-1.905,4.162-3.499,5.963-4.336"/>
			<path style="fill:none;stroke:#263238;strokeLinecap:round;strokeLinejoin:round;stroke-miterlimit:10;" d="M437.426,389.44
				c-5.497,5.34-10.67,12.152-10.67,12.152s-2.763,3.716-3.584,11.107"/>
		</g>
		<g>
			<path style="fill:#FFFFFF;stroke:#263238;strokeLinecap:round;strokeLinejoin:round;stroke-miterlimit:10;" d="M414.646,349.62
				c0,0,5.918-4.589,5.444-11.19c-0.474-6.601-8.08-19.749-26.698-28.092c-18.618-8.343-23.915-5.379-18.513,7.406
				c5.402,12.785,16.001,29.687,23.976,33.687C406.83,355.431,414.646,349.62,414.646,349.62z"/>
			<path style="fill:none;stroke:#263238;strokeLinecap:round;strokeLinejoin:round;stroke-miterlimit:10;" d="M395.936,323.885
				c-3.602-3.287-7.183-6.039-10.292-7.483"/>
			<path style="fill:none;stroke:#263238;strokeLinecap:round;strokeLinejoin:round;stroke-miterlimit:10;" d="M398.328,326.14
				c9.488,9.217,18.416,20.974,18.416,20.974s4.769,6.414,6.186,19.17"/>
		</g>
		<g>
			<path style="fill:#FFFFFF;stroke:#263238;strokeLinecap:round;strokeLinejoin:round;stroke-miterlimit:10;" d="M411.74,400.589
				c0,0,5.994,0.19,8.991-3.421c2.997-3.611,4.795-13.684-2.697-26.037c-7.493-12.353-12.288-13.113-15.285-4.181
				c-2.997,8.932-4.795,22.236-1.798,27.747C403.947,400.209,411.74,400.589,411.74,400.589z"/>
			<path style="fill:none;stroke:#263238;strokeLinecap:round;strokeLinejoin:round;stroke-miterlimit:10;" d="M412.678,391.415
				c0.09,1.227,0.153,2.455,0.183,3.671"/>
			<path style="fill:none;stroke:#263238;strokeLinecap:round;strokeLinejoin:round;stroke-miterlimit:10;" d="M408.081,366.406
				c0,0,3.139,10.638,4.34,22.131"/>
		</g>
	</g>
</g>
<g id="Window">
	<g>
		<g>
			<polyline style="fill:none;stroke:#263238;strokeLinecap:round;strokeLinejoin:round;stroke-miterlimit:10;" points="
				24.887,327.699 163.296,327.699 163.296,45.202 			"/>
			<polyline style="fill:none;stroke:#263238;strokeLinecap:round;strokeLinejoin:round;stroke-miterlimit:10;" points="
				310.18,327.699 171.77,327.699 171.77,45.202 			"/>
		</g>
		<g>
			<polyline style="fill:none;stroke:#263238;strokeLinecap:round;strokeLinejoin:round;stroke-miterlimit:10;" points="
				228.264,327.699 366.674,327.699 366.674,45.202 			"/>
		</g>
		<g>
			
				<line style="fill:none;stroke:#263238;strokeLinecap:round;strokeLinejoin:round;stroke-miterlimit:10;" x1="338.427" y1="111.535" x2="290.054" y2="164.99"/>
			
				<line style="fill:none;stroke:#263238;strokeLinecap:round;strokeLinejoin:round;stroke-miterlimit:10;" x1="311.592" y1="152.895" x2="298.175" y2="167.722"/>
			
				<line style="fill:none;stroke:#263238;strokeLinecap:round;strokeLinejoin:round;stroke-miterlimit:10;" x1="204.96" y1="97.488" x2="178.832" y2="126.362"/>
			
				<line style="fill:none;stroke:#263238;strokeLinecap:round;strokeLinejoin:round;stroke-miterlimit:10;" x1="212.022" y1="90.464" x2="229.676" y2="70.955"/>
			
				<line style="fill:none;stroke:#263238;strokeLinecap:round;strokeLinejoin:round;stroke-miterlimit:10;" x1="157.647" y1="269.171" x2="140.699" y2="287.9"/>
			
				<line style="fill:none;stroke:#263238;strokeLinecap:round;strokeLinejoin:round;stroke-miterlimit:10;" x1="151.998" y1="244.199" x2="120.573" y2="278.926"/>
		</g>
	</g>
</g>
<g id="Clock">
	<g>
		
			<ellipse transform="matrix(0.3713 -0.9285 0.9285 0.3713 158.7868 467.0966)" style="fill:none;stroke:#263238;strokeLinecap:round;strokeLinejoin:round;stroke-miterlimit:10;" cx="424.297" cy="116.3" rx="50.1" ry="50.1"/>
		
			<circle style="fill:none;stroke:#263238;strokeLinecap:round;strokeLinejoin:round;stroke-miterlimit:10;" cx="424.297" cy="116.3" r="43.735"/>
		
			<circle style="fill:none;stroke:#263238;strokeLinecap:round;strokeLinejoin:round;stroke-miterlimit:10;" cx="424.297" cy="116.3" r="2.988"/>
		
			<line style="fill:none;stroke:#263238;strokeLinecap:round;strokeLinejoin:round;stroke-miterlimit:10;" x1="424.297" y1="119.289" x2="424.297" y2="133.983"/>
		
			<line style="fill:none;stroke:#263238;strokeLinecap:round;strokeLinejoin:round;stroke-miterlimit:10;" x1="421.308" y1="116.3" x2="385.65" y2="116.3"/>
	</g>
</g>
<g id="Speech_Bubble">
	<g>
		<path style="fill:#263238;stroke:#263238;strokeLinecap:round;strokeLinejoin:round;stroke-miterlimit:10;" d="M196.768,237.218
			l-16.481-25.574c7.025-11.339,11.09-24.704,11.09-39.023c0-40.987-33.227-74.214-74.214-74.214
			c-40.987,0-74.214,33.227-74.214,74.214s33.227,74.214,74.214,74.214c21.661,0,41.15-9.285,54.717-24.087L196.768,237.218z"/>
		<path style="fill:#FFFFFF;stroke:#263238;strokeLinecap:round;strokeLinejoin:round;stroke-miterlimit:10;" d="M198.335,230.949
			l-16.481-25.574c7.025-11.339,11.09-24.704,11.09-39.023c0-40.987-33.227-74.214-74.214-74.214s-74.214,33.227-74.214,74.214
			c0,40.987,33.227,74.214,74.214,74.214c21.661,0,41.15-9.285,54.718-24.087L198.335,230.949z"/>
	</g>
	<g>
		<g>
			<path style="fill:#263238;stroke:#263238;strokeLinecap:round;strokeLinejoin:round;stroke-miterlimit:10;" d="M66.635,177.041
				v-6.93l11.394-17.502c0.861-1.292,1.674-2.544,2.437-3.758c0.764-1.213,1.39-2.447,1.879-3.7
				c0.489-1.253,0.734-2.564,0.734-3.935c0-1.37-0.275-2.388-0.822-3.054c-0.549-0.665-1.292-0.998-2.232-0.998
				c-1.057,0-1.879,0.294-2.467,0.881c-0.587,0.587-0.989,1.371-1.204,2.349c-0.216,0.979-0.324,2.076-0.324,3.289v2.35h-9.514
				v-2.526c0-2.819,0.45-5.334,1.351-7.547c0.9-2.212,2.329-3.954,4.287-5.227c1.957-1.272,4.523-1.909,7.694-1.909
				c4.267,0,7.488,1.107,9.661,3.318c2.173,2.212,3.26,5.296,3.26,9.25c0,1.919-0.303,3.7-0.91,5.345
				c-0.607,1.644-1.41,3.24-2.408,4.786c-0.998,1.548-2.065,3.162-3.201,4.846l-8.692,12.979h13.919v7.694H66.635z"/>
			<path style="fill:#263238;stroke:#263238;strokeLinecap:round;strokeLinejoin:round;stroke-miterlimit:10;" d="
				M109.568,177.041v-10.689H94.944v-7.224l12.392-29.659h11.394v29.601h4.405v7.282h-4.405v10.689H109.568z M102.403,159.069h7.166
				v-19.793L102.403,159.069z"/>
			<path style="fill:#263238;stroke:#263238;strokeLinecap:round;strokeLinejoin:round;stroke-miterlimit:10;" d="
				M126.776,177.041l14.565-47.572h5.169l-14.624,47.572H126.776z"/>
			<path style="fill:#263238;stroke:#263238;strokeLinecap:round;strokeLinejoin:round;stroke-miterlimit:10;" d="
				M152.852,177.041l10.337-40.113h-12.98v-7.459h22.553v6.754l-10.337,40.818H152.852z"/>
		</g>
		<g>
			<path style="fill:#263238;stroke:#263238;strokeLinecap:round;strokeLinejoin:round;stroke-miterlimit:10;" d="M75.876,207.481
				c-1.337,0-2.447-0.279-3.328-0.836c-0.882-0.557-1.546-1.337-1.991-2.34c-0.446-1.003-0.72-2.174-0.821-3.511l2.036-0.608
				c0.101,1.013,0.283,1.93,0.547,2.751c0.263,0.821,0.679,1.469,1.246,1.945c0.567,0.477,1.347,0.714,2.34,0.714
				c1.094,0,1.945-0.283,2.553-0.851c0.608-0.567,0.912-1.469,0.912-2.705c0-1.074-0.269-2.011-0.805-2.811
				c-0.537-0.801-1.272-1.636-2.204-2.508l-4.347-4.164c-0.77-0.749-1.337-1.525-1.702-2.325c-0.365-0.8-0.547-1.676-0.547-2.629
				c0-1.702,0.506-3.009,1.52-3.921c1.013-0.912,2.36-1.368,4.042-1.368c0.871,0,1.657,0.111,2.356,0.334
				c0.699,0.223,1.297,0.583,1.793,1.079c0.496,0.497,0.886,1.14,1.17,1.93c0.284,0.79,0.476,1.753,0.577,2.887l-1.975,0.517
				c-0.082-1.033-0.249-1.92-0.502-2.66c-0.254-0.739-0.649-1.302-1.185-1.687c-0.537-0.385-1.282-0.578-2.234-0.578
				c-1.013,0-1.844,0.264-2.492,0.791c-0.649,0.527-0.973,1.347-0.973,2.462c0,0.669,0.126,1.277,0.38,1.823
				c0.253,0.547,0.704,1.135,1.353,1.763l4.347,4.103c0.973,0.912,1.813,1.926,2.522,3.04c0.709,1.115,1.064,2.371,1.064,3.769
				c0,1.236-0.238,2.27-0.714,3.101c-0.476,0.831-1.14,1.454-1.991,1.869C77.973,207.273,76.99,207.481,75.876,207.481z"/>
			<path style="fill:#263238;stroke:#263238;strokeLinecap:round;strokeLinejoin:round;stroke-miterlimit:10;" d="M84.599,207.177
				v-24.62h8.906v1.793h-6.565v9.24h5.35v1.702h-5.35v10.152h6.626v1.732H84.599z"/>
			<path style="fill:#263238;stroke:#263238;strokeLinecap:round;strokeLinejoin:round;stroke-miterlimit:10;" d="M96.726,207.177
				v-24.62h5.563c1.54,0,2.751,0.248,3.632,0.745c0.882,0.496,1.515,1.215,1.9,2.158c0.385,0.942,0.578,2.062,0.578,3.359
				c0,0.912-0.102,1.773-0.304,2.584c-0.203,0.811-0.547,1.5-1.033,2.067c-0.487,0.567-1.176,0.942-2.067,1.124l3.769,12.583h-2.249
				l-3.617-12.097h-3.86v12.097H96.726z M99.036,193.378h3.131c1.033,0,1.834-0.172,2.401-0.516c0.567-0.344,0.973-0.851,1.216-1.52
				s0.365-1.509,0.365-2.523c0-1.52-0.264-2.654-0.79-3.404c-0.527-0.749-1.571-1.125-3.131-1.125h-3.192V193.378z"/>
			<path style="fill:#263238;stroke:#263238;strokeLinecap:round;strokeLinejoin:round;stroke-miterlimit:10;" d="
				M112.349,207.177v-24.62h2.31v24.62H112.349z"/>
			<path style="fill:#263238;stroke:#263238;strokeLinecap:round;strokeLinejoin:round;stroke-miterlimit:10;" d="
				M123.382,207.177l-5.775-24.62h2.219l4.65,20.395l4.377-20.395h2.189l-5.563,24.62H123.382z"/>
			<path style="fill:#263238;stroke:#263238;strokeLinecap:round;strokeLinejoin:round;stroke-miterlimit:10;" d="M133.96,207.177
				v-24.62h2.31v24.62H133.96z"/>
			<path style="fill:#263238;stroke:#263238;strokeLinecap:round;strokeLinejoin:round;stroke-miterlimit:10;" d="M146.36,207.481
				c-1.662,0-2.943-0.344-3.845-1.033c-0.902-0.689-1.525-1.616-1.87-2.781c-0.345-1.165-0.516-2.457-0.516-3.876v-9.787
				c0-1.519,0.177-2.857,0.532-4.012c0.354-1.155,0.988-2.056,1.9-2.705c0.912-0.648,2.178-0.973,3.799-0.973
				c1.479,0,2.639,0.284,3.48,0.851c0.841,0.568,1.444,1.373,1.809,2.416c0.365,1.044,0.547,2.285,0.547,3.723v1.49h-2.188v-1.428
				c0-1.074-0.086-1.996-0.258-2.766c-0.172-0.77-0.522-1.368-1.049-1.793c-0.527-0.425-1.307-0.638-2.34-0.638
				c-1.094,0-1.92,0.228-2.477,0.684c-0.558,0.456-0.932,1.1-1.124,1.93c-0.193,0.831-0.289,1.793-0.289,2.887v10.486
				c0,1.216,0.116,2.229,0.35,3.04c0.232,0.811,0.633,1.418,1.2,1.824c0.567,0.406,1.347,0.607,2.34,0.607
				c1.033,0,1.813-0.222,2.34-0.669c0.527-0.445,0.876-1.068,1.049-1.869c0.172-0.8,0.258-1.737,0.258-2.811v-1.611h2.188v1.459
				c0,1.439-0.167,2.716-0.501,3.83c-0.334,1.115-0.923,1.98-1.763,2.598C149.09,207.172,147.9,207.481,146.36,207.481z"/>
			<path style="fill:#263238;stroke:#263238;strokeLinecap:round;strokeLinejoin:round;stroke-miterlimit:10;" d="
				M155.782,207.177v-24.62h8.906v1.793h-6.565v9.24h5.35v1.702h-5.35v10.152h6.626v1.732H155.782z"/>
		</g>
	</g>
</g>
<g id="Character">
	<path style="fill:#263238;stroke:#263238;strokeLinecap:round;strokeLinejoin:round;stroke-miterlimit:10;" d="M330.678,320.171
		h53.572c0,0-28.958,71.309-23.528,103.163h-54.296C306.426,423.334,316.561,341.889,330.678,320.171z"/>
	<g>
		<path style="fill:#263238;stroke:#263238;strokeLinecap:round;strokeLinejoin:round;stroke-miterlimit:10;" d="M284.328,217.807
			c0,0,0.536,9.654,18.504,15.286c17.967,5.632,36.203,0,46.393,8.045c10.19,8.045,9.922,20.381,6.436,26.549
			c-3.486,6.168-9.118,12.336,7.509,19.577c16.627,7.241,6.704,28.426-0.268,36.203c-6.973,7.777-19.04,11.531-32.449,8.85
			c-13.409-2.682-29.231-35.13-46.393-52.293c-17.163-17.163-19.258-48.843-8.313-57.925
			C286.691,213.016,284.328,217.807,284.328,217.807z"/>
		<path style="fill:#A6A6A6;stroke:#263238;strokeLinecap:round;strokeLinejoin:round;stroke-miterlimit:10;" d="M281.568,183.098
			c0,0,7.401-3.226,9.299,3.036c1.898,6.263,2.467,23.342,2.467,23.342l-3.985-0.949c0,0,0.949-19.357-3.416-22.394
			c-4.365-3.036-7.781,3.796-7.781,3.796L281.568,183.098z"/>
		<path style="fill:#263238;stroke:#263238;strokeLinecap:round;strokeLinejoin:round;stroke-miterlimit:10;" d="M198.501,391.38
			l25.279-13.516c0,0-1.752-26.531-1.502-27.532c0.25-1.001,6.584-52.91,6.584-52.91l-17.346,51.409L198.501,391.38z"/>
		<path style="fill:#92E3A9;stroke:#263238;strokeLinecap:round;strokeLinejoin:round;stroke-miterlimit:10;" d="M310.258,270.763
			c0,0,24.957,13.613,28.361,15.031c3.403,1.418,1.418,18.718,1.418,30.062S323.02,423.06,323.02,423.06H197.098
			c0,0,21.271-32.615,21.838-41.123c0.567-8.508-3.12-15.315-3.687-23.539s11.628-58.423,13.613-60.975
			c1.985-2.553,10.494-9.076,10.494-9.076l30.062-26.376l13.897-3.12L310.258,270.763z"/>
		<g>
			
				<line style="fill:none;stroke:#263238;strokeLinecap:round;strokeLinejoin:round;stroke-miterlimit:10;" x1="226.824" y1="391.155" x2="222.623" y2="399.804"/>
			<path style="fill:none;stroke:#263238;strokeLinecap:round;strokeLinejoin:round;stroke-miterlimit:10;" d="M230.848,366.338
				c0,0-6.239,4.254-3.12,6.523c3.12,2.269,4.538,7.09,4.538,7.09l-3.987,7.788"/>
			<path style="fill:none;stroke:#263238;strokeLinecap:round;strokeLinejoin:round;stroke-miterlimit:10;" d="M260.239,386.974
				c1.693,0.13,3.471,0.224,5.335,0.276"/>
			<path style="fill:none;stroke:#263238;strokeLinecap:round;strokeLinejoin:round;stroke-miterlimit:10;" d="M233.393,379.952
				c0,0,6.785,4.536,21.581,6.478"/>
		</g>
		<path style="fill:#A6A6A6;stroke:#263238;strokeLinecap:round;strokeLinejoin:round;stroke-miterlimit:10;" d="M216.474,198.66
			c0,0-3.796,1.518-3.796,6.452s3.985,14.613,3.985,14.613l2.277-0.759c0,0-4.175-10.058-3.606-13.664
			c0.569-3.606,3.985-4.555,3.985-4.555l-0.759-2.467L216.474,198.66z"/>
		<path style="fill:#FFFFFF;stroke:#263238;strokeLinecap:round;strokeLinejoin:round;stroke-miterlimit:10;" d="M226.241,224.07
			c0.966,4.991-0.712,9.513-3.748,10.1s-6.279-2.982-7.245-7.973c-0.966-4.991,0.712-9.513,3.748-10.1
			C222.031,215.51,225.275,219.079,226.241,224.07z"/>
		<path style="fill:#263238;stroke:#263238;strokeLinecap:round;strokeLinejoin:round;stroke-miterlimit:10;" d="M235.471,222.461
			c1.893,6.381-0.32,12.665-4.942,14.036c-4.622,1.371-9.904-2.69-11.796-9.07c-1.893-6.381,0.32-12.665,4.942-14.036
			C228.297,212.019,233.578,216.08,235.471,222.461z"/>
		<path style="fill:#FFFFFF;stroke:#263238;strokeLinecap:round;strokeLinejoin:round;stroke-miterlimit:10;" d="M252.6,257.245
			l4.491,14.596l-14.765,18.601l-2.454,14.37c0,0-2.453,41.008-1.051,47.317c1.402,6.309,1.402,8.061,1.402,8.061
			s30.493-35.4,45.565-57.131c15.071-21.731,18.576-35.05,18.576-35.05l-14.721-8.061l-7.01-32.596L252.6,257.245z"/>
		<polygon style="fill:#263238;stroke:#263238;strokeLinecap:round;strokeLinejoin:round;stroke-miterlimit:10;" points="
			275.875,243.111 257.091,271.841 251.855,254.93 		"/>
		<path style="fill:#FFFFFF;stroke:#263238;strokeLinecap:round;strokeLinejoin:round;stroke-miterlimit:10;" d="M240.011,303.996
			l-0.139,0.816c0,0-2.453,41.008-1.051,47.317c1.402,6.309,1.402,8.061,1.402,8.061s30.493-35.4,45.565-57.131
			c1.182-1.704,2.285-3.35,3.328-4.948C270.242,304.569,251.005,304.682,240.011,303.996z"/>
		<g>
			<path style="fill:#FFFFFF;stroke:#263238;strokeLinecap:round;strokeLinejoin:round;stroke-miterlimit:10;" d="
				M232.605,167.726c0,0-14.043,8.54-15.562,21.445s3.796,26.758,5.883,32.262c2.087,5.503,9.299,26.948,13.094,31.123
				c3.796,4.175,16.131,10.438,18.219,11.576c2.088,1.139,5.883,0.759,9.109-1.518c3.226-2.277,16.511-18.408,18.598-22.204
				c2.088-3.796,2.467-12.146,2.467-12.146s-0.38-16.7-1.139-27.518c-0.759-10.817-0.19-21.255-9.109-30.364
				C265.247,161.274,241.335,161.084,232.605,167.726z"/>
			<path style="fill:#263238;stroke:#263238;strokeLinecap:round;strokeLinejoin:round;stroke-miterlimit:10;" d="
				M283.275,200.747c-0.759-10.817-0.19-21.255-9.109-30.364c-8.919-9.109-32.831-9.299-41.561-2.657c0,0-14.043,8.54-15.562,21.445
				c-0.882,7.497,0.544,15.302,2.301,21.616c3.23-1.962,14.125-8.675,26.355-17.252c14.613-10.248,19.357-26.189,19.357-26.189
				s1.708-0.949,1.328,1.139c-0.38,2.087-6.073,14.423-8.16,16.321c-2.088,1.898-2.088,1.898-2.088,1.898s1.708-0.38,9.489,8.919
				c7.781,9.299,12.146,13.095,14.423,14.233c0.707,0.353,2.109,0.597,3.769,0.736C283.666,207.179,283.485,203.738,283.275,200.747
				z"/>
			<path style="fill:#263238;stroke:#263238;strokeLinecap:round;strokeLinejoin:round;stroke-miterlimit:10;" d="
				M259.909,220.868c0.245,1.394-0.267,2.648-1.145,2.803c-0.877,0.154-1.788-0.85-2.033-2.244
				c-0.245-1.394,0.267-2.648,1.145-2.803C258.753,218.471,259.663,219.475,259.909,220.868z"/>
			<path style="fill:#263238;stroke:#263238;strokeLinecap:round;strokeLinejoin:round;stroke-miterlimit:10;" d="
				M238.654,223.905c0.245,1.393-0.267,2.648-1.145,2.803c-0.877,0.154-1.787-0.85-2.033-2.244
				c-0.245-1.393,0.267-2.648,1.145-2.803C237.498,221.507,238.408,222.511,238.654,223.905z"/>
			<path style="fill:none;stroke:#263238;strokeLinecap:round;strokeLinejoin:round;stroke-miterlimit:10;" d="M251.203,212.324
				c0,0,6.263-4.934,11.956-0.949"/>
			<path style="fill:none;stroke:#263238;strokeLinecap:round;strokeLinejoin:round;stroke-miterlimit:10;" d="M238.488,214.98
				c0,0-7.401-3.606-12.525,2.847"/>
			<path style="fill:none;stroke:#263238;strokeLinecap:round;strokeLinejoin:round;stroke-miterlimit:10;" d="M239.817,215.17
				c0,0,5.124,2.467,5.504,7.212"/>
			<path style="fill:none;stroke:#263238;strokeLinecap:round;strokeLinejoin:round;stroke-miterlimit:10;" d="M245.51,235.476
				c0,0,2.088,1.518,5.693,0.38"/>
			<path style="fill:none;stroke:#263238;strokeLinecap:round;strokeLinejoin:round;stroke-miterlimit:10;" d="M243.992,243.447
				c0,0,5.693,0,12.336-2.847c6.642-2.847,9.299-6.832,9.299-6.832"/>
			<path style="fill:none;stroke:#263238;strokeLinecap:round;strokeLinejoin:round;stroke-miterlimit:10;" d="M247.218,243.257
				c0,0,2.088,2.088,5.503,2.088c3.416,0,6.452-6.073,6.452-6.073S250.444,243.067,247.218,243.257z"/>
		</g>
		
			<ellipse style="fill:#263238;stroke:#263238;strokeLinecap:round;strokeLinejoin:round;stroke-miterlimit:10;" cx="286.691" cy="217.163" rx="8.73" ry="12.051"/>
		
			<ellipse style="fill:#FFFFFF;stroke:#263238;strokeLinecap:round;strokeLinejoin:round;stroke-miterlimit:10;" cx="290.392" cy="215.075" rx="5.598" ry="9.204"/>
		<path style="fill:none;stroke:#263238;strokeWidth:2;strokeLinecap:round;strokeLinejoin:round;stroke-miterlimit:10;" d="
			M222.493,230.023c0,0,0.054,19.715,5.178,21.423c5.124,1.708,19.167-1.708,19.167-1.708"/>
		<path style="fill:#263238;stroke:#263238;strokeLinecap:round;strokeLinejoin:round;stroke-miterlimit:10;" d="M254.05,249.643
			c0,1.52-1.869,2.752-4.175,2.752s-4.175-1.232-4.175-2.752c0-1.52,1.869-2.752,4.175-2.752S254.05,248.123,254.05,249.643z"/>
		<path style="fill:#92E3A9;stroke:#263238;strokeLinecap:round;strokeLinejoin:round;stroke-miterlimit:10;" d="M255.238,272.748
			c0,0-5.956,10.493-10.21,41.69c-4.254,31.197-1.418,37.436-1.418,37.436l-5.956,3.687c0,0-12.479-1.418-8.225-30.913
			c4.254-29.495,6.523-34.316,6.523-34.316L255.238,272.748z"/>
		<path style="fill:#92E3A9;stroke:#263238;strokeLinecap:round;strokeLinejoin:round;stroke-miterlimit:10;" d="M293.241,261.971
			c0,0-13.613,32.331-27.793,52.467c-14.18,20.136-33.466,49.064-33.466,49.064s10.21-4.821,31.764-20.987
			c21.554-16.166,43.392-53.318,45.661-57.005c2.269-3.687,5.672-12.195,5.672-12.195L293.241,261.971z"/>
		<g>
			<path style="fill:#FFFFFF;stroke:#263238;strokeLinecap:round;strokeLinejoin:round;stroke-miterlimit:10;" d="
				M175.431,405.643c0,0-4.06,2.61-10.441,5.22c-6.381,2.61-6.966,2.142-4.93,4.35c2.035,2.209,12.761-1.74,15.661-2.9
				c2.9-1.16,8.411-2.9,8.411-2.9s6.671,3.77,10.731,4.93c4.06,1.16,8.991-0.58,8.991-0.58s0.29-4.64-3.19-7.25
				s-11.021-8.701-13.631-8.411C184.422,398.392,175.431,405.643,175.431,405.643z"/>
			<path style="fill:#FFFFFF;stroke:#263238;strokeLinecap:round;strokeLinejoin:round;stroke-miterlimit:10;" d="
				M173.691,398.683c0,0-3.48-0.87-5.801,0.87c-2.32,1.74-4.93,7.251-5.22,8.701c-0.29,1.45,0.29,2.32,2.61,0.29
				c2.32-2.03,6.381-4.93,6.381-4.93l3.48-1.16L173.691,398.683z"/>
			<path style="fill:#FFFFFF;stroke:#263238;strokeLinecap:round;strokeLinejoin:round;stroke-miterlimit:10;" d="
				M182.682,396.072c0,0-6.961-2.32-8.411-0.29c-1.45,2.03-6.381,13.631-4.93,14.501c1.45,0.87,3.48-0.87,6.09-4.64
				s4.06-5.801,4.06-5.801l3.48-0.58L182.682,396.072z"/>
			<path style="fill:#FFFFFF;stroke:#263238;strokeLinecap:round;strokeLinejoin:round;stroke-miterlimit:10;" d="M195.113,398.67
				c0,0-9.076-7.09-11.344-5.389c-2.269,1.702-9.643,12.762-10.493,15.031c-0.851,2.269,3.12,1.135,6.239-1.702
				c3.12-2.836,6.807-5.956,6.807-5.956l7.09,3.687L195.113,398.67z"/>
			<path style="fill:#FFFFFF;stroke:#263238;strokeLinecap:round;strokeLinejoin:round;stroke-miterlimit:10;" d="
				M227.728,404.058c0,0-11.911-0.567-16.733-2.269c-4.821-1.702-14.464-5.389-17.3-5.105c-2.836,0.284-13.613,10.777-15.882,13.046
				c-2.269,2.269-2.04,2.88,0.228,3.163c2.269,0.284,7.713-3.447,10.265-5.432c2.552-1.985,5.105-3.12,5.105-3.12
				s3.971,5.672,6.807,8.225c2.836,2.552,9.643,4.538,12.195,4.254c2.552-0.284,4.821-0.851,4.821-0.851l9.643-0.284
				L227.728,404.058z"/>
		</g>
		<path style="fill:#92E3A9;stroke:#263238;strokeLinecap:round;strokeLinejoin:round;stroke-miterlimit:10;" d="M310.542,322.086
			c0,0-10.493,12.195-9.926,16.449c0.567,4.254,0.851,8.508,0.851,8.508l-7.657,46.228c0,0-6.523-3.12-6.523-0.567
			c0,2.552,0,2.552,0,2.552l-61.259,6.239l-0.567,21.554l97.561,0.284c0,0,4.821-5.389,5.388-7.374
			c0.567-1.985,11.344-36.302,14.18-72.32c2.836-36.018,1.418-52.184,0-55.02c-1.418-2.836-18.151-8.225-18.151-8.225"/>
		<path style="fill:#FFFFFF;stroke:#263238;strokeLinecap:round;strokeLinejoin:round;stroke-miterlimit:10;" d="M296.077,392.997
			c0,0,9.075,5.956,14.464,7.374"/>
		<g>
			<path style="fill:#FFFFFF;stroke:#263238;strokeLinecap:round;strokeLinejoin:round;stroke-miterlimit:10;" d="
				M211.012,335.473l7.001-22.433c0,0,4.435-4.224,7.392-9.293c2.957-5.069,2.957-14.573,2.535-16.263
				c-0.423-1.69,6.125-9.293,8.026-12.039c1.901-2.746,2.957-7.603,0.423-11.194c-2.535-3.591-3.802,2.323-5.491,5.069
				c-1.69,2.746-7.604,5.491-7.604,5.491l-6.336,5.069c0,0-10.349,9.082-10.983,10.349c-0.634,1.267-1.901,5.28-1.901,5.28
				l0.845,12.25l-5.491,21.332L211.012,335.473z"/>
			<path style="fill:none;stroke:#263238;strokeLinecap:round;strokeLinejoin:round;stroke-miterlimit:10;" d="M212.733,272.489
				c0,0,5.069-8.026,6.548-10.56c1.478-2.535,3.802-12.673,5.28-12.039c1.479,0.634,2.957,4.013,2.535,8.448
				c-0.422,4.435-5.703,14.573-5.703,14.573L212.733,272.489z"/>
			<path style="fill:#FFFFFF;stroke:#263238;strokeLinecap:round;strokeLinejoin:round;stroke-miterlimit:10;" d="
				M200.483,322.756l4.435-14.996l-1.901-24.078l5.914-11.405l16.263-2.112c0,0,9.927,5.28,10.771,5.28c0.845,0,0,2.323-1.901,2.746
				c-1.901,0.422-5.491-0.634-5.491-0.634l6.125,4.013c0,0-0.422,1.901-1.901,2.323c-1.478,0.422-4.435,0.422-4.435,0.422
				s5.28,3.379,4.013,4.013c-1.267,0.634-2.746,0.845-4.013,0.845c-1.267,0-4.013,0-4.013,0l-3.168-0.422l-4.858,1.901
				c0,0,3.379,8.66,3.168,12.884c-0.211,4.224-5.491,6.97-5.491,6.97"/>
			<path style="fill:none;stroke:#263238;strokeLinecap:round;strokeLinejoin:round;stroke-miterlimit:10;" d="M228.574,277.558
				c0,0-3.379-2.746-5.28-2.746c-1.901,0-13.517,2.112-13.517,2.112"/>
			<path style="fill:none;stroke:#263238;strokeLinecap:round;strokeLinejoin:round;stroke-miterlimit:10;" d="M228.363,284.317
				c0,0-5.491-2.957-7.181-2.957c-1.69,0-14.996,3.379-14.996,3.379"/>
		</g>
		<path style="fill:#92E3A9;stroke:#263238;strokeLinecap:round;strokeLinejoin:round;stroke-miterlimit:10;" d="M200.754,318.045
			l17.146,11.554c0,0-7.635,41.007-8.386,44.511c-0.751,3.504-6.257,12.765-9.01,15.518c-2.753,2.753-6.007,2.253-13.516,0.25
			c-7.509-2.002-14.016-8.009-13.766-15.768C173.472,366.351,200.754,318.045,200.754,318.045z"/>
	</g>
</g>
<g id="Device_1_">
	<g>
		
			<rect x="107.13" y="417.422" style="fill:#FFFFFF;stroke:#263238;strokeLinecap:round;strokeLinejoin:round;stroke-miterlimit:10;" width="4.984" height="1.534"/>
		
			<rect x="114.032" y="417.422" style="fill:#FFFFFF;stroke:#263238;strokeLinecap:round;strokeLinejoin:round;stroke-miterlimit:10;" width="4.984" height="1.534"/>
		
			<rect x="120.934" y="417.422" style="fill:#FFFFFF;stroke:#263238;strokeLinecap:round;strokeLinejoin:round;stroke-miterlimit:10;" width="4.984" height="1.534"/>
		
			<rect x="127.835" y="417.422" style="fill:#FFFFFF;stroke:#263238;strokeLinecap:round;strokeLinejoin:round;stroke-miterlimit:10;" width="4.984" height="1.534"/>
		
			<rect x="134.737" y="417.422" style="fill:#FFFFFF;stroke:#263238;strokeLinecap:round;strokeLinejoin:round;stroke-miterlimit:10;" width="4.984" height="1.534"/>
		
			<rect x="141.638" y="417.422" style="fill:#FFFFFF;stroke:#263238;strokeLinecap:round;strokeLinejoin:round;stroke-miterlimit:10;" width="4.984" height="1.534"/>
		
			<rect x="148.54" y="417.422" style="fill:#FFFFFF;stroke:#263238;strokeLinecap:round;strokeLinejoin:round;stroke-miterlimit:10;" width="4.984" height="1.534"/>
		
			<rect x="155.441" y="417.422" style="fill:#FFFFFF;stroke:#263238;strokeLinecap:round;strokeLinejoin:round;stroke-miterlimit:10;" width="4.985" height="1.534"/>
		
			<rect x="162.343" y="417.422" style="fill:#FFFFFF;stroke:#263238;strokeLinecap:round;strokeLinejoin:round;stroke-miterlimit:10;" width="4.984" height="1.534"/>
		
			<rect x="169.245" y="417.422" style="fill:#FFFFFF;stroke:#263238;strokeLinecap:round;strokeLinejoin:round;stroke-miterlimit:10;" width="4.984" height="1.534"/>
		
			<rect x="176.146" y="417.422" style="fill:#FFFFFF;stroke:#263238;strokeLinecap:round;strokeLinejoin:round;stroke-miterlimit:10;" width="4.984" height="1.534"/>
		
			<rect x="183.048" y="417.422" style="fill:#FFFFFF;stroke:#263238;strokeLinecap:round;strokeLinejoin:round;stroke-miterlimit:10;" width="4.984" height="1.534"/>
		
			<rect x="189.949" y="417.422" style="fill:#FFFFFF;stroke:#263238;strokeLinecap:round;strokeLinejoin:round;stroke-miterlimit:10;" width="4.985" height="1.534"/>
		
			<rect x="196.851" y="417.422" style="fill:#FFFFFF;stroke:#263238;strokeLinecap:round;strokeLinejoin:round;stroke-miterlimit:10;" width="4.984" height="1.534"/>
		
			<rect x="203.753" y="417.422" style="fill:#FFFFFF;stroke:#263238;strokeLinecap:round;strokeLinejoin:round;stroke-miterlimit:10;" width="4.984" height="1.534"/>
		
			<rect x="210.654" y="417.422" style="fill:#FFFFFF;stroke:#263238;strokeLinecap:round;strokeLinejoin:round;stroke-miterlimit:10;" width="4.984" height="1.534"/>
		
			<rect x="104.265" y="418.628" style="fill:#FFFFFF;stroke:#263238;strokeLinecap:round;strokeLinejoin:round;stroke-miterlimit:10;" width="123.389" height="4.344"/>
		
			<rect x="180.352" y="418.628" style="fill:#FFFFFF;stroke:#263238;strokeLinecap:round;strokeLinejoin:round;stroke-miterlimit:10;" width="47.302" height="4.344"/>
	</g>
	<g>
		<g>
			<polygon style="fill:#263238;stroke:#FFFFFF;strokeLinecap:round;strokeLinejoin:round;stroke-miterlimit:10;" points="
				142.77,380.621 45.761,380.621 26.278,277.458 123.287,277.458 			"/>
			<polygon style="fill:#263238;stroke:#FFFFFF;strokeLinecap:round;strokeLinejoin:round;stroke-miterlimit:10;" points="
				139.818,378.006 45.713,378.006 27.217,280.072 121.322,280.072 			"/>
			<polygon style="fill:#263238;stroke:#FFFFFF;strokeLinecap:round;strokeLinejoin:round;stroke-miterlimit:10;" points="
				121.698,370.212 51.731,370.212 37.979,297.398 107.946,297.398 			"/>
			
				<line style="fill:none;stroke:#263238;strokeLinecap:round;strokeLinejoin:round;stroke-miterlimit:10;" x1="37.979" y1="297.398" x2="27.217" y2="280.072"/>
			
				<line style="fill:#263238;stroke:#FFFFFF;strokeLinecap:round;strokeLinejoin:round;stroke-miterlimit:10;" x1="107.946" y1="297.398" x2="121.322" y2="280.072"/>
			
				<line style="fill:#263238;stroke:#FFFFFF;strokeLinecap:round;strokeLinejoin:round;stroke-miterlimit:10;" x1="121.698" y1="370.212" x2="139.818" y2="378.006"/>
			
				<line style="fill:#FFFFFF;stroke:#263238;strokeLinecap:round;strokeLinejoin:round;stroke-miterlimit:10;" x1="51.731" y1="370.212" x2="45.713" y2="378.006"/>
		</g>
		<polygon style="fill:#263238;stroke:#FFFFFF;strokeLinecap:round;strokeLinejoin:round;stroke-miterlimit:10;" points="
			80.18,348.405 64.253,348.405 74.389,339.355 90.316,339.355 		"/>
		
			<rect x="74.751" y="417.542" style="fill:#263238;stroke:#FFFFFF;strokeLinecap:round;strokeLinejoin:round;stroke-miterlimit:10;" width="58.278" height="5.792"/>
		<polygon style="fill:#263238;stroke:#FFFFFF;strokeLinecap:round;strokeLinejoin:round;stroke-miterlimit:10;" points="
			99.727,423.334 83.8,423.334 64.253,401.123 80.18,401.123 		"/>
		
			<rect x="64.253" y="348.767" style="fill:#263238;stroke:#FFFFFF;strokeLinecap:round;strokeLinejoin:round;stroke-miterlimit:10;" width="15.927" height="52.125"/>
	</g>
</g>
<g id="Table">
	<path style="fill:#FFFFFF;stroke:#263238;strokeLinecap:round;strokeLinejoin:round;stroke-miterlimit:10;" d="M313.411,413.417
		c0,0,2.836,5.956,9.926,9.643"/>
	
		<line style="fill:none;stroke:#263238;strokeLinecap:round;strokeLinejoin:round;stroke-miterlimit:10;" x1="14.063" y1="423.334" x2="470.268" y2="423.334"/>
</g>
</svg>
