<?xml version="1.0" encoding="utf-8"?>
<!-- Generator: Adobe Illustrator 27.5.0, SVG Export Plug-In . SVG Version: 6.00 Build 0)  -->
<svg version="1.1" xmlns="http://www.w3.org/2000/svg" xmlns:xlink="http://www.w3.org/1999/xlink" x="0px" y="0px"
	 viewBox="0 0 750 500" style="enable-background:new 0 0 750 500;" xml:space="preserve">
<g id="Background_Simple">
	<g>
		<path style="fill:#92E3A9;" d="M633.589,92.484C583.096,56.866,518.476,40.71,455.394,45.301
			c-40.317,2.934-80.119,16.302-111.46,43.305c-33.157,28.568-67.034,44.167-110.896,45.17
			c-55.39,1.267-115.284-11.949-161.618,27.501c-32.127,27.353-47.34,70.239-49.563,112.273
			c-2.086,39.437,6.5,80.126,25.515,114.487c13.842,25.014,32.703,47.287,55.832,63.518c38.556,27.057,86.256,35.482,132.109,32.63
			c44.157-2.746,89.009-23.363,133.251-19.701c53.633,4.44,144.741,42.484,230.514,12.007
			c100.943-35.868,148.956-163.829,119.508-265.267C704.493,162.678,673.968,120.968,633.589,92.484z"/>
		<path style="opacity:0.7;fill:#FFFFFF;" d="M633.589,92.484C583.096,56.866,518.476,40.71,455.394,45.301
			c-40.317,2.934-80.119,16.302-111.46,43.305c-33.157,28.568-67.034,44.167-110.896,45.17
			c-55.39,1.267-115.284-11.949-161.618,27.501c-32.127,27.353-47.34,70.239-49.563,112.273
			c-2.086,39.437,6.5,80.126,25.515,114.487c13.842,25.014,32.703,47.287,55.832,63.518c38.556,27.057,86.256,35.482,132.109,32.63
			c44.157-2.746,89.009-23.363,133.251-19.701c53.633,4.44,144.741,42.484,230.514,12.007
			c100.943-35.868,148.956-163.829,119.508-265.267C704.493,162.678,673.968,120.968,633.589,92.484z"/>
	</g>
</g>
<g id="Chart">
	<g>
		
			<rect x="291.234" y="394.293" style="fill:none;stroke:#263238;strokeLinecap:round;strokeLinejoin:round;stroke-miterlimit:10;" width="38.79" height="92.357"/>
		
			<rect x="236.744" y="415.626" style="fill:none;stroke:#263238;strokeLinecap:round;strokeLinejoin:round;stroke-miterlimit:10;" width="38.79" height="71.024"/>
		
			<rect x="182.253" y="445.193" style="fill:none;stroke:#263238;strokeLinecap:round;strokeLinejoin:round;stroke-miterlimit:10;" width="38.79" height="41.458"/>
		
			<rect x="127.763" y="471.909" style="fill:none;stroke:#263238;strokeLinecap:round;strokeLinejoin:round;stroke-miterlimit:10;" width="38.79" height="14.742"/>
		
			<rect x="73.272" y="479.803" style="fill:none;stroke:#263238;strokeLinecap:round;strokeLinejoin:round;stroke-miterlimit:10;" width="38.79" height="6.847"/>
	</g>
</g>
<g id="Chat">
	<g>
		<path style="fill:#263238;stroke:#263238;strokeLinecap:round;strokeLinejoin:round;stroke-miterlimit:10;" d="M709.161,312.517
			h-91.077c-2.414,0-4.372-1.957-4.372-4.371v-79.012c0-2.414,1.957-4.372,4.372-4.372h91.077c2.414,0,4.372,1.957,4.372,4.372
			v79.012C713.532,310.559,711.575,312.517,709.161,312.517z"/>
		<path style="fill:#FFFFFF;stroke:#263238;strokeLinecap:round;strokeLinejoin:round;stroke-miterlimit:10;" d="M705.993,307.766
			h-91.077c-2.414,0-4.371-1.957-4.371-4.372v-79.011c0-2.414,1.957-4.372,4.371-4.372h91.077c2.414,0,4.372,1.957,4.372,4.372
			v79.011C710.365,305.809,708.408,307.766,705.993,307.766z"/>
		<path style="fill:#92E3A9;stroke:#263238;strokeLinecap:round;strokeLinejoin:round;stroke-miterlimit:10;" d="M710.365,231.107
			v-6.724c0-2.414-1.957-4.372-4.372-4.372h-91.077c-2.414,0-4.371,1.957-4.371,4.372v6.724H710.365z"/>
		<g>
			
				<circle style="fill:#FFFFFF;stroke:#263238;strokeLinecap:round;strokeLinejoin:round;stroke-miterlimit:10;" cx="684.034" cy="225.844" r="2.673"/>
			<path style="fill:#FFFFFF;stroke:#263238;strokeLinecap:round;strokeLinejoin:round;stroke-miterlimit:10;" d="
				M695.172,225.844c0-1.476-1.197-2.673-2.673-2.673c-1.476,0-2.673,1.197-2.673,2.673c0,1.476,1.197,2.673,2.673,2.673
				C693.976,228.517,695.172,227.321,695.172,225.844z"/>
			
				<circle style="fill:#FFFFFF;stroke:#263238;strokeLinecap:round;strokeLinejoin:round;stroke-miterlimit:10;" cx="700.964" cy="225.844" r="2.673"/>
		</g>
		<path style="fill:none;stroke:#263238;stroke-miterlimit:10;" d="M697.998,237.126H624.11c-1.264,0-2.289,1.025-2.289,2.289
			v19.693v8.347l5.333-8.347h70.844c1.264,0,2.289-1.025,2.289-2.289v-17.404C700.287,238.151,699.263,237.126,697.998,237.126z"/>
		<path style="fill:none;stroke:#263238;stroke-miterlimit:10;" d="M624.11,272.185h73.888c1.264,0,2.289,1.025,2.289,2.289v19.693
			v8.348l-5.333-8.348H624.11c-1.264,0-2.289-1.025-2.289-2.289v-17.404C621.821,273.21,622.846,272.185,624.11,272.185z"/>
		<g>
			<g>
				
					<circle style="fill:#92E3A9;stroke:#263238;strokeLinecap:round;strokeLinejoin:round;stroke-miterlimit:10;" cx="635.316" cy="247.977" r="6.678"/>
				
					<circle style="fill:#FFFFFF;stroke:#263238;strokeLinecap:round;strokeLinejoin:round;stroke-miterlimit:10;" cx="635.316" cy="246.03" r="2.783"/>
				<path style="fill:#FFFFFF;stroke:#263238;strokeLinecap:round;strokeLinejoin:round;stroke-miterlimit:10;" d="
					M635.316,254.656c1.458,0,2.803-0.473,3.902-1.266c-0.026-2.135-1.76-3.859-3.902-3.859c-2.141,0-3.876,1.724-3.902,3.859
					C632.513,254.183,633.858,254.656,635.316,254.656z"/>
			</g>
			<g>
				<line style="fill:none;stroke:#263238;stroke-miterlimit:10;" x1="646.729" y1="242.417" x2="669.423" y2="242.417"/>
				<line style="fill:none;stroke:#263238;stroke-miterlimit:10;" x1="647.201" y1="248.879" x2="694.009" y2="248.879"/>
				<line style="fill:none;stroke:#263238;stroke-miterlimit:10;" x1="647.201" y1="252.976" x2="694.009" y2="252.976"/>
			</g>
		</g>
		<g>
			<g>
				
					<circle style="fill:#263238;stroke:#263238;strokeLinecap:round;strokeLinejoin:round;stroke-miterlimit:10;" cx="635.316" cy="283.753" r="6.678"/>
				
					<circle style="fill:#FFFFFF;stroke:#263238;strokeLinecap:round;strokeLinejoin:round;stroke-miterlimit:10;" cx="635.316" cy="281.805" r="2.783"/>
				<path style="fill:#FFFFFF;stroke:#263238;strokeLinecap:round;strokeLinejoin:round;stroke-miterlimit:10;" d="
					M635.316,290.431c1.458,0,2.803-0.473,3.902-1.266c-0.026-2.135-1.76-3.859-3.902-3.859c-2.141,0-3.876,1.724-3.902,3.859
					C632.513,289.958,633.858,290.431,635.316,290.431z"/>
			</g>
			<g>
				<line style="fill:none;stroke:#263238;stroke-miterlimit:10;" x1="646.729" y1="278.192" x2="669.423" y2="278.192"/>
				<line style="fill:none;stroke:#263238;stroke-miterlimit:10;" x1="647.201" y1="284.654" x2="694.009" y2="284.654"/>
				<line style="fill:none;stroke:#263238;stroke-miterlimit:10;" x1="647.201" y1="288.752" x2="694.009" y2="288.752"/>
			</g>
		</g>
	</g>
</g>
<g id="Wifi">
	<g>
		<path style="fill:#263238;" d="M687.07,111.207c16.804,0.261,30.825,6.635,41.867,19.384c1.508,1.741,1.323,4.157-0.359,5.602
			c-1.604,1.378-3.99,1.203-5.464-0.51c-4.014-4.661-8.668-8.52-14.121-11.381c-17.097-8.973-37.548-6.773-52.277,5.689
			c-2.03,1.717-3.836,3.709-5.666,5.65c-1.585,1.681-3.924,1.95-5.599,0.506c-1.654-1.426-1.78-3.854-0.271-5.603
			c9.254-10.725,20.897-17.065,34.93-19.003c1.099-0.152,2.207-0.27,3.315-0.32C684.637,111.165,685.855,111.207,687.07,111.207z"/>
		<path style="fill:#263238;" d="M688.458,126.788c10.621,0.275,20.605,4.812,28.463,13.892c1.55,1.791,1.368,4.102-0.352,5.58
			c-1.638,1.407-4.008,1.217-5.521-0.534c-4.099-4.746-9.069-8.227-15.127-9.862c-12.346-3.333-23.02-0.293-31.96,8.845
			c-0.333,0.34-0.639,0.705-0.955,1.061c-1.475,1.662-3.862,1.885-5.475,0.51c-1.701-1.449-1.877-3.843-0.39-5.596
			c3.501-4.127,7.669-7.409,12.519-9.816C675.157,128.139,680.982,126.813,688.458,126.788z"/>
		<path style="fill:#263238;" d="M705.932,153.359c-0.002,1.617-0.979,3.048-2.482,3.634c-1.514,0.59-3.195,0.197-4.328-1.086
			c-1.67-1.891-3.596-3.421-5.932-4.41c-6.376-2.702-13.411-1.023-18.153,4.333c-1.125,1.27-2.528,1.731-4.15,1.239
			c-1.56-0.473-2.461-1.597-2.702-3.207c-0.169-1.134,0.172-2.142,0.902-3.021c8.121-9.792,23.062-11.179,32.832-3.015
			c1.11,0.928,2.153,1.966,3.072,3.081c0.54,0.656,0.773,1.564,1.145,2.36C706.068,153.296,706,153.328,705.932,153.359z"/>
		<path style="fill:#263238;" d="M687.057,173.759c-4.357,0.002-7.817-3.455-7.814-7.807c0.003-4.283,3.483-7.766,7.779-7.782
			c4.316-0.017,7.819,3.495,7.807,7.827C694.819,170.311,691.368,173.757,687.057,173.759z"/>
	</g>
</g>
<g id="Internet">
	<g>
		
			<ellipse transform="matrix(0.7071 -0.7071 0.7071 0.7071 -102.7692 521.7189)" style="fill:none;stroke:#263238;strokeWidth:2;strokeLinecap:round;strokeLinejoin:round;stroke-miterlimit:10;" cx="578.386" cy="384.913" rx="67.04" ry="67.04"/>
		
			<ellipse style="fill:none;stroke:#263238;strokeWidth:2;strokeLinecap:round;strokeLinejoin:round;stroke-miterlimit:10;" cx="578.386" cy="384.913" rx="33.161" ry="67.04"/>
		<path style="fill:none;stroke:#263238;strokeWidth:2;strokeLinecap:round;strokeLinejoin:round;stroke-miterlimit:10;" d="
			M532.257,337.496c12.018,11.4,28.257,18.394,46.129,18.394c18.191,0,34.689-7.245,46.767-19.007"/>
		<path style="fill:none;stroke:#263238;strokeWidth:2;strokeLinecap:round;strokeLinejoin:round;stroke-miterlimit:10;" d="
			M624.708,432.514c-12.037-11.508-28.354-18.577-46.323-18.577c-18.306,0-34.898,7.337-46.996,19.231"/>
		
			<line style="fill:none;stroke:#263238;strokeWidth:2;strokeLinecap:round;strokeLinejoin:round;stroke-miterlimit:10;" x1="511.345" y1="384.913" x2="645.428" y2="384.913"/>
		
			<line style="fill:none;stroke:#263238;strokeWidth:2;strokeLinecap:round;strokeLinejoin:round;stroke-miterlimit:10;" x1="578.386" y1="317.872" x2="578.386" y2="451.955"/>
	</g>
</g>
<g id="Share">
	<path style="fill:#263238;" d="M580.831,255.536c-1.641,0-3.149,0.553-4.362,1.474l-17.325-12.993
		c0.306-0.802,0.482-1.668,0.482-2.577c0-3.992-3.237-7.229-7.229-7.229c-3.992,0-7.229,3.236-7.229,7.229
		c0,3.992,3.236,7.229,7.229,7.229c1.641,0,3.149-0.553,4.362-1.474l17.325,12.993c-0.307,0.802-0.482,1.668-0.482,2.578
		c0,0.909,0.175,1.776,0.482,2.577l-17.325,12.993c-1.213-0.921-2.721-1.474-4.362-1.474c-3.992,0-7.229,3.237-7.229,7.229
		c0,3.992,3.236,7.229,7.229,7.229c3.992,0,7.229-3.237,7.229-7.229c0-0.909-0.175-1.776-0.482-2.578l17.324-12.993
		c1.213,0.921,2.721,1.474,4.362,1.474c3.992,0,7.229-3.236,7.229-7.229S584.823,255.536,580.831,255.536z"/>
</g>
<g id="Ubication">
	<path style="fill:#263238;stroke:#263238;strokeLinecap:round;strokeLinejoin:round;stroke-miterlimit:10;" d="M491.403,105.197
		c-10.061,0-18.217,8.156-18.217,18.217c0,10.061,18.217,30.638,18.217,30.638s18.217-20.577,18.217-30.638
		C509.62,113.354,501.464,105.197,491.403,105.197z M491.403,131.695c-4.573,0-8.281-3.707-8.281-8.281
		c0-4.573,3.707-8.281,8.281-8.281c4.573,0,8.281,3.707,8.281,8.281C499.684,127.988,495.976,131.695,491.403,131.695z"/>
	<path style="fill:#263238;stroke:#263238;strokeLinecap:round;strokeLinejoin:round;stroke-miterlimit:10;" d="M679.376,350.483
		c-6.345,0-11.488,5.143-11.488,11.488c0,6.345,11.488,19.321,11.488,19.321s11.488-12.976,11.488-19.321
		C690.864,355.627,685.72,350.483,679.376,350.483z M679.376,367.193c-2.884,0-5.222-2.338-5.222-5.222
		c0-2.884,2.338-5.222,5.222-5.222c2.884,0,5.222,2.338,5.222,5.222C684.598,364.855,682.26,367.193,679.376,367.193z"/>
</g>
<g id="Device">
	<g>
		<path style="fill:none;stroke:#263238;stroke-miterlimit:10;" d="M621.931,38.812v160.2c0,4.781-3.693,8.658-8.246,8.658h-70.702
			c-4.553,0-8.246-3.877-8.246-8.658v-160.2c0-4.785,3.693-8.658,8.246-8.658h70.702C618.239,30.154,621.931,34.027,621.931,38.812z
			"/>
		<path style="fill:#92E3A9;stroke:#263238;strokeLinecap:round;strokeLinejoin:round;stroke-miterlimit:10;" d="M621.931,42.351
			v-3.539c0-4.785-3.693-8.658-8.246-8.658h-70.702c-4.553,0-8.246,3.873-8.246,8.658v3.539H621.931z"/>
		<path style="fill:#263238;stroke:#263238;stroke-miterlimit:10;" d="M624.275,36.465v5.453h1.615v15.495h-1.615v3.522h1.615
			v15.495h-1.615v3.522h1.615v15.495h-1.615v105.91c0,5.573-4.303,10.09-9.61,10.09h-72.661c-5.307,0-9.61-4.518-9.61-10.09V69.809
			h-1.153V54.314h1.153V36.465c0-5.573,4.302-10.09,9.61-10.09h72.661C619.972,26.375,624.275,30.892,624.275,36.465z
			 M599.149,30.152l-2.836,4.431c-0.851,1.33-2.276,2.127-3.802,2.127h-28.353c-1.526,0-2.951-0.798-3.802-2.127l-2.836-4.431
			h-13.172c-5.307,0-9.61,4.518-9.61,10.09v157.337c0,5.573,4.302,10.09,9.61,10.09h67.974c5.307,0,9.61-4.518,9.61-10.09V40.242
			c0-5.573-4.303-10.09-9.61-10.09H599.149z"/>
		<path style="fill:#92E3A9;stroke:#263238;strokeLinecap:round;strokeLinejoin:round;stroke-miterlimit:10;" d="M534.737,196.534
			v2.477c0,4.781,3.693,8.658,8.246,8.658h70.702c4.553,0,8.246-3.877,8.246-8.658v-2.477H534.737z"/>
	</g>
</g>
<g id="Cloud_2">
	<g>
		<path style="fill:#263238;stroke:#263238;strokeLinecap:round;strokeLinejoin:round;stroke-miterlimit:10;" d="M511.68,242.806
			c-5.597-11.47-17.555-19.396-31.405-19.396c-16.273,0-29.932,10.94-33.732,25.716c-0.558-0.042-1.116-0.083-1.685-0.083
			c-11.982,0-21.695,9.509-21.695,21.238c0,10.787,8.222,19.675,18.861,21.037v0.202h65.427c13.841,0,25.061-10.984,25.061-24.534
			C532.512,254.848,523.506,244.775,511.68,242.806z"/>
		<path style="fill:#FFFFFF;stroke:#263238;strokeLinecap:round;strokeLinejoin:round;stroke-miterlimit:10;" d="M508.582,239.191
			c-5.597-11.47-17.554-19.396-31.405-19.396c-16.273,0-29.932,10.94-33.732,25.716c-0.558-0.042-1.116-0.083-1.685-0.083
			c-11.982,0-21.695,9.509-21.695,21.238c0,10.787,8.222,19.674,18.861,21.037v0.202h65.426c13.841,0,25.062-10.984,25.062-24.534
			C529.414,251.232,520.407,241.16,508.582,239.191z"/>
		<polygon style="fill:#263238;stroke:#263238;strokeLinecap:round;strokeLinejoin:round;stroke-miterlimit:10;" points="
			498.495,277.672 475.788,238.343 453.081,277.672 459.798,277.672 459.798,302.781 491.778,302.781 491.778,277.672 		"/>
		<polygon style="fill:#92E3A9;stroke:#263238;strokeLinecap:round;strokeLinejoin:round;stroke-miterlimit:10;" points="
			496.429,275.606 473.722,236.277 451.016,275.606 457.733,275.606 457.733,300.716 489.712,300.716 489.712,275.606 		"/>
	</g>
</g>
<g id="Clouds_1">
	<g>
		<g>
			<path style="fill:none;stroke:#263238;strokeLinecap:round;strokeLinejoin:round;stroke-miterlimit:10;" d="M250.498,74.751
				c-1.01,0.784-2.046,1.284-3.082,1.514c-3.09,0.687-11.328,0.343-12.702,4.119c-1.373,3.776-5.149,4.806-5.149,4.806
				s-6.522,0.343-6.866,1.716c-0.343,1.373-2.746,3.776-2.746,3.776h112.253c0,0,3.776-5.836-2.403-11.328
				c-5.407-4.806-15.281,2.478-16.516-3.445"/>
			<path style="fill:none;stroke:#263238;strokeLinecap:round;strokeLinejoin:round;stroke-miterlimit:10;" d="M312.271,67.17
				c-1.253-4.515-3.889-10.61-9.243-12.876c-8.925-3.776-16.478,1.373-18.537,6.522c-2.06,5.149-3.433,8.582-11.328,4.119
				c-7.896-4.463-14.761-4.119-17.164,1.716c-0.783,1.903-1.64,3.513-2.545,4.844"/>
		</g>
		<path style="fill:none;stroke:#263238;strokeLinecap:round;strokeLinejoin:round;stroke-miterlimit:10;" d="M84.509,134.605
			h38.984c0,0,2.284-3.53-1.453-6.852c-3.738-3.322-11.005,2.907-9.966-4.153c0,0-0.831-8.72-6.229-11.004
			c-3.416-1.445-6.5-0.729-8.62,0.782"/>
		<path style="fill:none;stroke:#263238;strokeLinecap:round;strokeLinejoin:round;stroke-miterlimit:10;" d="M94.632,116.541
			c-1.246,3.115-2.076,5.191-6.852,2.492c-4.776-2.699-8.928-2.492-10.382,1.038c-1.453,3.53-3.322,5.398-5.191,5.814
			c-1.869,0.415-6.852,0.208-7.682,2.492c-0.831,2.284-3.114,2.907-3.114,2.907s-3.945,0.208-4.153,1.038
			c-0.208,0.83-1.661,2.284-1.661,2.284h22.795"/>
		<path style="fill:none;stroke:#263238;strokeLinecap:round;strokeLinejoin:round;stroke-miterlimit:10;" d="M99.42,406.816
			h18.413c0,0,2.284-3.53-1.454-6.852c-3.737-3.322-11.004,2.907-9.966-4.153c0,0-0.83-8.72-6.229-11.004
			c-5.398-2.284-9.966,0.831-11.212,3.945c-1.246,3.114-2.076,5.191-6.852,2.492c-4.776-2.699-8.928-2.492-10.382,1.038
			c-1.453,3.53-3.322,5.398-5.191,5.814c-1.869,0.415-6.852,0.208-7.682,2.492c-0.83,2.284-3.114,2.907-3.114,2.907
			s-3.945,0.208-4.153,1.038c-0.208,0.831-1.661,2.284-1.661,2.284h43.366"/>
		<path style="fill:none;stroke:#263238;strokeLinecap:round;strokeLinejoin:round;stroke-miterlimit:10;" d="M224.428,271.982
			h31.129c0,0,3.861-5.967-2.457-11.584c-6.318-5.616-18.604,4.914-16.849-7.02c0,0-1.404-14.743-10.531-18.604
			c-9.126-3.861-16.849,1.404-18.955,6.669c-2.106,5.265-3.51,8.775-11.583,4.212c-8.073-4.563-15.094-4.212-17.551,1.755
			c-2.457,5.967-5.616,9.127-8.775,9.829c-3.159,0.702-11.583,0.351-12.988,4.212c-1.404,3.861-5.265,4.914-5.265,4.914
			s-6.669,0.351-7.02,1.755c-0.351,1.404-2.808,3.861-2.808,3.861h73.314"/>
	</g>
</g>
<g id="Squares">
	<g>
		<g>
			
				<rect x="361.231" y="58.426" style="fill:none;stroke:#263238;strokeLinecap:round;strokeLinejoin:round;stroke-miterlimit:10;" width="27.59" height="27.59"/>
			
				<rect x="402.197" y="84.343" style="fill:none;stroke:#263238;strokeLinecap:round;strokeLinejoin:round;stroke-miterlimit:10;" width="13.377" height="13.377"/>
			
				<rect x="380.46" y="112.769" style="fill:none;stroke:#263238;strokeLinecap:round;strokeLinejoin:round;stroke-miterlimit:10;" width="8.361" height="8.361"/>
			
				<rect x="400.525" y="119.457" style="fill:none;stroke:#263238;strokeLinecap:round;strokeLinejoin:round;stroke-miterlimit:10;" width="5.852" height="5.852"/>
			
				<rect x="398.719" y="342" style="fill:none;stroke:#263238;strokeLinecap:round;strokeLinejoin:round;stroke-miterlimit:10;" width="6.688" height="6.688"/>
			
				<rect x="472.425" y="196.374" style="fill:none;stroke:#263238;strokeLinecap:round;strokeLinejoin:round;stroke-miterlimit:10;" width="9.196" height="9.196"/>
			
				<rect x="397.181" y="220.619" style="fill:none;stroke:#263238;strokeLinecap:round;strokeLinejoin:round;stroke-miterlimit:10;" width="8.361" height="8.361"/>
			
				<rect x="368.893" y="248.369" style="fill:none;stroke:#263238;strokeLinecap:round;strokeLinejoin:round;stroke-miterlimit:10;" width="18.393" height="18.393"/>
			
				<rect x="424.77" y="320.109" style="fill:none;stroke:#263238;strokeLinecap:round;strokeLinejoin:round;stroke-miterlimit:10;" width="7.524" height="7.524"/>
			
				<rect x="357.051" y="392.845" style="fill:none;stroke:#263238;strokeLinecap:round;strokeLinejoin:round;stroke-miterlimit:10;" width="22.573" height="22.573"/>
			
				<rect x="407.213" y="432.975" style="fill:none;stroke:#263238;strokeLinecap:round;strokeLinejoin:round;stroke-miterlimit:10;" width="11.705" height="11.705"/>
			
				<rect x="370.427" y="359.403" style="fill:none;stroke:#263238;strokeLinecap:round;strokeLinejoin:round;stroke-miterlimit:10;" width="16.721" height="16.721"/>
			
				<rect x="400.525" y="389.5" style="fill:none;stroke:#263238;strokeLinecap:round;strokeLinejoin:round;stroke-miterlimit:10;" width="8.36" height="8.361"/>
			
				<rect x="378.788" y="434.647" style="fill:none;stroke:#263238;strokeLinecap:round;strokeLinejoin:round;stroke-miterlimit:10;" width="8.36" height="8.361"/>
			
				<rect x="423.098" y="422.106" style="fill:none;stroke:#263238;strokeLinecap:round;strokeLinejoin:round;stroke-miterlimit:10;" width="10.869" height="10.869"/>
			
				<rect x="471.589" y="433.811" style="fill:none;stroke:#263238;strokeLinecap:round;strokeLinejoin:round;stroke-miterlimit:10;" width="5.016" height="5.016"/>
			
				<rect x="438.983" y="460.565" style="fill:none;stroke:#263238;strokeLinecap:round;strokeLinejoin:round;stroke-miterlimit:10;" width="8.36" height="8.36"/>
			
				<rect x="474.933" y="341.01" style="fill:none;stroke:#263238;strokeLinecap:round;strokeLinejoin:round;stroke-miterlimit:10;" width="6.688" height="6.688"/>
			
				<rect x="433.967" y="48.393" style="fill:none;stroke:#263238;strokeLinecap:round;strokeLinejoin:round;stroke-miterlimit:10;" width="8.36" height="8.361"/>
			
				<rect x="383.804" y="33.345" style="fill:none;stroke:#263238;strokeLinecap:round;strokeLinejoin:round;stroke-miterlimit:10;" width="15.049" height="15.049"/>
		</g>
		<polyline style="fill:none;stroke:#263238;strokeLinecap:round;strokeLinejoin:round;stroke-miterlimit:10;" points="
			346.649,26.713 346.649,70.12 355.884,70.12 355.884,87.668 343.935,87.668 343.935,116.299 366.044,116.299 366.044,138.465 
			355.884,138.465 355.884,147.7 345.256,147.7 345.256,230.822 371.585,230.822 371.585,240.057 357.458,240.057 357.458,277.924 
			345.725,277.924 345.725,293.624 356.808,293.624 356.808,352.733 344.802,352.733 344.802,373.975 354.961,373.975 
			354.961,385.981 345.725,385.981 345.725,409.07 353.126,409.07 353.126,436.633 363.908,436.633 363.908,459.504 
			343.652,459.504 343.652,474.533 354.107,474.533 354.107,487.275 		"/>
	</g>
</g>
<g id="Character">
	<g>
		<g>
			<path style="fill:#FFFFFF;stroke:#263238;strokeLinecap:round;strokeLinejoin:round;stroke-miterlimit:10;" d="
				M207.695,320.867c0,0-5.421-3.162-6.55-4.291s-10.39-11.745-12.648-11.067c-2.259,0.678-5.195,5.647-7.679,9.938
				c-2.484,4.291-10.164,13.326-12.196,19.424c-2.033,6.098,0.904,5.195,2.033,4.291c1.129-0.903,11.067-7.002,16.036-9.26
				s7.228-2.936,7.228-2.936l8.809,3.84L207.695,320.867z"/>
			<path style="fill:#FFFFFF;stroke:#263238;strokeLinecap:round;strokeLinejoin:round;stroke-miterlimit:10;" d="
				M198.425,313.648c-3.249-3.467-8.333-8.618-9.928-8.139c-2.259,0.678-5.195,5.647-7.679,9.938
				c-2.484,4.291-10.164,13.326-12.197,19.424c-2.033,6.098,0.904,5.195,2.033,4.291c1.129-0.903,11.067-7.002,16.036-9.26
				c2.118-0.963,3.739-1.636,4.907-2.094l-4.23-4.23C187.368,323.578,193.65,316.697,198.425,313.648z"/>
			<path style="fill:#FFFFFF;stroke:#263238;strokeLinecap:round;strokeLinejoin:round;stroke-miterlimit:10;" d="M191.26,306.792
				c-0.118-0.089-0.236-0.18-0.349-0.262c-0.023-0.017-0.047-0.035-0.07-0.052c-0.179-0.127-0.35-0.242-0.517-0.348
				c-0.047-0.03-0.092-0.056-0.137-0.084c-0.13-0.079-0.255-0.15-0.376-0.214c-0.038-0.02-0.078-0.043-0.115-0.061
				c-0.148-0.074-0.29-0.135-0.422-0.182c-0.028-0.01-0.053-0.015-0.08-0.023c-0.106-0.033-0.205-0.056-0.299-0.069
				c-0.032-0.005-0.064-0.009-0.095-0.011c-0.11-0.007-0.214-0.004-0.303,0.023c-2.259,0.678-5.195,5.647-7.679,9.938
				c-2.484,4.291-10.164,13.326-12.197,19.424c-0.875,2.625-0.827,3.948-0.401,4.536c1.961-6.135,8.937-15.165,14.856-22.379
				C187.375,311.789,189.906,308.559,191.26,306.792z"/>
		</g>
		<g>
			<path style="fill:#FFFFFF;stroke:#263238;strokeLinecap:round;strokeLinejoin:round;stroke-miterlimit:10;" d="
				M451.258,338.981c0,0,11.519-7.453,14.455-9.938c2.936-2.484,6.776-5.195,7.679-3.388c0.903,1.807,0.226,7.228-2.936,14.229
				c-3.162,7.002-11.293,16.94-11.971,17.843c-0.678,0.903-1.355,3.614-4.743,3.84c-3.388,0.226-10.164-7.905-10.164-7.905
				L451.258,338.981z"/>
			<path style="fill:#FFFFFF;stroke:#263238;strokeLinecap:round;strokeLinejoin:round;stroke-miterlimit:10;" d="
				M453.742,361.567c3.388-0.226,4.065-2.936,4.743-3.84c0.678-0.903,8.809-10.841,11.971-17.843
				c3.162-7.002,3.84-12.422,2.936-14.229c-0.175-0.349-0.461-0.526-0.828-0.572c-0.271,2.272-1.04,6.445-3.238,11.865
				c-2.338,5.768-11.237,17.665-16.528,24.485C453.132,361.526,453.453,361.586,453.742,361.567z"/>
		</g>
		<path style="fill:#263238;stroke:#263238;strokeLinecap:round;strokeLinejoin:round;stroke-miterlimit:10;" d="M260.766,249.319
			c0,0-3.868,4.747-3.34,11.603c0.527,6.856,14.943,19.69,14.943,19.69s5.801-8.79,11.427-13.361
			c5.626-4.571,14.592-8.087,14.592-8.087l41.138,13.537c0,0,16.35-10.372,19.163-20.745c2.813-10.372-3.868-33.754-7.384-39.204
			c-3.516-5.45-5.45-10.372-5.45-10.372l-56.257,7.735c0,0,1.231,8.263-7.032,17.581
			C274.302,237.013,260.766,249.319,260.766,249.319z"/>
		<path style="fill:#263238;stroke:#263238;strokeLinecap:round;strokeLinejoin:round;stroke-miterlimit:10;" d="M291.05,259.096
			c0,0-4.517,17.617-3.388,24.619c1.129,7.002,4.291,11.971,4.291,11.971l-9.879,38.901l-76.187-15.752l-4.969,14.455
			c0,0,48.18,11.912,66.249,17.559c18.069,5.646,28.007,9.486,29.814,8.809c1.807-0.678,3.614-2.71,3.614-2.71l22.301-54.034
			l52.815,3.684c0,0,16.036,13.777,28.458,23.038c12.422,9.26,39.635,26.738,39.635,26.738s3.84-1.807,5.195-6.55
			c1.355-4.743,2.259-10.841,2.259-10.841s-2.484-2.484-4.291-3.388c-1.807-0.904-4.291-0.226-5.872-0.678
			c-1.581-0.452-37.151-34.869-41.216-38.709c-4.065-3.84-9.26-12.874-15.133-15.133s-45.813-12.04-45.813-12.04l-0.678-5.872
			L291.05,259.096z"/>
		<g>
			<path style="fill:#FFFFFF;stroke:#263238;strokeLinecap:round;strokeLinejoin:round;stroke-miterlimit:10;" d="
				M291.276,225.217c0,0,0.904,23.038,0.678,23.715c-0.226,0.678-2.033,9.26-0.903,10.164c1.129,0.903,41.558,5.872,43.591,5.872
				c2.033,0,3.388,0.452,3.614-1.807c0.226-2.259,0.452-4.517,0.452-4.517l12.197-47.431l-3.388-34.105l-53.981,4.291
				L291.276,225.217z"/>
			<g>
				<path style="fill:none;stroke:#263238;strokeLinecap:round;strokeLinejoin:round;stroke-miterlimit:10;" d="M323.643,230.669
					c1.631-1.208,2.653-1.968,2.653-1.968"/>
				<path style="fill:none;stroke:#263238;strokeLinecap:round;strokeLinejoin:round;stroke-miterlimit:10;" d="M292.324,253.633
					c0,0,6.027-5.205,9.315-7.123c2.239-1.306,12.867-9.095,19.418-13.929"/>
				<path style="fill:none;stroke:#263238;strokeLinecap:round;strokeLinejoin:round;stroke-miterlimit:10;" d="M326.022,219.935
					c0,0-14.794,15.616-22.191,21.917"/>
				<path style="fill:none;stroke:#263238;strokeLinecap:round;strokeLinejoin:round;stroke-miterlimit:10;" d="M322.677,253.514
					c-5.233,1.431-11.827,3.224-16.654,4.502"/>
				<path style="fill:none;stroke:#263238;strokeLinecap:round;strokeLinejoin:round;stroke-miterlimit:10;" d="M331.227,251.167
					c0,0-2.158,0.595-5.35,1.471"/>
			</g>
		</g>
		<g>
			<g>
				<g>
					<path style="fill:#FFFFFF;stroke:#263238;strokeLinecap:round;strokeLinejoin:round;stroke-miterlimit:10;" d="
						M428.659,113.598l10.548-17.405c0,0,4.571-7.911,4.923-6.681c0.352,1.231,0.527,1.406-0.176,2.813
						c-0.703,1.407-3.164,9.318-3.164,9.318l7.735-7.911c0,0,2.285-1.231,1.934,0.352c-0.352,1.582-5.45,8.263-5.45,8.263
						s9.142-3.692,9.493-2.637c0.352,1.055-8.614,6.856-8.614,6.856s9.142,0.352,8.966,1.407c-0.176,1.055-7.911,1.758-7.911,1.758
						s-1.055,2.285-5.274,5.274c-4.219,2.989-7.56,4.044-7.56,4.044L428.659,113.598z"/>
					<path style="fill:#FFFFFF;stroke:#263238;strokeLinecap:round;strokeLinejoin:round;stroke-miterlimit:10;" d="
						M433.405,109.203c0,0,4.747-0.879,8.439-3.34c3.692-2.461,7.032-4.571,7.032-3.34c0,1.231-4.219,4.747-4.747,5.098
						s-1.407,2.989-3.165,5.274c-1.758,2.285-6.505,4.219-6.505,4.219"/>
				</g>
				<polygon style="fill:#FFFFFF;stroke:#263238;strokeLinecap:round;strokeLinejoin:round;stroke-miterlimit:10;" points="
					423.912,116.763 429.538,111.84 436.218,120.455 431.12,124.85 				"/>
			</g>
			<path style="fill:#92E3A9;stroke:#263238;strokeLinecap:round;strokeLinejoin:round;stroke-miterlimit:10;" d="
				M341.987,188.315c0,0-0.176,3.34,4.219,15.295c4.395,11.955,10.021,32.875,11.251,38.853c1.231,5.977,1.231,9.493,1.231,9.493
				s5.45-13.713,5.274-27.777c-0.176-14.064-8.263-33.754-8.263-33.754s30.238-20.393,35.512-24.788
				c5.274-4.395,40.962-39.38,40.962-39.38l-8.263-9.493l-40.786,28.656l-34.633,17.581c0,0-7.032,4.043-8.087,5.977
				c-1.055,1.934-2.637,8.263-2.286,10.197C338.471,181.107,341.987,188.315,341.987,188.315z"/>
			<path style="fill:none;stroke:#263238;strokeLinecap:round;strokeLinejoin:round;stroke-miterlimit:10;" d="M350.184,206.599
				c0.593,1.362,1.209,2.285,1.297,2.637"/>
			<path style="fill:none;stroke:#263238;strokeLinecap:round;strokeLinejoin:round;stroke-miterlimit:10;" d="M343.042,173.02
				l6.329,14.768l-5.802-1.231l6.681,5.626c0,0-1.231,4.923-1.231,9.142c0,1.411,0.256,2.685,0.603,3.782"/>
			
				<line style="fill:none;stroke:#263238;strokeLinecap:round;strokeLinejoin:round;stroke-miterlimit:10;" x1="367.007" y1="163.783" x2="368.534" y2="160.186"/>
			<polyline style="fill:none;stroke:#263238;strokeLinecap:round;strokeLinejoin:round;stroke-miterlimit:10;" points="
				355.348,166.867 355.7,190.425 365.537,167.247 			"/>
		</g>
		<path style="fill:#263238;stroke:#263238;strokeLinecap:round;strokeLinejoin:round;stroke-miterlimit:10;" d="M326.063,189.776
			l6.072,7.877c0,0,1.805-0.492,4.267-2.954c2.462-2.462,4.923-7.713,5.252-8.698c0.328-0.985-3.118-3.939-3.118-3.939
			l-16.411,0.656L326.063,189.776z"/>
		<g>
			<path style="fill:#FFFFFF;stroke:#263238;strokeLinecap:round;strokeLinejoin:round;stroke-miterlimit:10;" d="
				M328.376,131.154c0,0,9.361,3.837,9.975,5.525c0.614,1.688,1.074,5.371,1.074,5.371s10.282,3.376,9.822,5.525
				c-0.46,2.148-3.99,4.45-3.99,4.45s1.842,4.911,2.455,8.287c0.614,3.376,0.307,5.064-0.767,7.059
				c-1.074,1.995-3.069,3.376-3.069,3.376s-3.99,8.901-5.525,13.505c-1.535,4.604-2.302,6.906-4.604,5.985
				c-2.302-0.921-3.376-2.455-3.376-2.455s-3.99-8.594-7.059-11.663c-3.069-3.069-5.832-4.757-6.292-5.064
				c-0.46-0.307-2.762-1.535-2.762-3.53c0-1.995,2.762-3.836,2.762-3.836s-7.52-0.153-8.747-9.515
				c-1.228-9.361,7.52-17.955,10.742-20.564C322.237,131.001,328.376,131.154,328.376,131.154z"/>
			<path style="fill:#263238;" d="M337.468,143.618c0.556,0.951,0.681,1.913,0.279,2.148c-0.402,0.235-1.18-0.345-1.736-1.296
				c-0.556-0.951-0.681-1.913-0.279-2.148C336.134,142.087,336.911,142.667,337.468,143.618z"/>
			<path style="fill:none;stroke:#263238;strokeLinecap:round;strokeLinejoin:round;stroke-miterlimit:10;" d="M332.673,142.05
				c0,0,0.46-2.609,3.529-2.916"/>
			<g>
				<path style="fill:#263238;stroke:#263238;strokeLinecap:round;strokeLinejoin:round;stroke-miterlimit:10;" d="
					M332.673,129.159c0,0,0.153,0.921-1.995,1.995c-2.148,1.074-5.985,3.069-9.054,6.139c-3.069,3.069-0.614,2.609,0.614,3.223
					c1.228,0.614,1.842,1.228,0.307,4.143c-1.535,2.916-1.535,3.99-1.535,3.99s9.668,8.287,11.356,9.668
					c1.688,1.381,3.53,0.921,3.53,0.921s6.292-5.678,7.827-6.445c1.535-0.767,1.535-0.767,1.535-0.767s2.302,1.381,3.53,5.831
					c1.228,4.45,3.069,10.589,1.842,11.97c-1.228,1.381-8.134,1.535-15.039,0.614c-6.906-0.921-8.747-5.525-9.515-7.673
					c-0.767-2.149-4.297-9.361-6.292-10.435c-1.995-1.074-4.757,0.921-3.223,5.064c1.535,4.143,7.52,5.064,7.673,5.678
					c0.154,0.614-1.381,3.223-4.604,4.604c-3.223,1.381-4.757,0.46-5.371-0.154c-0.614-0.614-3.376,1.074-11.51-9.208
					c-8.133-10.282-7.673-11.816-6.906-14.272c0.767-2.455,8.901-15.806,13.965-19.336c5.064-3.53,7.52-3.683,7.98-2.148
					c0.46,1.535,0,2.762,0,2.762s4.143-6.292,11.203-3.223S332.673,129.159,332.673,129.159z"/>
				<path style="fill:none;stroke:#FFFFFF;strokeLinecap:round;strokeLinejoin:round;stroke-miterlimit:10;" d="M340.346,158.01
					c0,0,1.995,1.842,6.138,0.767"/>
			</g>
		</g>
		<g>
			<g>
				<path style="fill:#92E3A9;stroke:#263238;strokeLinecap:round;strokeLinejoin:round;stroke-miterlimit:10;" d="
					M312.277,171.559l-5.099,3.219c0,0-20.569,0-21.975,1.406c-1.406,1.406-40.611,36.216-40.962,37.974
					c-0.352,1.758-12.834,44.127-12.834,44.127l13.361,5.274l18.284-40.435l22.503-11.427c0,0-0.352,5.626-4.922,13.361
					s-19.866,24.261-19.866,24.261s15.647-13.185,25.14-17.581c9.493-4.395,15.471-1.934,23.03-11.427
					c7.56-9.493,11.779-17.229,11.603-24.788C320.363,187.963,312.277,171.559,312.277,171.559z"/>
				<path style="fill:none;stroke:#263238;strokeLinecap:round;strokeLinejoin:round;stroke-miterlimit:10;" d="M285.554,211.697
					c0,0,1.231-4.747,0.176-12.658"/>
				<path style="fill:none;stroke:#263238;strokeLinecap:round;strokeLinejoin:round;stroke-miterlimit:10;" d="M307.754,218.331
					c-1.067,1.84-1.807,3.035-1.807,3.035"/>
				<path style="fill:none;stroke:#263238;strokeLinecap:round;strokeLinejoin:round;stroke-miterlimit:10;" d="M308.584,175.657
					l2.286,11.251l5.274,2.813l-4.043,1.231c0,0,4.043,10.372,1.231,16.701c-1.274,2.866-2.908,5.948-4.315,8.463"/>
			</g>
			<polygon style="fill:#FFFFFF;stroke:#263238;strokeLinecap:round;strokeLinejoin:round;stroke-miterlimit:10;" points="
				231.406,258.285 229.289,264.754 241.137,269.62 242.618,263.061 			"/>
			<g>
				<polygon style="fill:#263238;stroke:#263238;strokeLinecap:round;strokeLinejoin:round;stroke-miterlimit:10;" points="
					224.488,275.582 221.156,281.957 223.283,283.069 225.243,279.319 240.302,287.19 238.342,290.94 240.469,292.052 
					243.801,285.676 				"/>
				<path style="fill:#A3A3A3;stroke:#263238;strokeLinecap:round;strokeLinejoin:round;stroke-miterlimit:10;" d="
					M231.834,353.837l-56.476-29.518c-2.941-1.537-4.079-5.168-2.542-8.109l21.873-41.851c1.537-2.941,5.168-4.079,8.109-2.542
					l56.476,29.518c2.941,1.537,4.079,5.168,2.542,8.109l-21.874,41.851C238.405,354.237,234.775,355.375,231.834,353.837z"/>
			</g>
			<path style="fill:#FFFFFF;stroke:#263238;strokeLinecap:round;strokeLinejoin:round;stroke-miterlimit:10;" d="M241.137,269.62
				l2.327,8.04c0,0-0.423,4.443-0.423,5.712c0,1.269,2.751,4.232,1.27,4.866s-2.962,0.846-3.597-0.423
				c-0.635-1.269-1.269-3.385-1.269-3.385l-1.904,5.924c0,0-3.385-1.269-4.443-2.116c-1.058-0.846-0.846-4.232-0.846-4.232
				s-6.559-2.962-7.193-4.231c-0.635-1.27,0-5.501,0-5.501l4.231-9.521L241.137,269.62z"/>
		</g>
		<path style="fill:#FFFFFF;stroke:#263238;strokeLinecap:round;strokeLinejoin:round;stroke-miterlimit:10;" d="M315.067,169.098
			l-2.79,2.462l9.847,25.109l9.847-10.667C331.971,186.001,321.467,170.575,315.067,169.098z"/>
		<path style="fill:#FFFFFF;stroke:#263238;strokeLinecap:round;strokeLinejoin:round;stroke-miterlimit:10;" d="M338.043,186.165
			l4.759,7.713c0,0-0.492-9.026-2.298-15.262L338.043,186.165z"/>
		<path style="fill:#263238;stroke:#263238;strokeLinecap:round;strokeLinejoin:round;stroke-miterlimit:10;" d="M332.135,197.653
			c0,0-1.575,2.968-9.838,1.737c-8.263-1.231-18.108-11.955-26.019-13.185c-7.911-1.231-20.921,7.208-31.117,5.274
			c-10.197-1.934-19.866-7.208-19.866-7.208l-16.526,9.669c0,0,16.174,7.208,17.756,7.384s22.679,2.813,29.184,0.176
			c6.505-2.637,15.295-8.966,21.975-6.68c6.68,2.285,14.592,12.13,22.679,11.076C328.45,204.84,332.135,197.653,332.135,197.653z"/>
	</g>
</g>
</svg>
